<mxfile host="Electron" agent="Mozilla/5.0 (Windows NT 10.0; Win64; x64) AppleWebKit/537.36 (KHTML, like Gecko) draw.io/26.1.1 Chrome/132.0.6834.210 Electron/34.3.3 Safari/537.36" version="26.1.1" pages="2">
  <diagram id="W2R29iVw5vUYofLeSaQf" name="erd">
    <mxGraphModel dx="2524" dy="836" grid="1" gridSize="10" guides="1" tooltips="1" connect="1" arrows="1" fold="1" page="1" pageScale="1" pageWidth="850" pageHeight="1100" math="0" shadow="0">
      <root>
        <mxCell id="0" />
        <mxCell id="1" parent="0" />
        <mxCell id="DbgcGDqCKZrmKvK_ajVs-1" value="Student" style="rounded=0;whiteSpace=wrap;html=1;" parent="1" vertex="1">
          <mxGeometry x="-635" y="420" width="120" height="60" as="geometry" />
        </mxCell>
        <mxCell id="DbgcGDqCKZrmKvK_ajVs-2" value="Teacher" style="rounded=0;whiteSpace=wrap;html=1;" parent="1" vertex="1">
          <mxGeometry x="80" y="750" width="120" height="60" as="geometry" />
        </mxCell>
        <mxCell id="DbgcGDqCKZrmKvK_ajVs-3" value="Room" style="rounded=0;whiteSpace=wrap;html=1;" parent="1" vertex="1">
          <mxGeometry x="495" y="265" width="120" height="60" as="geometry" />
        </mxCell>
        <mxCell id="DbgcGDqCKZrmKvK_ajVs-4" value="Course" style="rounded=0;whiteSpace=wrap;html=1;" parent="1" vertex="1">
          <mxGeometry x="80" y="420" width="120" height="60" as="geometry" />
        </mxCell>
        <mxCell id="DbgcGDqCKZrmKvK_ajVs-5" value="Study" style="rhombus;whiteSpace=wrap;html=1;" parent="1" vertex="1">
          <mxGeometry x="-275" y="425" width="80" height="50" as="geometry" />
        </mxCell>
        <mxCell id="DbgcGDqCKZrmKvK_ajVs-6" value="Teach" style="rhombus;whiteSpace=wrap;html=1;" parent="1" vertex="1">
          <mxGeometry x="100" y="560" width="80" height="50" as="geometry" />
        </mxCell>
        <mxCell id="DbgcGDqCKZrmKvK_ajVs-7" value="At" style="rhombus;whiteSpace=wrap;html=1;" parent="1" vertex="1">
          <mxGeometry x="220" y="270" width="80" height="50" as="geometry" />
        </mxCell>
        <mxCell id="DbgcGDqCKZrmKvK_ajVs-8" value="" style="endArrow=none;html=1;rounded=0;" parent="1" source="DbgcGDqCKZrmKvK_ajVs-5" target="DbgcGDqCKZrmKvK_ajVs-1" edge="1">
          <mxGeometry width="50" height="50" relative="1" as="geometry">
            <mxPoint x="-400" y="452.84" as="sourcePoint" />
            <mxPoint x="120" y="517.84" as="targetPoint" />
          </mxGeometry>
        </mxCell>
        <mxCell id="DbgcGDqCKZrmKvK_ajVs-9" value="" style="endArrow=none;html=1;rounded=0;" parent="1" source="DbgcGDqCKZrmKvK_ajVs-4" target="DbgcGDqCKZrmKvK_ajVs-7" edge="1">
          <mxGeometry width="50" height="50" relative="1" as="geometry">
            <mxPoint x="570" y="450" as="sourcePoint" />
            <mxPoint x="620" y="400" as="targetPoint" />
          </mxGeometry>
        </mxCell>
        <mxCell id="DbgcGDqCKZrmKvK_ajVs-10" value="" style="endArrow=none;html=1;rounded=0;" parent="1" source="DbgcGDqCKZrmKvK_ajVs-7" target="DbgcGDqCKZrmKvK_ajVs-3" edge="1">
          <mxGeometry width="50" height="50" relative="1" as="geometry">
            <mxPoint x="405" y="310" as="sourcePoint" />
            <mxPoint x="675" y="260" as="targetPoint" />
          </mxGeometry>
        </mxCell>
        <mxCell id="DbgcGDqCKZrmKvK_ajVs-11" value="" style="endArrow=none;html=1;rounded=0;" parent="1" source="DbgcGDqCKZrmKvK_ajVs-4" target="DbgcGDqCKZrmKvK_ajVs-6" edge="1">
          <mxGeometry width="50" height="50" relative="1" as="geometry">
            <mxPoint x="570" y="450" as="sourcePoint" />
            <mxPoint x="620" y="400" as="targetPoint" />
          </mxGeometry>
        </mxCell>
        <mxCell id="DbgcGDqCKZrmKvK_ajVs-12" value="" style="endArrow=none;html=1;rounded=0;" parent="1" source="DbgcGDqCKZrmKvK_ajVs-4" target="DbgcGDqCKZrmKvK_ajVs-5" edge="1">
          <mxGeometry width="50" height="50" relative="1" as="geometry">
            <mxPoint x="570" y="450" as="sourcePoint" />
            <mxPoint x="620" y="400" as="targetPoint" />
          </mxGeometry>
        </mxCell>
        <mxCell id="DbgcGDqCKZrmKvK_ajVs-13" value="" style="endArrow=none;html=1;rounded=0;" parent="1" source="DbgcGDqCKZrmKvK_ajVs-6" target="DbgcGDqCKZrmKvK_ajVs-2" edge="1">
          <mxGeometry width="50" height="50" relative="1" as="geometry">
            <mxPoint x="570" y="540" as="sourcePoint" />
            <mxPoint x="620" y="490" as="targetPoint" />
          </mxGeometry>
        </mxCell>
        <mxCell id="DbgcGDqCKZrmKvK_ajVs-14" value="&lt;u&gt;Studentid&lt;/u&gt;" style="ellipse;whiteSpace=wrap;html=1;" parent="1" vertex="1">
          <mxGeometry x="-612.5" y="310" width="75" height="40" as="geometry" />
        </mxCell>
        <mxCell id="DbgcGDqCKZrmKvK_ajVs-15" value="Schedule" style="rounded=0;whiteSpace=wrap;html=1;" parent="1" vertex="1">
          <mxGeometry x="80" y="155" width="120" height="60" as="geometry" />
        </mxCell>
        <mxCell id="DbgcGDqCKZrmKvK_ajVs-16" value="&lt;u&gt;Scheduleid&lt;/u&gt;" style="ellipse;whiteSpace=wrap;html=1;" parent="1" vertex="1">
          <mxGeometry x="102.5" y="70" width="75" height="40" as="geometry" />
        </mxCell>
        <mxCell id="DbgcGDqCKZrmKvK_ajVs-17" value="Day" style="ellipse;whiteSpace=wrap;html=1;" parent="1" vertex="1">
          <mxGeometry x="-50" y="165" width="75" height="40" as="geometry" />
        </mxCell>
        <mxCell id="DbgcGDqCKZrmKvK_ajVs-18" value="StartTime" style="ellipse;whiteSpace=wrap;html=1;" parent="1" vertex="1">
          <mxGeometry x="205" y="100" width="75" height="40" as="geometry" />
        </mxCell>
        <mxCell id="DbgcGDqCKZrmKvK_ajVs-19" value="EndTime" style="ellipse;whiteSpace=wrap;html=1;" parent="1" vertex="1">
          <mxGeometry x="255" y="165" width="75" height="40" as="geometry" />
        </mxCell>
        <mxCell id="DbgcGDqCKZrmKvK_ajVs-20" value="" style="endArrow=none;html=1;rounded=0;" parent="1" source="DbgcGDqCKZrmKvK_ajVs-15" target="DbgcGDqCKZrmKvK_ajVs-16" edge="1">
          <mxGeometry width="50" height="50" relative="1" as="geometry">
            <mxPoint x="-315" y="-225" as="sourcePoint" />
            <mxPoint x="-265" y="-275" as="targetPoint" />
          </mxGeometry>
        </mxCell>
        <mxCell id="DbgcGDqCKZrmKvK_ajVs-21" value="" style="endArrow=none;html=1;rounded=0;" parent="1" source="DbgcGDqCKZrmKvK_ajVs-15" target="DbgcGDqCKZrmKvK_ajVs-17" edge="1">
          <mxGeometry width="50" height="50" relative="1" as="geometry">
            <mxPoint x="-588" y="-65" as="sourcePoint" />
            <mxPoint x="-613" y="-33" as="targetPoint" />
          </mxGeometry>
        </mxCell>
        <mxCell id="DbgcGDqCKZrmKvK_ajVs-22" value="" style="endArrow=none;html=1;rounded=0;" parent="1" source="DbgcGDqCKZrmKvK_ajVs-15" target="DbgcGDqCKZrmKvK_ajVs-19" edge="1">
          <mxGeometry width="50" height="50" relative="1" as="geometry">
            <mxPoint x="-578" y="-55" as="sourcePoint" />
            <mxPoint x="255" y="185" as="targetPoint" />
          </mxGeometry>
        </mxCell>
        <mxCell id="DbgcGDqCKZrmKvK_ajVs-23" value="" style="endArrow=none;html=1;rounded=0;" parent="1" source="DbgcGDqCKZrmKvK_ajVs-15" target="DbgcGDqCKZrmKvK_ajVs-18" edge="1">
          <mxGeometry width="50" height="50" relative="1" as="geometry">
            <mxPoint x="-568" y="-45" as="sourcePoint" />
            <mxPoint x="-593" y="-13" as="targetPoint" />
          </mxGeometry>
        </mxCell>
        <mxCell id="DbgcGDqCKZrmKvK_ajVs-26" value="FullName" style="ellipse;whiteSpace=wrap;html=1;" parent="1" vertex="1">
          <mxGeometry x="-785" y="430" width="75" height="40" as="geometry" />
        </mxCell>
        <mxCell id="DbgcGDqCKZrmKvK_ajVs-27" value="DateOfBirtd" style="ellipse;whiteSpace=wrap;html=1;" parent="1" vertex="1">
          <mxGeometry x="-491.25" y="340" width="75" height="40" as="geometry" />
        </mxCell>
        <mxCell id="DbgcGDqCKZrmKvK_ajVs-28" value="Gender" style="ellipse;whiteSpace=wrap;html=1;" parent="1" vertex="1">
          <mxGeometry x="-780" y="370" width="75" height="40" as="geometry" />
        </mxCell>
        <mxCell id="DbgcGDqCKZrmKvK_ajVs-29" value="Phone" style="ellipse;whiteSpace=wrap;html=1;" parent="1" vertex="1">
          <mxGeometry x="-710" y="325" width="75" height="40" as="geometry" />
        </mxCell>
        <mxCell id="DbgcGDqCKZrmKvK_ajVs-30" value="Email" style="ellipse;whiteSpace=wrap;html=1;" parent="1" vertex="1">
          <mxGeometry x="-680" y="540" width="75" height="40" as="geometry" />
        </mxCell>
        <mxCell id="DbgcGDqCKZrmKvK_ajVs-31" value="" style="endArrow=none;html=1;rounded=0;" parent="1" source="DbgcGDqCKZrmKvK_ajVs-29" target="DbgcGDqCKZrmKvK_ajVs-1" edge="1">
          <mxGeometry width="50" height="50" relative="1" as="geometry">
            <mxPoint x="-136.25" y="750" as="sourcePoint" />
            <mxPoint x="-86.25" y="700" as="targetPoint" />
          </mxGeometry>
        </mxCell>
        <mxCell id="DbgcGDqCKZrmKvK_ajVs-32" value="" style="endArrow=none;html=1;rounded=0;" parent="1" source="DbgcGDqCKZrmKvK_ajVs-14" target="DbgcGDqCKZrmKvK_ajVs-1" edge="1">
          <mxGeometry width="50" height="50" relative="1" as="geometry">
            <mxPoint x="-706.0899999999999" y="379.76" as="sourcePoint" />
            <mxPoint x="-615.09" y="389.76" as="targetPoint" />
          </mxGeometry>
        </mxCell>
        <mxCell id="DbgcGDqCKZrmKvK_ajVs-33" value="" style="endArrow=none;html=1;rounded=0;" parent="1" source="DbgcGDqCKZrmKvK_ajVs-26" target="DbgcGDqCKZrmKvK_ajVs-1" edge="1">
          <mxGeometry width="50" height="50" relative="1" as="geometry">
            <mxPoint x="-690.3199999999999" y="339.92" as="sourcePoint" />
            <mxPoint x="-567.3199999999999" y="414.91999999999996" as="targetPoint" />
          </mxGeometry>
        </mxCell>
        <mxCell id="DbgcGDqCKZrmKvK_ajVs-34" value="" style="endArrow=none;html=1;rounded=0;" parent="1" source="DbgcGDqCKZrmKvK_ajVs-27" target="DbgcGDqCKZrmKvK_ajVs-1" edge="1">
          <mxGeometry width="50" height="50" relative="1" as="geometry">
            <mxPoint x="-563.62" y="339.7" as="sourcePoint" />
            <mxPoint x="-526.62" y="410.7" as="targetPoint" />
          </mxGeometry>
        </mxCell>
        <mxCell id="DbgcGDqCKZrmKvK_ajVs-35" value="" style="endArrow=none;html=1;rounded=0;" parent="1" source="DbgcGDqCKZrmKvK_ajVs-28" target="DbgcGDqCKZrmKvK_ajVs-1" edge="1">
          <mxGeometry width="50" height="50" relative="1" as="geometry">
            <mxPoint x="-468.12" y="360.41999999999996" as="sourcePoint" />
            <mxPoint x="-496.12" y="430.41999999999996" as="targetPoint" />
          </mxGeometry>
        </mxCell>
        <mxCell id="DbgcGDqCKZrmKvK_ajVs-36" value="" style="endArrow=none;html=1;rounded=0;" parent="1" source="DbgcGDqCKZrmKvK_ajVs-30" target="DbgcGDqCKZrmKvK_ajVs-1" edge="1">
          <mxGeometry width="50" height="50" relative="1" as="geometry">
            <mxPoint x="-416.12" y="367" as="sourcePoint" />
            <mxPoint x="-506.12" y="440" as="targetPoint" />
          </mxGeometry>
        </mxCell>
        <mxCell id="DbgcGDqCKZrmKvK_ajVs-37" value="FullName" style="ellipse;whiteSpace=wrap;html=1;" parent="1" vertex="1">
          <mxGeometry x="280" y="700" width="75" height="40" as="geometry" />
        </mxCell>
        <mxCell id="DbgcGDqCKZrmKvK_ajVs-38" value="DateOfBirth" style="ellipse;whiteSpace=wrap;html=1;" parent="1" vertex="1">
          <mxGeometry x="5" y="870" width="75" height="40" as="geometry" />
        </mxCell>
        <mxCell id="DbgcGDqCKZrmKvK_ajVs-39" value="Gender" style="ellipse;whiteSpace=wrap;html=1;" parent="1" vertex="1">
          <mxGeometry x="102.5" y="870" width="75" height="40" as="geometry" />
        </mxCell>
        <mxCell id="DbgcGDqCKZrmKvK_ajVs-40" value="Email" style="ellipse;whiteSpace=wrap;html=1;" parent="1" vertex="1">
          <mxGeometry x="270" y="820" width="75" height="40" as="geometry" />
        </mxCell>
        <mxCell id="DbgcGDqCKZrmKvK_ajVs-41" value="Phone" style="ellipse;whiteSpace=wrap;html=1;" parent="1" vertex="1">
          <mxGeometry x="290" y="760" width="75" height="40" as="geometry" />
        </mxCell>
        <mxCell id="DbgcGDqCKZrmKvK_ajVs-42" value="&lt;u&gt;Teacherid&lt;/u&gt;" style="ellipse;whiteSpace=wrap;html=1;" parent="1" vertex="1">
          <mxGeometry x="225" y="650" width="75" height="40" as="geometry" />
        </mxCell>
        <mxCell id="DbgcGDqCKZrmKvK_ajVs-43" value="Expertise" style="ellipse;whiteSpace=wrap;html=1;" parent="1" vertex="1">
          <mxGeometry x="-50" y="715" width="75" height="40" as="geometry" />
        </mxCell>
        <mxCell id="DbgcGDqCKZrmKvK_ajVs-44" value="Level" style="ellipse;whiteSpace=wrap;html=1;" parent="1" vertex="1">
          <mxGeometry x="-20" y="660" width="75" height="40" as="geometry" />
        </mxCell>
        <mxCell id="DbgcGDqCKZrmKvK_ajVs-45" value="Salary" style="ellipse;whiteSpace=wrap;html=1;" parent="1" vertex="1">
          <mxGeometry x="50" y="635" width="75" height="40" as="geometry" />
        </mxCell>
        <mxCell id="DbgcGDqCKZrmKvK_ajVs-46" value="" style="endArrow=none;html=1;rounded=0;" parent="1" source="DbgcGDqCKZrmKvK_ajVs-2" target="DbgcGDqCKZrmKvK_ajVs-42" edge="1">
          <mxGeometry width="50" height="50" relative="1" as="geometry">
            <mxPoint x="220" y="700" as="sourcePoint" />
            <mxPoint x="270" y="650" as="targetPoint" />
          </mxGeometry>
        </mxCell>
        <mxCell id="DbgcGDqCKZrmKvK_ajVs-47" value="" style="endArrow=none;html=1;rounded=0;" parent="1" source="DbgcGDqCKZrmKvK_ajVs-2" target="DbgcGDqCKZrmKvK_ajVs-37" edge="1">
          <mxGeometry width="50" height="50" relative="1" as="geometry">
            <mxPoint x="210" y="762.62" as="sourcePoint" />
            <mxPoint x="282" y="749.62" as="targetPoint" />
          </mxGeometry>
        </mxCell>
        <mxCell id="DbgcGDqCKZrmKvK_ajVs-48" value="" style="endArrow=none;html=1;rounded=0;" parent="1" source="DbgcGDqCKZrmKvK_ajVs-2" target="DbgcGDqCKZrmKvK_ajVs-41" edge="1">
          <mxGeometry width="50" height="50" relative="1" as="geometry">
            <mxPoint x="193.14" y="776.22" as="sourcePoint" />
            <mxPoint x="270.14" y="790.22" as="targetPoint" />
          </mxGeometry>
        </mxCell>
        <mxCell id="DbgcGDqCKZrmKvK_ajVs-49" value="" style="endArrow=none;html=1;rounded=0;" parent="1" source="DbgcGDqCKZrmKvK_ajVs-2" target="DbgcGDqCKZrmKvK_ajVs-40" edge="1">
          <mxGeometry width="50" height="50" relative="1" as="geometry">
            <mxPoint x="161.84" y="814.24" as="sourcePoint" />
            <mxPoint x="249.84" y="860.24" as="targetPoint" />
          </mxGeometry>
        </mxCell>
        <mxCell id="DbgcGDqCKZrmKvK_ajVs-50" value="" style="endArrow=none;html=1;rounded=0;" parent="1" source="DbgcGDqCKZrmKvK_ajVs-2" target="DbgcGDqCKZrmKvK_ajVs-39" edge="1">
          <mxGeometry width="50" height="50" relative="1" as="geometry">
            <mxPoint x="130" y="830" as="sourcePoint" />
            <mxPoint x="177" y="851" as="targetPoint" />
          </mxGeometry>
        </mxCell>
        <mxCell id="DbgcGDqCKZrmKvK_ajVs-51" value="" style="endArrow=none;html=1;rounded=0;" parent="1" source="DbgcGDqCKZrmKvK_ajVs-2" target="DbgcGDqCKZrmKvK_ajVs-38" edge="1">
          <mxGeometry width="50" height="50" relative="1" as="geometry">
            <mxPoint x="129" y="830" as="sourcePoint" />
            <mxPoint x="100" y="871" as="targetPoint" />
          </mxGeometry>
        </mxCell>
        <mxCell id="DbgcGDqCKZrmKvK_ajVs-52" value="" style="endArrow=none;html=1;rounded=0;" parent="1" source="DbgcGDqCKZrmKvK_ajVs-2" target="DbgcGDqCKZrmKvK_ajVs-43" edge="1">
          <mxGeometry width="50" height="50" relative="1" as="geometry">
            <mxPoint x="139" y="840" as="sourcePoint" />
            <mxPoint x="110" y="881" as="targetPoint" />
          </mxGeometry>
        </mxCell>
        <mxCell id="DbgcGDqCKZrmKvK_ajVs-53" value="" style="endArrow=none;html=1;rounded=0;" parent="1" source="DbgcGDqCKZrmKvK_ajVs-2" target="DbgcGDqCKZrmKvK_ajVs-44" edge="1">
          <mxGeometry width="50" height="50" relative="1" as="geometry">
            <mxPoint x="149" y="850" as="sourcePoint" />
            <mxPoint x="120" y="891" as="targetPoint" />
          </mxGeometry>
        </mxCell>
        <mxCell id="DbgcGDqCKZrmKvK_ajVs-54" value="" style="endArrow=none;html=1;rounded=0;" parent="1" source="DbgcGDqCKZrmKvK_ajVs-2" target="DbgcGDqCKZrmKvK_ajVs-45" edge="1">
          <mxGeometry width="50" height="50" relative="1" as="geometry">
            <mxPoint x="159" y="860" as="sourcePoint" />
            <mxPoint x="130" y="901" as="targetPoint" />
          </mxGeometry>
        </mxCell>
        <mxCell id="DbgcGDqCKZrmKvK_ajVs-55" value="&lt;u&gt;Courseid&lt;/u&gt;" style="ellipse;whiteSpace=wrap;html=1;" parent="1" vertex="1">
          <mxGeometry x="-10" y="325" width="85" height="40" as="geometry" />
        </mxCell>
        <mxCell id="DbgcGDqCKZrmKvK_ajVs-58" value="" style="endArrow=none;html=1;rounded=0;" parent="1" source="DbgcGDqCKZrmKvK_ajVs-55" target="DbgcGDqCKZrmKvK_ajVs-4" edge="1">
          <mxGeometry width="50" height="50" relative="1" as="geometry">
            <mxPoint x="550" y="500" as="sourcePoint" />
            <mxPoint x="600" y="450" as="targetPoint" />
          </mxGeometry>
        </mxCell>
        <mxCell id="DbgcGDqCKZrmKvK_ajVs-61" value="&lt;u&gt;Roomid&lt;/u&gt;" style="ellipse;whiteSpace=wrap;html=1;" parent="1" vertex="1">
          <mxGeometry x="517.5" y="170" width="75" height="40" as="geometry" />
        </mxCell>
        <mxCell id="DbgcGDqCKZrmKvK_ajVs-62" value="Address" style="ellipse;whiteSpace=wrap;html=1;" parent="1" vertex="1">
          <mxGeometry x="670" y="275" width="75" height="40" as="geometry" />
        </mxCell>
        <mxCell id="DbgcGDqCKZrmKvK_ajVs-63" value="Status" style="ellipse;whiteSpace=wrap;html=1;" parent="1" vertex="1">
          <mxGeometry x="517.5" y="380" width="75" height="40" as="geometry" />
        </mxCell>
        <mxCell id="DbgcGDqCKZrmKvK_ajVs-64" value="" style="endArrow=none;html=1;rounded=0;" parent="1" source="DbgcGDqCKZrmKvK_ajVs-3" target="DbgcGDqCKZrmKvK_ajVs-61" edge="1">
          <mxGeometry width="50" height="50" relative="1" as="geometry">
            <mxPoint x="715" y="415" as="sourcePoint" />
            <mxPoint x="765" y="365" as="targetPoint" />
          </mxGeometry>
        </mxCell>
        <mxCell id="DbgcGDqCKZrmKvK_ajVs-65" value="" style="endArrow=none;html=1;rounded=0;" parent="1" source="DbgcGDqCKZrmKvK_ajVs-3" target="DbgcGDqCKZrmKvK_ajVs-62" edge="1">
          <mxGeometry width="50" height="50" relative="1" as="geometry">
            <mxPoint x="606" y="345" as="sourcePoint" />
            <mxPoint x="525" y="263" as="targetPoint" />
          </mxGeometry>
        </mxCell>
        <mxCell id="DbgcGDqCKZrmKvK_ajVs-66" value="" style="endArrow=none;html=1;rounded=0;" parent="1" source="DbgcGDqCKZrmKvK_ajVs-3" target="DbgcGDqCKZrmKvK_ajVs-63" edge="1">
          <mxGeometry width="50" height="50" relative="1" as="geometry">
            <mxPoint x="616" y="355" as="sourcePoint" />
            <mxPoint x="640.7228244389162" y="231.28200041950186" as="targetPoint" />
          </mxGeometry>
        </mxCell>
        <mxCell id="DbgcGDqCKZrmKvK_ajVs-75" value="Subject" style="rounded=0;whiteSpace=wrap;html=1;" parent="1" vertex="1">
          <mxGeometry x="480" y="590" width="120" height="60" as="geometry" />
        </mxCell>
        <mxCell id="DbgcGDqCKZrmKvK_ajVs-76" value="&lt;u&gt;Subjectid&lt;/u&gt;" style="ellipse;whiteSpace=wrap;html=1;" parent="1" vertex="1">
          <mxGeometry x="502.5" y="490" width="75" height="40" as="geometry" />
        </mxCell>
        <mxCell id="DbgcGDqCKZrmKvK_ajVs-77" value="SubjectName" style="ellipse;whiteSpace=wrap;html=1;" parent="1" vertex="1">
          <mxGeometry x="502.5" y="715" width="75" height="40" as="geometry" />
        </mxCell>
        <mxCell id="DbgcGDqCKZrmKvK_ajVs-78" value="Tuition" style="ellipse;whiteSpace=wrap;html=1;" parent="1" vertex="1">
          <mxGeometry x="610" y="520" width="75" height="40" as="geometry" />
        </mxCell>
        <mxCell id="DbgcGDqCKZrmKvK_ajVs-79" value="Credit" style="ellipse;whiteSpace=wrap;html=1;" parent="1" vertex="1">
          <mxGeometry x="640" y="600" width="75" height="40" as="geometry" />
        </mxCell>
        <mxCell id="DbgcGDqCKZrmKvK_ajVs-80" value="" style="endArrow=none;html=1;rounded=0;" parent="1" source="DbgcGDqCKZrmKvK_ajVs-75" target="DbgcGDqCKZrmKvK_ajVs-76" edge="1">
          <mxGeometry width="50" height="50" relative="1" as="geometry">
            <mxPoint x="110" y="280" as="sourcePoint" />
            <mxPoint x="160" y="230" as="targetPoint" />
          </mxGeometry>
        </mxCell>
        <mxCell id="DbgcGDqCKZrmKvK_ajVs-81" value="" style="endArrow=none;html=1;rounded=0;" parent="1" source="DbgcGDqCKZrmKvK_ajVs-75" target="DbgcGDqCKZrmKvK_ajVs-77" edge="1">
          <mxGeometry width="50" height="50" relative="1" as="geometry">
            <mxPoint x="-163" y="440" as="sourcePoint" />
            <mxPoint x="-188" y="472" as="targetPoint" />
          </mxGeometry>
        </mxCell>
        <mxCell id="DbgcGDqCKZrmKvK_ajVs-82" value="" style="endArrow=none;html=1;rounded=0;" parent="1" source="DbgcGDqCKZrmKvK_ajVs-75" target="DbgcGDqCKZrmKvK_ajVs-79" edge="1">
          <mxGeometry width="50" height="50" relative="1" as="geometry">
            <mxPoint x="-153" y="450" as="sourcePoint" />
            <mxPoint x="-178" y="482" as="targetPoint" />
          </mxGeometry>
        </mxCell>
        <mxCell id="DbgcGDqCKZrmKvK_ajVs-83" value="" style="endArrow=none;html=1;rounded=0;" parent="1" source="DbgcGDqCKZrmKvK_ajVs-75" target="DbgcGDqCKZrmKvK_ajVs-78" edge="1">
          <mxGeometry width="50" height="50" relative="1" as="geometry">
            <mxPoint x="-143" y="460" as="sourcePoint" />
            <mxPoint x="-168" y="492" as="targetPoint" />
          </mxGeometry>
        </mxCell>
        <mxCell id="DbgcGDqCKZrmKvK_ajVs-84" value="Of" style="rhombus;whiteSpace=wrap;html=1;" parent="1" vertex="1">
          <mxGeometry x="265" y="595" width="80" height="50" as="geometry" />
        </mxCell>
        <mxCell id="DbgcGDqCKZrmKvK_ajVs-85" value="" style="endArrow=none;html=1;rounded=0;" parent="1" source="DbgcGDqCKZrmKvK_ajVs-4" target="DbgcGDqCKZrmKvK_ajVs-84" edge="1">
          <mxGeometry width="50" height="50" relative="1" as="geometry">
            <mxPoint x="210" y="460" as="sourcePoint" />
            <mxPoint x="345" y="345" as="targetPoint" />
          </mxGeometry>
        </mxCell>
        <mxCell id="DbgcGDqCKZrmKvK_ajVs-86" value="" style="endArrow=none;html=1;rounded=0;" parent="1" source="DbgcGDqCKZrmKvK_ajVs-84" target="DbgcGDqCKZrmKvK_ajVs-75" edge="1">
          <mxGeometry width="50" height="50" relative="1" as="geometry">
            <mxPoint x="220" y="657" as="sourcePoint" />
            <mxPoint x="347" y="692" as="targetPoint" />
          </mxGeometry>
        </mxCell>
        <mxCell id="DbgcGDqCKZrmKvK_ajVs-87" value="Has" style="rhombus;whiteSpace=wrap;html=1;" parent="1" vertex="1">
          <mxGeometry x="100" y="290" width="80" height="50" as="geometry" />
        </mxCell>
        <mxCell id="DbgcGDqCKZrmKvK_ajVs-88" value="" style="endArrow=none;html=1;rounded=0;" parent="1" source="DbgcGDqCKZrmKvK_ajVs-15" target="DbgcGDqCKZrmKvK_ajVs-87" edge="1">
          <mxGeometry width="50" height="50" relative="1" as="geometry">
            <mxPoint x="65" y="130" as="sourcePoint" />
            <mxPoint x="-58" y="183" as="targetPoint" />
          </mxGeometry>
        </mxCell>
        <mxCell id="DbgcGDqCKZrmKvK_ajVs-89" value="" style="endArrow=none;html=1;rounded=0;" parent="1" source="DbgcGDqCKZrmKvK_ajVs-87" target="DbgcGDqCKZrmKvK_ajVs-4" edge="1">
          <mxGeometry width="50" height="50" relative="1" as="geometry">
            <mxPoint x="75" y="125" as="sourcePoint" />
            <mxPoint x="-48" y="178" as="targetPoint" />
          </mxGeometry>
        </mxCell>
        <mxCell id="DbgcGDqCKZrmKvK_ajVs-94" value="Score" style="rounded=0;whiteSpace=wrap;html=1;" parent="1" vertex="1">
          <mxGeometry x="-295" y="575" width="120" height="60" as="geometry" />
        </mxCell>
        <mxCell id="DbgcGDqCKZrmKvK_ajVs-95" value="&lt;u&gt;Mã điểm&lt;/u&gt;" style="ellipse;whiteSpace=wrap;html=1;" parent="1" vertex="1">
          <mxGeometry x="-430" y="585" width="75" height="40" as="geometry" />
        </mxCell>
        <mxCell id="DbgcGDqCKZrmKvK_ajVs-96" value="Ngày kiểm tra" style="ellipse;whiteSpace=wrap;html=1;" parent="1" vertex="1">
          <mxGeometry x="-277.5" y="690" width="85" height="40" as="geometry" />
        </mxCell>
        <mxCell id="DbgcGDqCKZrmKvK_ajVs-97" value="Điểm" style="ellipse;whiteSpace=wrap;html=1;" parent="1" vertex="1">
          <mxGeometry x="-170" y="660" width="75" height="40" as="geometry" />
        </mxCell>
        <mxCell id="DbgcGDqCKZrmKvK_ajVs-98" value="Lần kiểm tra" style="ellipse;whiteSpace=wrap;html=1;" parent="1" vertex="1">
          <mxGeometry x="-130" y="585" width="75" height="40" as="geometry" />
        </mxCell>
        <mxCell id="DbgcGDqCKZrmKvK_ajVs-99" value="" style="endArrow=none;html=1;rounded=0;" parent="1" source="DbgcGDqCKZrmKvK_ajVs-98" target="DbgcGDqCKZrmKvK_ajVs-94" edge="1">
          <mxGeometry width="50" height="50" relative="1" as="geometry">
            <mxPoint x="-417.5" y="645" as="sourcePoint" />
            <mxPoint x="227.5" y="920" as="targetPoint" />
          </mxGeometry>
        </mxCell>
        <mxCell id="DbgcGDqCKZrmKvK_ajVs-100" value="" style="endArrow=none;html=1;rounded=0;" parent="1" source="DbgcGDqCKZrmKvK_ajVs-95" target="DbgcGDqCKZrmKvK_ajVs-94" edge="1">
          <mxGeometry width="50" height="50" relative="1" as="geometry">
            <mxPoint x="-392.3399999999999" y="599.76" as="sourcePoint" />
            <mxPoint x="-301.34000000000003" y="609.76" as="targetPoint" />
          </mxGeometry>
        </mxCell>
        <mxCell id="DbgcGDqCKZrmKvK_ajVs-101" value="" style="endArrow=none;html=1;rounded=0;" parent="1" source="DbgcGDqCKZrmKvK_ajVs-96" target="DbgcGDqCKZrmKvK_ajVs-94" edge="1">
          <mxGeometry width="50" height="50" relative="1" as="geometry">
            <mxPoint x="-376.56999999999994" y="559.9200000000001" as="sourcePoint" />
            <mxPoint x="-253.57" y="634.92" as="targetPoint" />
          </mxGeometry>
        </mxCell>
        <mxCell id="DbgcGDqCKZrmKvK_ajVs-102" value="" style="endArrow=none;html=1;rounded=0;" parent="1" source="DbgcGDqCKZrmKvK_ajVs-97" target="DbgcGDqCKZrmKvK_ajVs-94" edge="1">
          <mxGeometry width="50" height="50" relative="1" as="geometry">
            <mxPoint x="-154.37" y="580.42" as="sourcePoint" />
            <mxPoint x="-182.37" y="650.42" as="targetPoint" />
          </mxGeometry>
        </mxCell>
        <mxCell id="DbgcGDqCKZrmKvK_ajVs-103" value="" style="endArrow=none;html=1;rounded=0;" parent="1" source="DbgcGDqCKZrmKvK_ajVs-94" target="DbgcGDqCKZrmKvK_ajVs-5" edge="1">
          <mxGeometry width="50" height="50" relative="1" as="geometry">
            <mxPoint x="-398" y="580" as="sourcePoint" />
            <mxPoint x="-275" y="655" as="targetPoint" />
          </mxGeometry>
        </mxCell>
        <mxCell id="DbgcGDqCKZrmKvK_ajVs-104" value="Attendance" style="rounded=0;whiteSpace=wrap;html=1;" parent="1" vertex="1">
          <mxGeometry x="-295" y="235" width="120" height="60" as="geometry" />
        </mxCell>
        <mxCell id="DbgcGDqCKZrmKvK_ajVs-105" value="&lt;u&gt;Attendanceid&lt;/u&gt;" style="ellipse;whiteSpace=wrap;html=1;" parent="1" vertex="1">
          <mxGeometry x="-446.25" y="245" width="95" height="40" as="geometry" />
        </mxCell>
        <mxCell id="DbgcGDqCKZrmKvK_ajVs-106" value="Status" style="ellipse;whiteSpace=wrap;html=1;" parent="1" vertex="1">
          <mxGeometry x="-272.5" y="165" width="75" height="40" as="geometry" />
        </mxCell>
        <mxCell id="DbgcGDqCKZrmKvK_ajVs-107" value="AttendanceDate" style="ellipse;whiteSpace=wrap;html=1;" parent="1" vertex="1">
          <mxGeometry x="-130" y="245" width="100" height="40" as="geometry" />
        </mxCell>
        <mxCell id="DbgcGDqCKZrmKvK_ajVs-108" value="" style="endArrow=none;html=1;rounded=0;" parent="1" source="DbgcGDqCKZrmKvK_ajVs-107" target="DbgcGDqCKZrmKvK_ajVs-104" edge="1">
          <mxGeometry width="50" height="50" relative="1" as="geometry">
            <mxPoint x="140" y="490" as="sourcePoint" />
            <mxPoint x="190" y="440" as="targetPoint" />
          </mxGeometry>
        </mxCell>
        <mxCell id="DbgcGDqCKZrmKvK_ajVs-110" value="" style="endArrow=none;html=1;rounded=0;" parent="1" source="DbgcGDqCKZrmKvK_ajVs-106" target="DbgcGDqCKZrmKvK_ajVs-104" edge="1">
          <mxGeometry width="50" height="50" relative="1" as="geometry">
            <mxPoint x="-414.06999999999994" y="79.92000000000002" as="sourcePoint" />
            <mxPoint x="-291.07" y="154.91999999999996" as="targetPoint" />
          </mxGeometry>
        </mxCell>
        <mxCell id="DbgcGDqCKZrmKvK_ajVs-111" value="" style="endArrow=none;html=1;rounded=0;" parent="1" source="DbgcGDqCKZrmKvK_ajVs-5" target="DbgcGDqCKZrmKvK_ajVs-104" edge="1">
          <mxGeometry width="50" height="50" relative="1" as="geometry">
            <mxPoint x="-423" y="262" as="sourcePoint" />
            <mxPoint x="-340" y="240" as="targetPoint" />
          </mxGeometry>
        </mxCell>
        <mxCell id="DbgcGDqCKZrmKvK_ajVs-112" value="User" style="rounded=0;whiteSpace=wrap;html=1;" parent="1" vertex="1">
          <mxGeometry x="-636.25" y="750" width="120" height="60" as="geometry" />
        </mxCell>
        <mxCell id="DbgcGDqCKZrmKvK_ajVs-113" value="&lt;u&gt;Userid&lt;/u&gt;" style="ellipse;whiteSpace=wrap;html=1;" parent="1" vertex="1">
          <mxGeometry x="-736.25" y="680" width="100" height="40" as="geometry" />
        </mxCell>
        <mxCell id="DbgcGDqCKZrmKvK_ajVs-114" value="Password" style="ellipse;whiteSpace=wrap;html=1;" parent="1" vertex="1">
          <mxGeometry x="-736.25" y="840" width="75" height="40" as="geometry" />
        </mxCell>
        <mxCell id="DbgcGDqCKZrmKvK_ajVs-115" value="Role" style="ellipse;whiteSpace=wrap;html=1;" parent="1" vertex="1">
          <mxGeometry x="-613.75" y="880" width="75" height="40" as="geometry" />
        </mxCell>
        <mxCell id="DbgcGDqCKZrmKvK_ajVs-116" value="UserName" style="ellipse;whiteSpace=wrap;html=1;" parent="1" vertex="1">
          <mxGeometry x="-763.75" y="760" width="75" height="40" as="geometry" />
        </mxCell>
        <mxCell id="DbgcGDqCKZrmKvK_ajVs-117" value="Startus" style="ellipse;whiteSpace=wrap;html=1;" parent="1" vertex="1">
          <mxGeometry x="-511.25" y="860" width="75" height="40" as="geometry" />
        </mxCell>
        <mxCell id="DbgcGDqCKZrmKvK_ajVs-118" value="" style="endArrow=none;html=1;rounded=0;" parent="1" source="DbgcGDqCKZrmKvK_ajVs-116" target="DbgcGDqCKZrmKvK_ajVs-112" edge="1">
          <mxGeometry width="50" height="50" relative="1" as="geometry">
            <mxPoint x="-221.25" y="1190" as="sourcePoint" />
            <mxPoint x="-171.25" y="1140" as="targetPoint" />
          </mxGeometry>
        </mxCell>
        <mxCell id="DbgcGDqCKZrmKvK_ajVs-119" value="" style="endArrow=none;html=1;rounded=0;" parent="1" source="DbgcGDqCKZrmKvK_ajVs-113" target="DbgcGDqCKZrmKvK_ajVs-112" edge="1">
          <mxGeometry width="50" height="50" relative="1" as="geometry">
            <mxPoint x="-791.0899999999999" y="819.76" as="sourcePoint" />
            <mxPoint x="-700.09" y="829.76" as="targetPoint" />
          </mxGeometry>
        </mxCell>
        <mxCell id="DbgcGDqCKZrmKvK_ajVs-120" value="" style="endArrow=none;html=1;rounded=0;" parent="1" source="DbgcGDqCKZrmKvK_ajVs-114" target="DbgcGDqCKZrmKvK_ajVs-112" edge="1">
          <mxGeometry width="50" height="50" relative="1" as="geometry">
            <mxPoint x="-775.3199999999999" y="779.9200000000001" as="sourcePoint" />
            <mxPoint x="-652.3199999999999" y="854.92" as="targetPoint" />
          </mxGeometry>
        </mxCell>
        <mxCell id="DbgcGDqCKZrmKvK_ajVs-121" value="" style="endArrow=none;html=1;rounded=0;" parent="1" source="DbgcGDqCKZrmKvK_ajVs-115" target="DbgcGDqCKZrmKvK_ajVs-112" edge="1">
          <mxGeometry width="50" height="50" relative="1" as="geometry">
            <mxPoint x="-553.12" y="800.42" as="sourcePoint" />
            <mxPoint x="-581.12" y="870.42" as="targetPoint" />
          </mxGeometry>
        </mxCell>
        <mxCell id="DbgcGDqCKZrmKvK_ajVs-122" value="" style="endArrow=none;html=1;rounded=0;" parent="1" source="DbgcGDqCKZrmKvK_ajVs-117" target="DbgcGDqCKZrmKvK_ajVs-112" edge="1">
          <mxGeometry width="50" height="50" relative="1" as="geometry">
            <mxPoint x="-501.12" y="807" as="sourcePoint" />
            <mxPoint x="-591.12" y="880" as="targetPoint" />
          </mxGeometry>
        </mxCell>
        <mxCell id="DbgcGDqCKZrmKvK_ajVs-123" value="" style="endArrow=none;html=1;rounded=0;" parent="1" source="DbgcGDqCKZrmKvK_ajVs-112" target="DbgcGDqCKZrmKvK_ajVs-1" edge="1">
          <mxGeometry width="50" height="50" relative="1" as="geometry">
            <mxPoint x="-444" y="774" as="sourcePoint" />
            <mxPoint x="-330" y="817" as="targetPoint" />
          </mxGeometry>
        </mxCell>
        <mxCell id="DbgcGDqCKZrmKvK_ajVs-124" value="" style="endArrow=none;html=1;rounded=0;" parent="1" source="DbgcGDqCKZrmKvK_ajVs-2" target="DbgcGDqCKZrmKvK_ajVs-112" edge="1">
          <mxGeometry width="50" height="50" relative="1" as="geometry">
            <mxPoint x="-434" y="784" as="sourcePoint" />
            <mxPoint x="-320" y="827" as="targetPoint" />
          </mxGeometry>
        </mxCell>
        <mxCell id="DbgcGDqCKZrmKvK_ajVs-125" value="1" style="text;html=1;align=center;verticalAlign=middle;resizable=0;points=[];autosize=1;strokeColor=none;fillColor=none;" parent="1" vertex="1">
          <mxGeometry x="-511.25" y="425" width="30" height="30" as="geometry" />
        </mxCell>
        <mxCell id="DbgcGDqCKZrmKvK_ajVs-126" value="n" style="text;html=1;align=center;verticalAlign=middle;resizable=0;points=[];autosize=1;strokeColor=none;fillColor=none;" parent="1" vertex="1">
          <mxGeometry x="-295" y="425" width="30" height="30" as="geometry" />
        </mxCell>
        <mxCell id="DbgcGDqCKZrmKvK_ajVs-127" value="1" style="text;html=1;align=center;verticalAlign=middle;resizable=0;points=[];autosize=1;strokeColor=none;fillColor=none;" parent="1" vertex="1">
          <mxGeometry x="-571.25" y="475" width="30" height="30" as="geometry" />
        </mxCell>
        <mxCell id="DbgcGDqCKZrmKvK_ajVs-128" value="1" style="text;html=1;align=center;verticalAlign=middle;resizable=0;points=[];autosize=1;strokeColor=none;fillColor=none;" parent="1" vertex="1">
          <mxGeometry x="-576.25" y="720" width="30" height="30" as="geometry" />
        </mxCell>
        <mxCell id="DbgcGDqCKZrmKvK_ajVs-129" value="1" style="text;html=1;align=center;verticalAlign=middle;resizable=0;points=[];autosize=1;strokeColor=none;fillColor=none;" parent="1" vertex="1">
          <mxGeometry x="-521.25" y="750" width="30" height="30" as="geometry" />
        </mxCell>
        <mxCell id="DbgcGDqCKZrmKvK_ajVs-130" value="1" style="text;html=1;align=center;verticalAlign=middle;resizable=0;points=[];autosize=1;strokeColor=none;fillColor=none;" parent="1" vertex="1">
          <mxGeometry x="50" y="775" width="30" height="30" as="geometry" />
        </mxCell>
        <mxCell id="DbgcGDqCKZrmKvK_ajVs-131" value="1" style="text;html=1;align=center;verticalAlign=middle;resizable=0;points=[];autosize=1;strokeColor=none;fillColor=none;" parent="1" vertex="1">
          <mxGeometry x="50" y="425" width="30" height="30" as="geometry" />
        </mxCell>
        <mxCell id="DbgcGDqCKZrmKvK_ajVs-132" value="1" style="text;html=1;align=center;verticalAlign=middle;resizable=0;points=[];autosize=1;strokeColor=none;fillColor=none;" parent="1" vertex="1">
          <mxGeometry x="-237.5" y="465" width="30" height="30" as="geometry" />
        </mxCell>
        <mxCell id="DbgcGDqCKZrmKvK_ajVs-133" value="1" style="text;html=1;align=center;verticalAlign=middle;resizable=0;points=[];autosize=1;strokeColor=none;fillColor=none;" parent="1" vertex="1">
          <mxGeometry x="-237.5" y="405" width="30" height="30" as="geometry" />
        </mxCell>
        <mxCell id="DbgcGDqCKZrmKvK_ajVs-134" value="1" style="text;html=1;align=center;verticalAlign=middle;resizable=0;points=[];autosize=1;strokeColor=none;fillColor=none;" parent="1" vertex="1">
          <mxGeometry x="140" y="720" width="30" height="30" as="geometry" />
        </mxCell>
        <mxCell id="DbgcGDqCKZrmKvK_ajVs-135" value="1" style="text;html=1;align=center;verticalAlign=middle;resizable=0;points=[];autosize=1;strokeColor=none;fillColor=none;" parent="1" vertex="1">
          <mxGeometry x="450" y="595" width="30" height="30" as="geometry" />
        </mxCell>
        <mxCell id="DbgcGDqCKZrmKvK_ajVs-136" value="1" style="text;html=1;align=center;verticalAlign=middle;resizable=0;points=[];autosize=1;strokeColor=none;fillColor=none;" parent="1" vertex="1">
          <mxGeometry x="470" y="265" width="30" height="30" as="geometry" />
        </mxCell>
        <mxCell id="DbgcGDqCKZrmKvK_ajVs-139" value="1" style="text;html=1;align=center;verticalAlign=middle;resizable=0;points=[];autosize=1;strokeColor=none;fillColor=none;" parent="1" vertex="1">
          <mxGeometry x="140" y="210" width="30" height="30" as="geometry" />
        </mxCell>
        <mxCell id="DbgcGDqCKZrmKvK_ajVs-140" value="1" style="text;html=1;align=center;verticalAlign=middle;resizable=0;points=[];autosize=1;strokeColor=none;fillColor=none;" parent="1" vertex="1">
          <mxGeometry x="110" y="395" width="30" height="30" as="geometry" />
        </mxCell>
        <mxCell id="DbgcGDqCKZrmKvK_ajVs-141" value="n" style="text;html=1;align=center;verticalAlign=middle;resizable=0;points=[];autosize=1;strokeColor=none;fillColor=none;" parent="1" vertex="1">
          <mxGeometry x="-237.5" y="290" width="30" height="30" as="geometry" />
        </mxCell>
        <mxCell id="DbgcGDqCKZrmKvK_ajVs-142" value="n" style="text;html=1;align=center;verticalAlign=middle;resizable=0;points=[];autosize=1;strokeColor=none;fillColor=none;" parent="1" vertex="1">
          <mxGeometry x="-235" y="550" width="30" height="30" as="geometry" />
        </mxCell>
        <mxCell id="DbgcGDqCKZrmKvK_ajVs-143" value="n" style="text;html=1;align=center;verticalAlign=middle;resizable=0;points=[];autosize=1;strokeColor=none;fillColor=none;" parent="1" vertex="1">
          <mxGeometry x="110" y="480" width="30" height="30" as="geometry" />
        </mxCell>
        <mxCell id="DbgcGDqCKZrmKvK_ajVs-144" value="n" style="text;html=1;align=center;verticalAlign=middle;resizable=0;points=[];autosize=1;strokeColor=none;fillColor=none;" parent="1" vertex="1">
          <mxGeometry x="140" y="270" width="30" height="30" as="geometry" />
        </mxCell>
        <mxCell id="DbgcGDqCKZrmKvK_ajVs-145" value="n" style="text;html=1;align=center;verticalAlign=middle;resizable=0;points=[];autosize=1;strokeColor=none;fillColor=none;" parent="1" vertex="1">
          <mxGeometry x="140" y="330" width="30" height="30" as="geometry" />
        </mxCell>
        <mxCell id="DbgcGDqCKZrmKvK_ajVs-148" value="n" style="text;html=1;align=center;verticalAlign=middle;resizable=0;points=[];autosize=1;strokeColor=none;fillColor=none;" parent="1" vertex="1">
          <mxGeometry x="150" y="480" width="30" height="30" as="geometry" />
        </mxCell>
        <mxCell id="DbgcGDqCKZrmKvK_ajVs-149" value="n" style="text;html=1;align=center;verticalAlign=middle;resizable=0;points=[];autosize=1;strokeColor=none;fillColor=none;" parent="1" vertex="1">
          <mxGeometry x="170" y="395" width="30" height="30" as="geometry" />
        </mxCell>
        <mxCell id="DbgcGDqCKZrmKvK_ajVs-150" value="n" style="text;html=1;align=center;verticalAlign=middle;resizable=0;points=[];autosize=1;strokeColor=none;fillColor=none;" parent="1" vertex="1">
          <mxGeometry x="-202.5" y="425" width="30" height="30" as="geometry" />
        </mxCell>
        <mxCell id="_PIPD1dn2csuQ83Vi8MQ-4" value="Hệ số điểm" style="ellipse;whiteSpace=wrap;html=1;" parent="1" vertex="1">
          <mxGeometry x="-390" y="660" width="75" height="40" as="geometry" />
        </mxCell>
        <mxCell id="_PIPD1dn2csuQ83Vi8MQ-5" value="" style="endArrow=none;html=1;rounded=0;" parent="1" source="_PIPD1dn2csuQ83Vi8MQ-4" target="DbgcGDqCKZrmKvK_ajVs-94" edge="1">
          <mxGeometry width="50" height="50" relative="1" as="geometry">
            <mxPoint x="-127.5" y="615" as="sourcePoint" />
            <mxPoint x="-162.5" y="615" as="targetPoint" />
          </mxGeometry>
        </mxCell>
        <mxCell id="_lRRB22LO75IIhIkVM6h-27" value="CourseStartDate" style="ellipse;whiteSpace=wrap;html=1;" parent="1" vertex="1">
          <mxGeometry x="280" y="475" width="100" height="55" as="geometry" />
        </mxCell>
        <mxCell id="_lRRB22LO75IIhIkVM6h-28" value="" style="endArrow=none;html=1;rounded=0;" parent="1" source="_lRRB22LO75IIhIkVM6h-27" target="DbgcGDqCKZrmKvK_ajVs-4" edge="1">
          <mxGeometry width="50" height="50" relative="1" as="geometry">
            <mxPoint x="302" y="433" as="sourcePoint" />
            <mxPoint x="210" y="449" as="targetPoint" />
          </mxGeometry>
        </mxCell>
        <mxCell id="hVGCVOkJ7tU-IXE2ewd1-1" value="CreatedDate" style="ellipse;whiteSpace=wrap;html=1;" parent="1" vertex="1">
          <mxGeometry x="-446.25" y="800" width="75" height="40" as="geometry" />
        </mxCell>
        <mxCell id="hVGCVOkJ7tU-IXE2ewd1-2" value="" style="endArrow=none;html=1;rounded=0;" parent="1" source="hVGCVOkJ7tU-IXE2ewd1-1" target="DbgcGDqCKZrmKvK_ajVs-112" edge="1">
          <mxGeometry width="50" height="50" relative="1" as="geometry">
            <mxPoint x="-506.25" y="852" as="sourcePoint" />
            <mxPoint x="-537.25" y="820" as="targetPoint" />
          </mxGeometry>
        </mxCell>
        <mxCell id="Zz0i5B22BC1ReQ7uJmpV-1" value="Status" style="ellipse;whiteSpace=wrap;html=1;" parent="1" vertex="1">
          <mxGeometry x="-20" y="510" width="95" height="50" as="geometry" />
        </mxCell>
        <mxCell id="Zz0i5B22BC1ReQ7uJmpV-2" value="" style="endArrow=none;html=1;rounded=0;" parent="1" source="Zz0i5B22BC1ReQ7uJmpV-1" target="DbgcGDqCKZrmKvK_ajVs-4" edge="1">
          <mxGeometry width="50" height="50" relative="1" as="geometry">
            <mxPoint x="69" y="368" as="sourcePoint" />
            <mxPoint x="123" y="430" as="targetPoint" />
          </mxGeometry>
        </mxCell>
        <mxCell id="Zz0i5B22BC1ReQ7uJmpV-3" value="Status" style="ellipse;whiteSpace=wrap;html=1;" parent="1" vertex="1">
          <mxGeometry x="200" y="860" width="80" height="40" as="geometry" />
        </mxCell>
        <mxCell id="Zz0i5B22BC1ReQ7uJmpV-4" value="" style="endArrow=none;html=1;rounded=0;" parent="1" source="DbgcGDqCKZrmKvK_ajVs-2" target="Zz0i5B22BC1ReQ7uJmpV-3" edge="1">
          <mxGeometry width="50" height="50" relative="1" as="geometry">
            <mxPoint x="130" y="820" as="sourcePoint" />
            <mxPoint x="95" y="871" as="targetPoint" />
          </mxGeometry>
        </mxCell>
        <mxCell id="Zz0i5B22BC1ReQ7uJmpV-5" value="Status" style="ellipse;whiteSpace=wrap;html=1;" parent="1" vertex="1">
          <mxGeometry x="-491.25" y="505" width="80" height="40" as="geometry" />
        </mxCell>
        <mxCell id="Zz0i5B22BC1ReQ7uJmpV-6" value="" style="endArrow=none;html=1;rounded=0;" parent="1" source="Zz0i5B22BC1ReQ7uJmpV-5" target="DbgcGDqCKZrmKvK_ajVs-1" edge="1">
          <mxGeometry width="50" height="50" relative="1" as="geometry">
            <mxPoint x="-491.25" y="398" as="sourcePoint" />
            <mxPoint x="-525.25" y="430" as="targetPoint" />
          </mxGeometry>
        </mxCell>
        <mxCell id="Zz0i5B22BC1ReQ7uJmpV-7" value="" style="endArrow=none;html=1;rounded=0;" parent="1" source="DbgcGDqCKZrmKvK_ajVs-105" target="DbgcGDqCKZrmKvK_ajVs-104" edge="1">
          <mxGeometry width="50" height="50" relative="1" as="geometry">
            <mxPoint x="-225" y="215" as="sourcePoint" />
            <mxPoint x="-225" y="245" as="targetPoint" />
          </mxGeometry>
        </mxCell>
        <mxCell id="Zz0i5B22BC1ReQ7uJmpV-8" value="Status" style="ellipse;whiteSpace=wrap;html=1;" parent="1" vertex="1">
          <mxGeometry x="-355" y="490" width="80" height="40" as="geometry" />
        </mxCell>
        <mxCell id="Zz0i5B22BC1ReQ7uJmpV-9" value="" style="endArrow=none;html=1;rounded=0;" parent="1" source="DbgcGDqCKZrmKvK_ajVs-5" target="Zz0i5B22BC1ReQ7uJmpV-8" edge="1">
          <mxGeometry width="50" height="50" relative="1" as="geometry">
            <mxPoint x="-131" y="564" as="sourcePoint" />
            <mxPoint x="-170" y="585" as="targetPoint" />
          </mxGeometry>
        </mxCell>
        <mxCell id="Zz0i5B22BC1ReQ7uJmpV-10" value="RegistrationDate" style="ellipse;whiteSpace=wrap;html=1;" parent="1" vertex="1">
          <mxGeometry x="-371.25" y="355" width="105" height="40" as="geometry" />
        </mxCell>
        <mxCell id="Zz0i5B22BC1ReQ7uJmpV-11" value="" style="endArrow=none;html=1;rounded=0;" parent="1" source="DbgcGDqCKZrmKvK_ajVs-5" target="Zz0i5B22BC1ReQ7uJmpV-10" edge="1">
          <mxGeometry width="50" height="50" relative="1" as="geometry">
            <mxPoint x="-243" y="474" as="sourcePoint" />
            <mxPoint x="-283" y="503" as="targetPoint" />
          </mxGeometry>
        </mxCell>
        <mxCell id="Zz0i5B22BC1ReQ7uJmpV-13" value="Tuitionpayment" style="ellipse;whiteSpace=wrap;html=1;" parent="1" vertex="1">
          <mxGeometry x="-178.12" y="480" width="91.25" height="40" as="geometry" />
        </mxCell>
        <mxCell id="Zz0i5B22BC1ReQ7uJmpV-14" value="" style="endArrow=none;html=1;rounded=0;" parent="1" source="DbgcGDqCKZrmKvK_ajVs-5" target="Zz0i5B22BC1ReQ7uJmpV-13" edge="1">
          <mxGeometry width="50" height="50" relative="1" as="geometry">
            <mxPoint x="-240" y="444" as="sourcePoint" />
            <mxPoint x="-282" y="399" as="targetPoint" />
          </mxGeometry>
        </mxCell>
        <mxCell id="Zz0i5B22BC1ReQ7uJmpV-15" value="Status" style="ellipse;whiteSpace=wrap;html=1;" parent="1" vertex="1">
          <mxGeometry x="-10" y="100" width="75" height="40" as="geometry" />
        </mxCell>
        <mxCell id="Zz0i5B22BC1ReQ7uJmpV-16" value="" style="endArrow=none;html=1;rounded=0;" parent="1" source="DbgcGDqCKZrmKvK_ajVs-15" target="Zz0i5B22BC1ReQ7uJmpV-15" edge="1">
          <mxGeometry width="50" height="50" relative="1" as="geometry">
            <mxPoint x="150" y="165" as="sourcePoint" />
            <mxPoint x="150" y="120" as="targetPoint" />
          </mxGeometry>
        </mxCell>
        <mxCell id="Zz0i5B22BC1ReQ7uJmpV-17" value="Status" style="ellipse;whiteSpace=wrap;html=1;" parent="1" vertex="1">
          <mxGeometry x="610" y="680" width="75" height="40" as="geometry" />
        </mxCell>
        <mxCell id="Zz0i5B22BC1ReQ7uJmpV-18" value="" style="endArrow=none;html=1;rounded=0;" parent="1" source="DbgcGDqCKZrmKvK_ajVs-75" target="Zz0i5B22BC1ReQ7uJmpV-17" edge="1">
          <mxGeometry width="50" height="50" relative="1" as="geometry">
            <mxPoint x="708" y="727.5" as="sourcePoint" />
            <mxPoint x="770" y="692.5" as="targetPoint" />
          </mxGeometry>
        </mxCell>
        <mxCell id="BRaGAsRqMTx_WhTfaCPx-1" value="type" style="ellipse;whiteSpace=wrap;html=1;" parent="1" vertex="1">
          <mxGeometry x="630" y="355" width="90" height="45" as="geometry" />
        </mxCell>
        <mxCell id="BRaGAsRqMTx_WhTfaCPx-2" value="" style="endArrow=none;html=1;rounded=0;" parent="1" source="DbgcGDqCKZrmKvK_ajVs-3" target="BRaGAsRqMTx_WhTfaCPx-1" edge="1">
          <mxGeometry width="50" height="50" relative="1" as="geometry">
            <mxPoint x="565" y="335" as="sourcePoint" />
            <mxPoint x="565" y="390" as="targetPoint" />
          </mxGeometry>
        </mxCell>
        <mxCell id="yLLJuDEilTHu5Bi-tiuT-3" value="MaxStudents" style="ellipse;whiteSpace=wrap;html=1;" parent="1" vertex="1">
          <mxGeometry x="630" y="195" width="95" height="50" as="geometry" />
        </mxCell>
        <mxCell id="yLLJuDEilTHu5Bi-tiuT-4" value="" style="endArrow=none;html=1;rounded=0;" parent="1" source="yLLJuDEilTHu5Bi-tiuT-3" target="DbgcGDqCKZrmKvK_ajVs-3" edge="1">
          <mxGeometry width="50" height="50" relative="1" as="geometry">
            <mxPoint x="439" y="174.26" as="sourcePoint" />
            <mxPoint x="600" y="265.0002597402597" as="targetPoint" />
          </mxGeometry>
        </mxCell>
        <mxCell id="wyGwbxircbfsp2eZjtdU-1" value="Address" style="ellipse;whiteSpace=wrap;html=1;" parent="1" vertex="1">
          <mxGeometry x="-750.3" y="505" width="75" height="40" as="geometry" />
        </mxCell>
        <mxCell id="wyGwbxircbfsp2eZjtdU-2" value="" style="endArrow=none;html=1;rounded=0;" parent="1" source="DbgcGDqCKZrmKvK_ajVs-1" target="wyGwbxircbfsp2eZjtdU-1" edge="1">
          <mxGeometry width="50" height="50" relative="1" as="geometry">
            <mxPoint x="-594.6947900815112" y="435" as="sourcePoint" />
            <mxPoint x="-622.3" y="527" as="targetPoint" />
          </mxGeometry>
        </mxCell>
        <mxCell id="wyGwbxircbfsp2eZjtdU-3" value="Address" style="ellipse;whiteSpace=wrap;html=1;" parent="1" vertex="1">
          <mxGeometry x="-55" y="820" width="75" height="40" as="geometry" />
        </mxCell>
        <mxCell id="wyGwbxircbfsp2eZjtdU-4" value="" style="endArrow=none;html=1;rounded=0;" parent="1" source="DbgcGDqCKZrmKvK_ajVs-2" target="wyGwbxircbfsp2eZjtdU-3" edge="1">
          <mxGeometry width="50" height="50" relative="1" as="geometry">
            <mxPoint x="-19" y="760" as="sourcePoint" />
            <mxPoint x="73" y="842" as="targetPoint" />
          </mxGeometry>
        </mxCell>
        <mxCell id="RZuqhpEZoBgPlbzLvwZG-1" value="RegistrationStartDate" style="ellipse;whiteSpace=wrap;html=1;" parent="1" vertex="1">
          <mxGeometry x="265" y="380" width="125" height="50" as="geometry" />
        </mxCell>
        <mxCell id="RZuqhpEZoBgPlbzLvwZG-2" value="" style="endArrow=none;html=1;rounded=0;" parent="1" source="RZuqhpEZoBgPlbzLvwZG-1" target="DbgcGDqCKZrmKvK_ajVs-4" edge="1">
          <mxGeometry width="50" height="50" relative="1" as="geometry">
            <mxPoint x="281" y="519" as="sourcePoint" />
            <mxPoint x="210" y="487" as="targetPoint" />
          </mxGeometry>
        </mxCell>
        <mxCell id="qefZB5sje9XPAiJLfAoI-1" value="&lt;u&gt;Studyid&lt;/u&gt;" style="ellipse;whiteSpace=wrap;html=1;" vertex="1" parent="1">
          <mxGeometry x="-162.62" y="355" width="91.25" height="40" as="geometry" />
        </mxCell>
        <mxCell id="qefZB5sje9XPAiJLfAoI-2" value="" style="endArrow=none;html=1;rounded=0;" edge="1" parent="1" target="qefZB5sje9XPAiJLfAoI-1" source="DbgcGDqCKZrmKvK_ajVs-5">
          <mxGeometry width="50" height="50" relative="1" as="geometry">
            <mxPoint x="-197.5" y="336" as="sourcePoint" />
            <mxPoint x="-266.5" y="274" as="targetPoint" />
          </mxGeometry>
        </mxCell>
      </root>
    </mxGraphModel>
  </diagram>
  <diagram id="tlvGwmtPpOAimem5x20_" name="rdm">
    <mxGraphModel dx="2524" dy="836" grid="1" gridSize="10" guides="1" tooltips="1" connect="1" arrows="1" fold="1" page="1" pageScale="1" pageWidth="850" pageHeight="1100" math="0" shadow="0">
      <root>
        <mxCell id="0" />
        <mxCell id="1" parent="0" />
        <mxCell id="MahOUw_dBexpG1UbGB4B-1" value="students" style="shape=table;startSize=30;container=1;collapsible=1;childLayout=tableLayout;fixedRows=1;rowLines=0;fontStyle=1;align=center;resizeLast=1;html=1;" parent="1" vertex="1">
          <mxGeometry x="-140" y="20" width="270" height="270" as="geometry" />
        </mxCell>
        <mxCell id="MahOUw_dBexpG1UbGB4B-2" value="" style="shape=tableRow;horizontal=0;startSize=0;swimlaneHead=0;swimlaneBody=0;fillColor=none;collapsible=0;dropTarget=0;points=[[0,0.5],[1,0.5]];portConstraint=eastwest;top=0;left=0;right=0;bottom=1;" parent="MahOUw_dBexpG1UbGB4B-1" vertex="1">
          <mxGeometry y="30" width="270" height="30" as="geometry" />
        </mxCell>
        <mxCell id="MahOUw_dBexpG1UbGB4B-3" value="PK" style="shape=partialRectangle;connectable=0;fillColor=none;top=0;left=0;bottom=0;right=0;fontStyle=1;overflow=hidden;whiteSpace=wrap;html=1;" parent="MahOUw_dBexpG1UbGB4B-2" vertex="1">
          <mxGeometry width="30" height="30" as="geometry">
            <mxRectangle width="30" height="30" as="alternateBounds" />
          </mxGeometry>
        </mxCell>
        <mxCell id="MahOUw_dBexpG1UbGB4B-4" value="StudentID" style="shape=partialRectangle;connectable=0;fillColor=none;top=0;left=0;bottom=0;right=0;align=left;spacingLeft=6;fontStyle=5;overflow=hidden;whiteSpace=wrap;html=1;" parent="MahOUw_dBexpG1UbGB4B-2" vertex="1">
          <mxGeometry x="30" width="80" height="30" as="geometry">
            <mxRectangle width="80" height="30" as="alternateBounds" />
          </mxGeometry>
        </mxCell>
        <mxCell id="MahOUw_dBexpG1UbGB4B-5" value="Varchar(10)" style="shape=partialRectangle;connectable=0;fillColor=none;top=0;left=0;bottom=0;right=0;align=left;spacingLeft=6;fontStyle=5;overflow=hidden;whiteSpace=wrap;html=1;" parent="MahOUw_dBexpG1UbGB4B-2" vertex="1">
          <mxGeometry x="110" width="160" height="30" as="geometry">
            <mxRectangle width="160" height="30" as="alternateBounds" />
          </mxGeometry>
        </mxCell>
        <mxCell id="MahOUw_dBexpG1UbGB4B-6" value="" style="shape=tableRow;horizontal=0;startSize=0;swimlaneHead=0;swimlaneBody=0;fillColor=none;collapsible=0;dropTarget=0;points=[[0,0.5],[1,0.5]];portConstraint=eastwest;top=0;left=0;right=0;bottom=0;" parent="MahOUw_dBexpG1UbGB4B-1" vertex="1">
          <mxGeometry y="60" width="270" height="30" as="geometry" />
        </mxCell>
        <mxCell id="MahOUw_dBexpG1UbGB4B-7" value="" style="shape=partialRectangle;connectable=0;fillColor=none;top=0;left=0;bottom=0;right=0;editable=1;overflow=hidden;whiteSpace=wrap;html=1;" parent="MahOUw_dBexpG1UbGB4B-6" vertex="1">
          <mxGeometry width="30" height="30" as="geometry">
            <mxRectangle width="30" height="30" as="alternateBounds" />
          </mxGeometry>
        </mxCell>
        <mxCell id="MahOUw_dBexpG1UbGB4B-8" value="FullName" style="shape=partialRectangle;connectable=0;fillColor=none;top=0;left=0;bottom=0;right=0;align=left;spacingLeft=6;overflow=hidden;whiteSpace=wrap;html=1;" parent="MahOUw_dBexpG1UbGB4B-6" vertex="1">
          <mxGeometry x="30" width="80" height="30" as="geometry">
            <mxRectangle width="80" height="30" as="alternateBounds" />
          </mxGeometry>
        </mxCell>
        <mxCell id="MahOUw_dBexpG1UbGB4B-9" value="Varchar(50)" style="shape=partialRectangle;connectable=0;fillColor=none;top=0;left=0;bottom=0;right=0;align=left;spacingLeft=6;overflow=hidden;whiteSpace=wrap;html=1;" parent="MahOUw_dBexpG1UbGB4B-6" vertex="1">
          <mxGeometry x="110" width="160" height="30" as="geometry">
            <mxRectangle width="160" height="30" as="alternateBounds" />
          </mxGeometry>
        </mxCell>
        <mxCell id="MahOUw_dBexpG1UbGB4B-10" value="" style="shape=tableRow;horizontal=0;startSize=0;swimlaneHead=0;swimlaneBody=0;fillColor=none;collapsible=0;dropTarget=0;points=[[0,0.5],[1,0.5]];portConstraint=eastwest;top=0;left=0;right=0;bottom=0;" parent="MahOUw_dBexpG1UbGB4B-1" vertex="1">
          <mxGeometry y="90" width="270" height="30" as="geometry" />
        </mxCell>
        <mxCell id="MahOUw_dBexpG1UbGB4B-11" value="" style="shape=partialRectangle;connectable=0;fillColor=none;top=0;left=0;bottom=0;right=0;editable=1;overflow=hidden;whiteSpace=wrap;html=1;" parent="MahOUw_dBexpG1UbGB4B-10" vertex="1">
          <mxGeometry width="30" height="30" as="geometry">
            <mxRectangle width="30" height="30" as="alternateBounds" />
          </mxGeometry>
        </mxCell>
        <mxCell id="MahOUw_dBexpG1UbGB4B-12" value="DateOfBirth" style="shape=partialRectangle;connectable=0;fillColor=none;top=0;left=0;bottom=0;right=0;align=left;spacingLeft=6;overflow=hidden;whiteSpace=wrap;html=1;" parent="MahOUw_dBexpG1UbGB4B-10" vertex="1">
          <mxGeometry x="30" width="80" height="30" as="geometry">
            <mxRectangle width="80" height="30" as="alternateBounds" />
          </mxGeometry>
        </mxCell>
        <mxCell id="MahOUw_dBexpG1UbGB4B-13" value="Date" style="shape=partialRectangle;connectable=0;fillColor=none;top=0;left=0;bottom=0;right=0;align=left;spacingLeft=6;overflow=hidden;whiteSpace=wrap;html=1;" parent="MahOUw_dBexpG1UbGB4B-10" vertex="1">
          <mxGeometry x="110" width="160" height="30" as="geometry">
            <mxRectangle width="160" height="30" as="alternateBounds" />
          </mxGeometry>
        </mxCell>
        <mxCell id="MahOUw_dBexpG1UbGB4B-14" value="" style="shape=tableRow;horizontal=0;startSize=0;swimlaneHead=0;swimlaneBody=0;fillColor=none;collapsible=0;dropTarget=0;points=[[0,0.5],[1,0.5]];portConstraint=eastwest;top=0;left=0;right=0;bottom=0;" parent="MahOUw_dBexpG1UbGB4B-1" vertex="1">
          <mxGeometry y="120" width="270" height="30" as="geometry" />
        </mxCell>
        <mxCell id="MahOUw_dBexpG1UbGB4B-15" value="" style="shape=partialRectangle;connectable=0;fillColor=none;top=0;left=0;bottom=0;right=0;editable=1;overflow=hidden;whiteSpace=wrap;html=1;" parent="MahOUw_dBexpG1UbGB4B-14" vertex="1">
          <mxGeometry width="30" height="30" as="geometry">
            <mxRectangle width="30" height="30" as="alternateBounds" />
          </mxGeometry>
        </mxCell>
        <mxCell id="MahOUw_dBexpG1UbGB4B-16" value="Gender" style="shape=partialRectangle;connectable=0;fillColor=none;top=0;left=0;bottom=0;right=0;align=left;spacingLeft=6;overflow=hidden;whiteSpace=wrap;html=1;" parent="MahOUw_dBexpG1UbGB4B-14" vertex="1">
          <mxGeometry x="30" width="80" height="30" as="geometry">
            <mxRectangle width="80" height="30" as="alternateBounds" />
          </mxGeometry>
        </mxCell>
        <mxCell id="MahOUw_dBexpG1UbGB4B-17" value="Enum(&#39;Male&#39;, &#39;Female&#39;)" style="shape=partialRectangle;connectable=0;fillColor=none;top=0;left=0;bottom=0;right=0;align=left;spacingLeft=6;overflow=hidden;whiteSpace=wrap;html=1;" parent="MahOUw_dBexpG1UbGB4B-14" vertex="1">
          <mxGeometry x="110" width="160" height="30" as="geometry">
            <mxRectangle width="160" height="30" as="alternateBounds" />
          </mxGeometry>
        </mxCell>
        <mxCell id="LDAT4K9VUZpGoQVw1NxE-1" style="shape=tableRow;horizontal=0;startSize=0;swimlaneHead=0;swimlaneBody=0;fillColor=none;collapsible=0;dropTarget=0;points=[[0,0.5],[1,0.5]];portConstraint=eastwest;top=0;left=0;right=0;bottom=0;" parent="MahOUw_dBexpG1UbGB4B-1" vertex="1">
          <mxGeometry y="150" width="270" height="30" as="geometry" />
        </mxCell>
        <mxCell id="LDAT4K9VUZpGoQVw1NxE-2" style="shape=partialRectangle;connectable=0;fillColor=none;top=0;left=0;bottom=0;right=0;editable=1;overflow=hidden;whiteSpace=wrap;html=1;" parent="LDAT4K9VUZpGoQVw1NxE-1" vertex="1">
          <mxGeometry width="30" height="30" as="geometry">
            <mxRectangle width="30" height="30" as="alternateBounds" />
          </mxGeometry>
        </mxCell>
        <mxCell id="LDAT4K9VUZpGoQVw1NxE-3" value="Address" style="shape=partialRectangle;connectable=0;fillColor=none;top=0;left=0;bottom=0;right=0;align=left;spacingLeft=6;overflow=hidden;whiteSpace=wrap;html=1;" parent="LDAT4K9VUZpGoQVw1NxE-1" vertex="1">
          <mxGeometry x="30" width="80" height="30" as="geometry">
            <mxRectangle width="80" height="30" as="alternateBounds" />
          </mxGeometry>
        </mxCell>
        <mxCell id="LDAT4K9VUZpGoQVw1NxE-4" value="Varchar(50)" style="shape=partialRectangle;connectable=0;fillColor=none;top=0;left=0;bottom=0;right=0;align=left;spacingLeft=6;overflow=hidden;whiteSpace=wrap;html=1;" parent="LDAT4K9VUZpGoQVw1NxE-1" vertex="1">
          <mxGeometry x="110" width="160" height="30" as="geometry">
            <mxRectangle width="160" height="30" as="alternateBounds" />
          </mxGeometry>
        </mxCell>
        <mxCell id="MahOUw_dBexpG1UbGB4B-18" value="" style="shape=tableRow;horizontal=0;startSize=0;swimlaneHead=0;swimlaneBody=0;fillColor=none;collapsible=0;dropTarget=0;points=[[0,0.5],[1,0.5]];portConstraint=eastwest;top=0;left=0;right=0;bottom=0;" parent="MahOUw_dBexpG1UbGB4B-1" vertex="1">
          <mxGeometry y="180" width="270" height="30" as="geometry" />
        </mxCell>
        <mxCell id="MahOUw_dBexpG1UbGB4B-19" value="" style="shape=partialRectangle;connectable=0;fillColor=none;top=0;left=0;bottom=0;right=0;editable=1;overflow=hidden;whiteSpace=wrap;html=1;" parent="MahOUw_dBexpG1UbGB4B-18" vertex="1">
          <mxGeometry width="30" height="30" as="geometry">
            <mxRectangle width="30" height="30" as="alternateBounds" />
          </mxGeometry>
        </mxCell>
        <mxCell id="MahOUw_dBexpG1UbGB4B-20" value="Phone" style="shape=partialRectangle;connectable=0;fillColor=none;top=0;left=0;bottom=0;right=0;align=left;spacingLeft=6;overflow=hidden;whiteSpace=wrap;html=1;" parent="MahOUw_dBexpG1UbGB4B-18" vertex="1">
          <mxGeometry x="30" width="80" height="30" as="geometry">
            <mxRectangle width="80" height="30" as="alternateBounds" />
          </mxGeometry>
        </mxCell>
        <mxCell id="MahOUw_dBexpG1UbGB4B-21" value="Varchar(15)" style="shape=partialRectangle;connectable=0;fillColor=none;top=0;left=0;bottom=0;right=0;align=left;spacingLeft=6;overflow=hidden;whiteSpace=wrap;html=1;" parent="MahOUw_dBexpG1UbGB4B-18" vertex="1">
          <mxGeometry x="110" width="160" height="30" as="geometry">
            <mxRectangle width="160" height="30" as="alternateBounds" />
          </mxGeometry>
        </mxCell>
        <mxCell id="MahOUw_dBexpG1UbGB4B-22" value="" style="shape=tableRow;horizontal=0;startSize=0;swimlaneHead=0;swimlaneBody=0;fillColor=none;collapsible=0;dropTarget=0;points=[[0,0.5],[1,0.5]];portConstraint=eastwest;top=0;left=0;right=0;bottom=0;" parent="MahOUw_dBexpG1UbGB4B-1" vertex="1">
          <mxGeometry y="210" width="270" height="30" as="geometry" />
        </mxCell>
        <mxCell id="MahOUw_dBexpG1UbGB4B-23" value="" style="shape=partialRectangle;connectable=0;fillColor=none;top=0;left=0;bottom=0;right=0;editable=1;overflow=hidden;whiteSpace=wrap;html=1;" parent="MahOUw_dBexpG1UbGB4B-22" vertex="1">
          <mxGeometry width="30" height="30" as="geometry">
            <mxRectangle width="30" height="30" as="alternateBounds" />
          </mxGeometry>
        </mxCell>
        <mxCell id="MahOUw_dBexpG1UbGB4B-24" value="Email" style="shape=partialRectangle;connectable=0;fillColor=none;top=0;left=0;bottom=0;right=0;align=left;spacingLeft=6;overflow=hidden;whiteSpace=wrap;html=1;" parent="MahOUw_dBexpG1UbGB4B-22" vertex="1">
          <mxGeometry x="30" width="80" height="30" as="geometry">
            <mxRectangle width="80" height="30" as="alternateBounds" />
          </mxGeometry>
        </mxCell>
        <mxCell id="MahOUw_dBexpG1UbGB4B-25" value="Varchar(50)" style="shape=partialRectangle;connectable=0;fillColor=none;top=0;left=0;bottom=0;right=0;align=left;spacingLeft=6;overflow=hidden;whiteSpace=wrap;html=1;" parent="MahOUw_dBexpG1UbGB4B-22" vertex="1">
          <mxGeometry x="110" width="160" height="30" as="geometry">
            <mxRectangle width="160" height="30" as="alternateBounds" />
          </mxGeometry>
        </mxCell>
        <mxCell id="vQaSJs1jzpEJr47SyI0O-1" style="shape=tableRow;horizontal=0;startSize=0;swimlaneHead=0;swimlaneBody=0;fillColor=none;collapsible=0;dropTarget=0;points=[[0,0.5],[1,0.5]];portConstraint=eastwest;top=0;left=0;right=0;bottom=0;" parent="MahOUw_dBexpG1UbGB4B-1" vertex="1">
          <mxGeometry y="240" width="270" height="30" as="geometry" />
        </mxCell>
        <mxCell id="vQaSJs1jzpEJr47SyI0O-2" style="shape=partialRectangle;connectable=0;fillColor=none;top=0;left=0;bottom=0;right=0;editable=1;overflow=hidden;whiteSpace=wrap;html=1;" parent="vQaSJs1jzpEJr47SyI0O-1" vertex="1">
          <mxGeometry width="30" height="30" as="geometry">
            <mxRectangle width="30" height="30" as="alternateBounds" />
          </mxGeometry>
        </mxCell>
        <mxCell id="vQaSJs1jzpEJr47SyI0O-3" value="Status" style="shape=partialRectangle;connectable=0;fillColor=none;top=0;left=0;bottom=0;right=0;align=left;spacingLeft=6;overflow=hidden;whiteSpace=wrap;html=1;" parent="vQaSJs1jzpEJr47SyI0O-1" vertex="1">
          <mxGeometry x="30" width="80" height="30" as="geometry">
            <mxRectangle width="80" height="30" as="alternateBounds" />
          </mxGeometry>
        </mxCell>
        <mxCell id="vQaSJs1jzpEJr47SyI0O-4" value="Enum(&#39;Deleted&#39;, &#39;Studying&#39;)" style="shape=partialRectangle;connectable=0;fillColor=none;top=0;left=0;bottom=0;right=0;align=left;spacingLeft=6;overflow=hidden;whiteSpace=wrap;html=1;" parent="vQaSJs1jzpEJr47SyI0O-1" vertex="1">
          <mxGeometry x="110" width="160" height="30" as="geometry">
            <mxRectangle width="160" height="30" as="alternateBounds" />
          </mxGeometry>
        </mxCell>
        <mxCell id="MahOUw_dBexpG1UbGB4B-26" value="teachers" style="shape=table;startSize=30;container=1;collapsible=1;childLayout=tableLayout;fixedRows=1;rowLines=0;fontStyle=1;align=center;resizeLast=1;html=1;" parent="1" vertex="1">
          <mxGeometry x="745" y="10" width="270" height="360" as="geometry" />
        </mxCell>
        <mxCell id="MahOUw_dBexpG1UbGB4B-27" value="" style="shape=tableRow;horizontal=0;startSize=0;swimlaneHead=0;swimlaneBody=0;fillColor=none;collapsible=0;dropTarget=0;points=[[0,0.5],[1,0.5]];portConstraint=eastwest;top=0;left=0;right=0;bottom=1;" parent="MahOUw_dBexpG1UbGB4B-26" vertex="1">
          <mxGeometry y="30" width="270" height="30" as="geometry" />
        </mxCell>
        <mxCell id="MahOUw_dBexpG1UbGB4B-28" value="PK" style="shape=partialRectangle;connectable=0;fillColor=none;top=0;left=0;bottom=0;right=0;fontStyle=1;overflow=hidden;whiteSpace=wrap;html=1;" parent="MahOUw_dBexpG1UbGB4B-27" vertex="1">
          <mxGeometry width="30" height="30" as="geometry">
            <mxRectangle width="30" height="30" as="alternateBounds" />
          </mxGeometry>
        </mxCell>
        <mxCell id="MahOUw_dBexpG1UbGB4B-29" value="TeacherID" style="shape=partialRectangle;connectable=0;fillColor=none;top=0;left=0;bottom=0;right=0;align=left;spacingLeft=6;fontStyle=5;overflow=hidden;whiteSpace=wrap;html=1;" parent="MahOUw_dBexpG1UbGB4B-27" vertex="1">
          <mxGeometry x="30" width="80" height="30" as="geometry">
            <mxRectangle width="80" height="30" as="alternateBounds" />
          </mxGeometry>
        </mxCell>
        <mxCell id="MahOUw_dBexpG1UbGB4B-30" value="Varchar(10)" style="shape=partialRectangle;connectable=0;fillColor=none;top=0;left=0;bottom=0;right=0;align=left;spacingLeft=6;fontStyle=5;overflow=hidden;whiteSpace=wrap;html=1;" parent="MahOUw_dBexpG1UbGB4B-27" vertex="1">
          <mxGeometry x="110" width="160" height="30" as="geometry">
            <mxRectangle width="160" height="30" as="alternateBounds" />
          </mxGeometry>
        </mxCell>
        <mxCell id="MahOUw_dBexpG1UbGB4B-31" value="" style="shape=tableRow;horizontal=0;startSize=0;swimlaneHead=0;swimlaneBody=0;fillColor=none;collapsible=0;dropTarget=0;points=[[0,0.5],[1,0.5]];portConstraint=eastwest;top=0;left=0;right=0;bottom=0;" parent="MahOUw_dBexpG1UbGB4B-26" vertex="1">
          <mxGeometry y="60" width="270" height="30" as="geometry" />
        </mxCell>
        <mxCell id="MahOUw_dBexpG1UbGB4B-32" value="" style="shape=partialRectangle;connectable=0;fillColor=none;top=0;left=0;bottom=0;right=0;editable=1;overflow=hidden;whiteSpace=wrap;html=1;" parent="MahOUw_dBexpG1UbGB4B-31" vertex="1">
          <mxGeometry width="30" height="30" as="geometry">
            <mxRectangle width="30" height="30" as="alternateBounds" />
          </mxGeometry>
        </mxCell>
        <mxCell id="MahOUw_dBexpG1UbGB4B-33" value="FullName" style="shape=partialRectangle;connectable=0;fillColor=none;top=0;left=0;bottom=0;right=0;align=left;spacingLeft=6;overflow=hidden;whiteSpace=wrap;html=1;" parent="MahOUw_dBexpG1UbGB4B-31" vertex="1">
          <mxGeometry x="30" width="80" height="30" as="geometry">
            <mxRectangle width="80" height="30" as="alternateBounds" />
          </mxGeometry>
        </mxCell>
        <mxCell id="MahOUw_dBexpG1UbGB4B-34" value="Varchar(50)" style="shape=partialRectangle;connectable=0;fillColor=none;top=0;left=0;bottom=0;right=0;align=left;spacingLeft=6;overflow=hidden;whiteSpace=wrap;html=1;" parent="MahOUw_dBexpG1UbGB4B-31" vertex="1">
          <mxGeometry x="110" width="160" height="30" as="geometry">
            <mxRectangle width="160" height="30" as="alternateBounds" />
          </mxGeometry>
        </mxCell>
        <mxCell id="MahOUw_dBexpG1UbGB4B-35" value="" style="shape=tableRow;horizontal=0;startSize=0;swimlaneHead=0;swimlaneBody=0;fillColor=none;collapsible=0;dropTarget=0;points=[[0,0.5],[1,0.5]];portConstraint=eastwest;top=0;left=0;right=0;bottom=0;" parent="MahOUw_dBexpG1UbGB4B-26" vertex="1">
          <mxGeometry y="90" width="270" height="30" as="geometry" />
        </mxCell>
        <mxCell id="MahOUw_dBexpG1UbGB4B-36" value="" style="shape=partialRectangle;connectable=0;fillColor=none;top=0;left=0;bottom=0;right=0;editable=1;overflow=hidden;whiteSpace=wrap;html=1;" parent="MahOUw_dBexpG1UbGB4B-35" vertex="1">
          <mxGeometry width="30" height="30" as="geometry">
            <mxRectangle width="30" height="30" as="alternateBounds" />
          </mxGeometry>
        </mxCell>
        <mxCell id="MahOUw_dBexpG1UbGB4B-37" value="DateOfBirth" style="shape=partialRectangle;connectable=0;fillColor=none;top=0;left=0;bottom=0;right=0;align=left;spacingLeft=6;overflow=hidden;whiteSpace=wrap;html=1;" parent="MahOUw_dBexpG1UbGB4B-35" vertex="1">
          <mxGeometry x="30" width="80" height="30" as="geometry">
            <mxRectangle width="80" height="30" as="alternateBounds" />
          </mxGeometry>
        </mxCell>
        <mxCell id="MahOUw_dBexpG1UbGB4B-38" value="Date" style="shape=partialRectangle;connectable=0;fillColor=none;top=0;left=0;bottom=0;right=0;align=left;spacingLeft=6;overflow=hidden;whiteSpace=wrap;html=1;" parent="MahOUw_dBexpG1UbGB4B-35" vertex="1">
          <mxGeometry x="110" width="160" height="30" as="geometry">
            <mxRectangle width="160" height="30" as="alternateBounds" />
          </mxGeometry>
        </mxCell>
        <mxCell id="MahOUw_dBexpG1UbGB4B-39" value="" style="shape=tableRow;horizontal=0;startSize=0;swimlaneHead=0;swimlaneBody=0;fillColor=none;collapsible=0;dropTarget=0;points=[[0,0.5],[1,0.5]];portConstraint=eastwest;top=0;left=0;right=0;bottom=0;" parent="MahOUw_dBexpG1UbGB4B-26" vertex="1">
          <mxGeometry y="120" width="270" height="30" as="geometry" />
        </mxCell>
        <mxCell id="MahOUw_dBexpG1UbGB4B-40" value="" style="shape=partialRectangle;connectable=0;fillColor=none;top=0;left=0;bottom=0;right=0;editable=1;overflow=hidden;whiteSpace=wrap;html=1;" parent="MahOUw_dBexpG1UbGB4B-39" vertex="1">
          <mxGeometry width="30" height="30" as="geometry">
            <mxRectangle width="30" height="30" as="alternateBounds" />
          </mxGeometry>
        </mxCell>
        <mxCell id="MahOUw_dBexpG1UbGB4B-41" value="Gender" style="shape=partialRectangle;connectable=0;fillColor=none;top=0;left=0;bottom=0;right=0;align=left;spacingLeft=6;overflow=hidden;whiteSpace=wrap;html=1;" parent="MahOUw_dBexpG1UbGB4B-39" vertex="1">
          <mxGeometry x="30" width="80" height="30" as="geometry">
            <mxRectangle width="80" height="30" as="alternateBounds" />
          </mxGeometry>
        </mxCell>
        <mxCell id="MahOUw_dBexpG1UbGB4B-42" value="Enum(&#39;Male&#39;, &#39;Female&#39;)" style="shape=partialRectangle;connectable=0;fillColor=none;top=0;left=0;bottom=0;right=0;align=left;spacingLeft=6;overflow=hidden;whiteSpace=wrap;html=1;" parent="MahOUw_dBexpG1UbGB4B-39" vertex="1">
          <mxGeometry x="110" width="160" height="30" as="geometry">
            <mxRectangle width="160" height="30" as="alternateBounds" />
          </mxGeometry>
        </mxCell>
        <mxCell id="LDAT4K9VUZpGoQVw1NxE-9" style="shape=tableRow;horizontal=0;startSize=0;swimlaneHead=0;swimlaneBody=0;fillColor=none;collapsible=0;dropTarget=0;points=[[0,0.5],[1,0.5]];portConstraint=eastwest;top=0;left=0;right=0;bottom=0;" parent="MahOUw_dBexpG1UbGB4B-26" vertex="1">
          <mxGeometry y="150" width="270" height="30" as="geometry" />
        </mxCell>
        <mxCell id="LDAT4K9VUZpGoQVw1NxE-10" style="shape=partialRectangle;connectable=0;fillColor=none;top=0;left=0;bottom=0;right=0;editable=1;overflow=hidden;whiteSpace=wrap;html=1;" parent="LDAT4K9VUZpGoQVw1NxE-9" vertex="1">
          <mxGeometry width="30" height="30" as="geometry">
            <mxRectangle width="30" height="30" as="alternateBounds" />
          </mxGeometry>
        </mxCell>
        <mxCell id="LDAT4K9VUZpGoQVw1NxE-11" value="Address" style="shape=partialRectangle;connectable=0;fillColor=none;top=0;left=0;bottom=0;right=0;align=left;spacingLeft=6;overflow=hidden;whiteSpace=wrap;html=1;" parent="LDAT4K9VUZpGoQVw1NxE-9" vertex="1">
          <mxGeometry x="30" width="80" height="30" as="geometry">
            <mxRectangle width="80" height="30" as="alternateBounds" />
          </mxGeometry>
        </mxCell>
        <mxCell id="LDAT4K9VUZpGoQVw1NxE-12" value="Varchar(50)" style="shape=partialRectangle;connectable=0;fillColor=none;top=0;left=0;bottom=0;right=0;align=left;spacingLeft=6;overflow=hidden;whiteSpace=wrap;html=1;" parent="LDAT4K9VUZpGoQVw1NxE-9" vertex="1">
          <mxGeometry x="110" width="160" height="30" as="geometry">
            <mxRectangle width="160" height="30" as="alternateBounds" />
          </mxGeometry>
        </mxCell>
        <mxCell id="MahOUw_dBexpG1UbGB4B-43" value="" style="shape=tableRow;horizontal=0;startSize=0;swimlaneHead=0;swimlaneBody=0;fillColor=none;collapsible=0;dropTarget=0;points=[[0,0.5],[1,0.5]];portConstraint=eastwest;top=0;left=0;right=0;bottom=0;" parent="MahOUw_dBexpG1UbGB4B-26" vertex="1">
          <mxGeometry y="180" width="270" height="30" as="geometry" />
        </mxCell>
        <mxCell id="MahOUw_dBexpG1UbGB4B-44" value="" style="shape=partialRectangle;connectable=0;fillColor=none;top=0;left=0;bottom=0;right=0;editable=1;overflow=hidden;whiteSpace=wrap;html=1;" parent="MahOUw_dBexpG1UbGB4B-43" vertex="1">
          <mxGeometry width="30" height="30" as="geometry">
            <mxRectangle width="30" height="30" as="alternateBounds" />
          </mxGeometry>
        </mxCell>
        <mxCell id="MahOUw_dBexpG1UbGB4B-45" value="Phone" style="shape=partialRectangle;connectable=0;fillColor=none;top=0;left=0;bottom=0;right=0;align=left;spacingLeft=6;overflow=hidden;whiteSpace=wrap;html=1;" parent="MahOUw_dBexpG1UbGB4B-43" vertex="1">
          <mxGeometry x="30" width="80" height="30" as="geometry">
            <mxRectangle width="80" height="30" as="alternateBounds" />
          </mxGeometry>
        </mxCell>
        <mxCell id="MahOUw_dBexpG1UbGB4B-46" value="Varchar(15)" style="shape=partialRectangle;connectable=0;fillColor=none;top=0;left=0;bottom=0;right=0;align=left;spacingLeft=6;overflow=hidden;whiteSpace=wrap;html=1;" parent="MahOUw_dBexpG1UbGB4B-43" vertex="1">
          <mxGeometry x="110" width="160" height="30" as="geometry">
            <mxRectangle width="160" height="30" as="alternateBounds" />
          </mxGeometry>
        </mxCell>
        <mxCell id="MahOUw_dBexpG1UbGB4B-47" value="" style="shape=tableRow;horizontal=0;startSize=0;swimlaneHead=0;swimlaneBody=0;fillColor=none;collapsible=0;dropTarget=0;points=[[0,0.5],[1,0.5]];portConstraint=eastwest;top=0;left=0;right=0;bottom=0;" parent="MahOUw_dBexpG1UbGB4B-26" vertex="1">
          <mxGeometry y="210" width="270" height="30" as="geometry" />
        </mxCell>
        <mxCell id="MahOUw_dBexpG1UbGB4B-48" value="" style="shape=partialRectangle;connectable=0;fillColor=none;top=0;left=0;bottom=0;right=0;editable=1;overflow=hidden;whiteSpace=wrap;html=1;" parent="MahOUw_dBexpG1UbGB4B-47" vertex="1">
          <mxGeometry width="30" height="30" as="geometry">
            <mxRectangle width="30" height="30" as="alternateBounds" />
          </mxGeometry>
        </mxCell>
        <mxCell id="MahOUw_dBexpG1UbGB4B-49" value="Email" style="shape=partialRectangle;connectable=0;fillColor=none;top=0;left=0;bottom=0;right=0;align=left;spacingLeft=6;overflow=hidden;whiteSpace=wrap;html=1;" parent="MahOUw_dBexpG1UbGB4B-47" vertex="1">
          <mxGeometry x="30" width="80" height="30" as="geometry">
            <mxRectangle width="80" height="30" as="alternateBounds" />
          </mxGeometry>
        </mxCell>
        <mxCell id="MahOUw_dBexpG1UbGB4B-50" value="Varchar(50)" style="shape=partialRectangle;connectable=0;fillColor=none;top=0;left=0;bottom=0;right=0;align=left;spacingLeft=6;overflow=hidden;whiteSpace=wrap;html=1;" parent="MahOUw_dBexpG1UbGB4B-47" vertex="1">
          <mxGeometry x="110" width="160" height="30" as="geometry">
            <mxRectangle width="160" height="30" as="alternateBounds" />
          </mxGeometry>
        </mxCell>
        <mxCell id="MahOUw_dBexpG1UbGB4B-51" value="" style="shape=tableRow;horizontal=0;startSize=0;swimlaneHead=0;swimlaneBody=0;fillColor=none;collapsible=0;dropTarget=0;points=[[0,0.5],[1,0.5]];portConstraint=eastwest;top=0;left=0;right=0;bottom=0;" parent="MahOUw_dBexpG1UbGB4B-26" vertex="1">
          <mxGeometry y="240" width="270" height="30" as="geometry" />
        </mxCell>
        <mxCell id="MahOUw_dBexpG1UbGB4B-52" value="" style="shape=partialRectangle;connectable=0;fillColor=none;top=0;left=0;bottom=0;right=0;editable=1;overflow=hidden;whiteSpace=wrap;html=1;" parent="MahOUw_dBexpG1UbGB4B-51" vertex="1">
          <mxGeometry width="30" height="30" as="geometry">
            <mxRectangle width="30" height="30" as="alternateBounds" />
          </mxGeometry>
        </mxCell>
        <mxCell id="MahOUw_dBexpG1UbGB4B-53" value="Expertise" style="shape=partialRectangle;connectable=0;fillColor=none;top=0;left=0;bottom=0;right=0;align=left;spacingLeft=6;overflow=hidden;whiteSpace=wrap;html=1;" parent="MahOUw_dBexpG1UbGB4B-51" vertex="1">
          <mxGeometry x="30" width="80" height="30" as="geometry">
            <mxRectangle width="80" height="30" as="alternateBounds" />
          </mxGeometry>
        </mxCell>
        <mxCell id="MahOUw_dBexpG1UbGB4B-54" value="Varchar(20)" style="shape=partialRectangle;connectable=0;fillColor=none;top=0;left=0;bottom=0;right=0;align=left;spacingLeft=6;overflow=hidden;whiteSpace=wrap;html=1;" parent="MahOUw_dBexpG1UbGB4B-51" vertex="1">
          <mxGeometry x="110" width="160" height="30" as="geometry">
            <mxRectangle width="160" height="30" as="alternateBounds" />
          </mxGeometry>
        </mxCell>
        <mxCell id="MahOUw_dBexpG1UbGB4B-55" value="" style="shape=tableRow;horizontal=0;startSize=0;swimlaneHead=0;swimlaneBody=0;fillColor=none;collapsible=0;dropTarget=0;points=[[0,0.5],[1,0.5]];portConstraint=eastwest;top=0;left=0;right=0;bottom=0;" parent="MahOUw_dBexpG1UbGB4B-26" vertex="1">
          <mxGeometry y="270" width="270" height="30" as="geometry" />
        </mxCell>
        <mxCell id="MahOUw_dBexpG1UbGB4B-56" value="" style="shape=partialRectangle;connectable=0;fillColor=none;top=0;left=0;bottom=0;right=0;editable=1;overflow=hidden;whiteSpace=wrap;html=1;" parent="MahOUw_dBexpG1UbGB4B-55" vertex="1">
          <mxGeometry width="30" height="30" as="geometry">
            <mxRectangle width="30" height="30" as="alternateBounds" />
          </mxGeometry>
        </mxCell>
        <mxCell id="MahOUw_dBexpG1UbGB4B-57" value="Level" style="shape=partialRectangle;connectable=0;fillColor=none;top=0;left=0;bottom=0;right=0;align=left;spacingLeft=6;overflow=hidden;whiteSpace=wrap;html=1;" parent="MahOUw_dBexpG1UbGB4B-55" vertex="1">
          <mxGeometry x="30" width="80" height="30" as="geometry">
            <mxRectangle width="80" height="30" as="alternateBounds" />
          </mxGeometry>
        </mxCell>
        <mxCell id="MahOUw_dBexpG1UbGB4B-58" value="Varchar(20)" style="shape=partialRectangle;connectable=0;fillColor=none;top=0;left=0;bottom=0;right=0;align=left;spacingLeft=6;overflow=hidden;whiteSpace=wrap;html=1;" parent="MahOUw_dBexpG1UbGB4B-55" vertex="1">
          <mxGeometry x="110" width="160" height="30" as="geometry">
            <mxRectangle width="160" height="30" as="alternateBounds" />
          </mxGeometry>
        </mxCell>
        <mxCell id="MahOUw_dBexpG1UbGB4B-59" value="" style="shape=tableRow;horizontal=0;startSize=0;swimlaneHead=0;swimlaneBody=0;fillColor=none;collapsible=0;dropTarget=0;points=[[0,0.5],[1,0.5]];portConstraint=eastwest;top=0;left=0;right=0;bottom=0;" parent="MahOUw_dBexpG1UbGB4B-26" vertex="1">
          <mxGeometry y="300" width="270" height="30" as="geometry" />
        </mxCell>
        <mxCell id="MahOUw_dBexpG1UbGB4B-60" value="" style="shape=partialRectangle;connectable=0;fillColor=none;top=0;left=0;bottom=0;right=0;editable=1;overflow=hidden;whiteSpace=wrap;html=1;" parent="MahOUw_dBexpG1UbGB4B-59" vertex="1">
          <mxGeometry width="30" height="30" as="geometry">
            <mxRectangle width="30" height="30" as="alternateBounds" />
          </mxGeometry>
        </mxCell>
        <mxCell id="MahOUw_dBexpG1UbGB4B-61" value="Salary" style="shape=partialRectangle;connectable=0;fillColor=none;top=0;left=0;bottom=0;right=0;align=left;spacingLeft=6;overflow=hidden;whiteSpace=wrap;html=1;" parent="MahOUw_dBexpG1UbGB4B-59" vertex="1">
          <mxGeometry x="30" width="80" height="30" as="geometry">
            <mxRectangle width="80" height="30" as="alternateBounds" />
          </mxGeometry>
        </mxCell>
        <mxCell id="MahOUw_dBexpG1UbGB4B-62" value="Integer" style="shape=partialRectangle;connectable=0;fillColor=none;top=0;left=0;bottom=0;right=0;align=left;spacingLeft=6;overflow=hidden;whiteSpace=wrap;html=1;" parent="MahOUw_dBexpG1UbGB4B-59" vertex="1">
          <mxGeometry x="110" width="160" height="30" as="geometry">
            <mxRectangle width="160" height="30" as="alternateBounds" />
          </mxGeometry>
        </mxCell>
        <mxCell id="vQaSJs1jzpEJr47SyI0O-5" style="shape=tableRow;horizontal=0;startSize=0;swimlaneHead=0;swimlaneBody=0;fillColor=none;collapsible=0;dropTarget=0;points=[[0,0.5],[1,0.5]];portConstraint=eastwest;top=0;left=0;right=0;bottom=0;" parent="MahOUw_dBexpG1UbGB4B-26" vertex="1">
          <mxGeometry y="330" width="270" height="30" as="geometry" />
        </mxCell>
        <mxCell id="vQaSJs1jzpEJr47SyI0O-6" style="shape=partialRectangle;connectable=0;fillColor=none;top=0;left=0;bottom=0;right=0;editable=1;overflow=hidden;whiteSpace=wrap;html=1;" parent="vQaSJs1jzpEJr47SyI0O-5" vertex="1">
          <mxGeometry width="30" height="30" as="geometry">
            <mxRectangle width="30" height="30" as="alternateBounds" />
          </mxGeometry>
        </mxCell>
        <mxCell id="vQaSJs1jzpEJr47SyI0O-7" value="Status" style="shape=partialRectangle;connectable=0;fillColor=none;top=0;left=0;bottom=0;right=0;align=left;spacingLeft=6;overflow=hidden;whiteSpace=wrap;html=1;" parent="vQaSJs1jzpEJr47SyI0O-5" vertex="1">
          <mxGeometry x="30" width="80" height="30" as="geometry">
            <mxRectangle width="80" height="30" as="alternateBounds" />
          </mxGeometry>
        </mxCell>
        <mxCell id="vQaSJs1jzpEJr47SyI0O-8" value="Enum(&#39;Deleted&#39;, &#39;Teaching&#39;)" style="shape=partialRectangle;connectable=0;fillColor=none;top=0;left=0;bottom=0;right=0;align=left;spacingLeft=6;overflow=hidden;whiteSpace=wrap;html=1;" parent="vQaSJs1jzpEJr47SyI0O-5" vertex="1">
          <mxGeometry x="110" width="160" height="30" as="geometry">
            <mxRectangle width="160" height="30" as="alternateBounds" />
          </mxGeometry>
        </mxCell>
        <mxCell id="MahOUw_dBexpG1UbGB4B-63" value="courses" style="shape=table;startSize=30;container=1;collapsible=1;childLayout=tableLayout;fixedRows=1;rowLines=0;fontStyle=1;align=center;resizeLast=1;html=1;" parent="1" vertex="1">
          <mxGeometry x="205" y="260" width="440" height="240" as="geometry" />
        </mxCell>
        <mxCell id="MahOUw_dBexpG1UbGB4B-64" value="" style="shape=tableRow;horizontal=0;startSize=0;swimlaneHead=0;swimlaneBody=0;fillColor=none;collapsible=0;dropTarget=0;points=[[0,0.5],[1,0.5]];portConstraint=eastwest;top=0;left=0;right=0;bottom=1;" parent="MahOUw_dBexpG1UbGB4B-63" vertex="1">
          <mxGeometry y="30" width="440" height="30" as="geometry" />
        </mxCell>
        <mxCell id="MahOUw_dBexpG1UbGB4B-65" value="PK" style="shape=partialRectangle;connectable=0;fillColor=none;top=0;left=0;bottom=0;right=0;fontStyle=1;overflow=hidden;whiteSpace=wrap;html=1;" parent="MahOUw_dBexpG1UbGB4B-64" vertex="1">
          <mxGeometry width="30" height="30" as="geometry">
            <mxRectangle width="30" height="30" as="alternateBounds" />
          </mxGeometry>
        </mxCell>
        <mxCell id="MahOUw_dBexpG1UbGB4B-66" value="CourseID" style="shape=partialRectangle;connectable=0;fillColor=none;top=0;left=0;bottom=0;right=0;align=left;spacingLeft=6;fontStyle=5;overflow=hidden;whiteSpace=wrap;html=1;" parent="MahOUw_dBexpG1UbGB4B-64" vertex="1">
          <mxGeometry x="30" width="100" height="30" as="geometry">
            <mxRectangle width="100" height="30" as="alternateBounds" />
          </mxGeometry>
        </mxCell>
        <mxCell id="MahOUw_dBexpG1UbGB4B-67" value="Varchar(6)" style="shape=partialRectangle;connectable=0;fillColor=none;top=0;left=0;bottom=0;right=0;align=left;spacingLeft=6;fontStyle=5;overflow=hidden;whiteSpace=wrap;html=1;" parent="MahOUw_dBexpG1UbGB4B-64" vertex="1">
          <mxGeometry x="130" width="310" height="30" as="geometry">
            <mxRectangle width="310" height="30" as="alternateBounds" />
          </mxGeometry>
        </mxCell>
        <mxCell id="MahOUw_dBexpG1UbGB4B-68" style="shape=tableRow;horizontal=0;startSize=0;swimlaneHead=0;swimlaneBody=0;fillColor=none;collapsible=0;dropTarget=0;points=[[0,0.5],[1,0.5]];portConstraint=eastwest;top=0;left=0;right=0;bottom=0;" parent="MahOUw_dBexpG1UbGB4B-63" vertex="1">
          <mxGeometry y="60" width="440" height="30" as="geometry" />
        </mxCell>
        <mxCell id="MahOUw_dBexpG1UbGB4B-69" value="FK" style="shape=partialRectangle;connectable=0;fillColor=none;top=0;left=0;bottom=0;right=0;editable=1;overflow=hidden;whiteSpace=wrap;html=1;" parent="MahOUw_dBexpG1UbGB4B-68" vertex="1">
          <mxGeometry width="30" height="30" as="geometry">
            <mxRectangle width="30" height="30" as="alternateBounds" />
          </mxGeometry>
        </mxCell>
        <mxCell id="MahOUw_dBexpG1UbGB4B-70" value="RoomID" style="shape=partialRectangle;connectable=0;fillColor=none;top=0;left=0;bottom=0;right=0;align=left;spacingLeft=6;overflow=hidden;whiteSpace=wrap;html=1;" parent="MahOUw_dBexpG1UbGB4B-68" vertex="1">
          <mxGeometry x="30" width="100" height="30" as="geometry">
            <mxRectangle width="100" height="30" as="alternateBounds" />
          </mxGeometry>
        </mxCell>
        <mxCell id="MahOUw_dBexpG1UbGB4B-71" value="Varchar(8)" style="shape=partialRectangle;connectable=0;fillColor=none;top=0;left=0;bottom=0;right=0;align=left;spacingLeft=6;overflow=hidden;whiteSpace=wrap;html=1;" parent="MahOUw_dBexpG1UbGB4B-68" vertex="1">
          <mxGeometry x="130" width="310" height="30" as="geometry">
            <mxRectangle width="310" height="30" as="alternateBounds" />
          </mxGeometry>
        </mxCell>
        <mxCell id="MahOUw_dBexpG1UbGB4B-72" style="shape=tableRow;horizontal=0;startSize=0;swimlaneHead=0;swimlaneBody=0;fillColor=none;collapsible=0;dropTarget=0;points=[[0,0.5],[1,0.5]];portConstraint=eastwest;top=0;left=0;right=0;bottom=0;" parent="MahOUw_dBexpG1UbGB4B-63" vertex="1">
          <mxGeometry y="90" width="440" height="30" as="geometry" />
        </mxCell>
        <mxCell id="MahOUw_dBexpG1UbGB4B-73" value="FK" style="shape=partialRectangle;connectable=0;fillColor=none;top=0;left=0;bottom=0;right=0;editable=1;overflow=hidden;whiteSpace=wrap;html=1;" parent="MahOUw_dBexpG1UbGB4B-72" vertex="1">
          <mxGeometry width="30" height="30" as="geometry">
            <mxRectangle width="30" height="30" as="alternateBounds" />
          </mxGeometry>
        </mxCell>
        <mxCell id="MahOUw_dBexpG1UbGB4B-74" value="TeacherID" style="shape=partialRectangle;connectable=0;fillColor=none;top=0;left=0;bottom=0;right=0;align=left;spacingLeft=6;overflow=hidden;whiteSpace=wrap;html=1;" parent="MahOUw_dBexpG1UbGB4B-72" vertex="1">
          <mxGeometry x="30" width="100" height="30" as="geometry">
            <mxRectangle width="100" height="30" as="alternateBounds" />
          </mxGeometry>
        </mxCell>
        <mxCell id="MahOUw_dBexpG1UbGB4B-75" value="Varchar(10)" style="shape=partialRectangle;connectable=0;fillColor=none;top=0;left=0;bottom=0;right=0;align=left;spacingLeft=6;overflow=hidden;whiteSpace=wrap;html=1;" parent="MahOUw_dBexpG1UbGB4B-72" vertex="1">
          <mxGeometry x="130" width="310" height="30" as="geometry">
            <mxRectangle width="310" height="30" as="alternateBounds" />
          </mxGeometry>
        </mxCell>
        <mxCell id="MahOUw_dBexpG1UbGB4B-76" style="shape=tableRow;horizontal=0;startSize=0;swimlaneHead=0;swimlaneBody=0;fillColor=none;collapsible=0;dropTarget=0;points=[[0,0.5],[1,0.5]];portConstraint=eastwest;top=0;left=0;right=0;bottom=0;" parent="MahOUw_dBexpG1UbGB4B-63" vertex="1">
          <mxGeometry y="120" width="440" height="30" as="geometry" />
        </mxCell>
        <mxCell id="MahOUw_dBexpG1UbGB4B-77" value="FK" style="shape=partialRectangle;connectable=0;fillColor=none;top=0;left=0;bottom=0;right=0;editable=1;overflow=hidden;whiteSpace=wrap;html=1;" parent="MahOUw_dBexpG1UbGB4B-76" vertex="1">
          <mxGeometry width="30" height="30" as="geometry">
            <mxRectangle width="30" height="30" as="alternateBounds" />
          </mxGeometry>
        </mxCell>
        <mxCell id="MahOUw_dBexpG1UbGB4B-78" value="SubjectID" style="shape=partialRectangle;connectable=0;fillColor=none;top=0;left=0;bottom=0;right=0;align=left;spacingLeft=6;overflow=hidden;whiteSpace=wrap;html=1;" parent="MahOUw_dBexpG1UbGB4B-76" vertex="1">
          <mxGeometry x="30" width="100" height="30" as="geometry">
            <mxRectangle width="100" height="30" as="alternateBounds" />
          </mxGeometry>
        </mxCell>
        <mxCell id="MahOUw_dBexpG1UbGB4B-79" value="Varchar(6)" style="shape=partialRectangle;connectable=0;fillColor=none;top=0;left=0;bottom=0;right=0;align=left;spacingLeft=6;overflow=hidden;whiteSpace=wrap;html=1;" parent="MahOUw_dBexpG1UbGB4B-76" vertex="1">
          <mxGeometry x="130" width="310" height="30" as="geometry">
            <mxRectangle width="310" height="30" as="alternateBounds" />
          </mxGeometry>
        </mxCell>
        <mxCell id="FZvELc99l1QP3o9KrhBz-2" style="shape=tableRow;horizontal=0;startSize=0;swimlaneHead=0;swimlaneBody=0;fillColor=none;collapsible=0;dropTarget=0;points=[[0,0.5],[1,0.5]];portConstraint=eastwest;top=0;left=0;right=0;bottom=0;" parent="MahOUw_dBexpG1UbGB4B-63" vertex="1">
          <mxGeometry y="150" width="440" height="30" as="geometry" />
        </mxCell>
        <mxCell id="FZvELc99l1QP3o9KrhBz-3" style="shape=partialRectangle;connectable=0;fillColor=none;top=0;left=0;bottom=0;right=0;editable=1;overflow=hidden;whiteSpace=wrap;html=1;" parent="FZvELc99l1QP3o9KrhBz-2" vertex="1">
          <mxGeometry width="30" height="30" as="geometry">
            <mxRectangle width="30" height="30" as="alternateBounds" />
          </mxGeometry>
        </mxCell>
        <mxCell id="FZvELc99l1QP3o9KrhBz-4" value="RegisStartDate" style="shape=partialRectangle;connectable=0;fillColor=none;top=0;left=0;bottom=0;right=0;align=left;spacingLeft=6;overflow=hidden;whiteSpace=wrap;html=1;" parent="FZvELc99l1QP3o9KrhBz-2" vertex="1">
          <mxGeometry x="30" width="100" height="30" as="geometry">
            <mxRectangle width="100" height="30" as="alternateBounds" />
          </mxGeometry>
        </mxCell>
        <mxCell id="FZvELc99l1QP3o9KrhBz-5" value="Date" style="shape=partialRectangle;connectable=0;fillColor=none;top=0;left=0;bottom=0;right=0;align=left;spacingLeft=6;overflow=hidden;whiteSpace=wrap;html=1;" parent="FZvELc99l1QP3o9KrhBz-2" vertex="1">
          <mxGeometry x="130" width="310" height="30" as="geometry">
            <mxRectangle width="310" height="30" as="alternateBounds" />
          </mxGeometry>
        </mxCell>
        <mxCell id="R23CdR4gSgFHbEVHbyEX-1" style="shape=tableRow;horizontal=0;startSize=0;swimlaneHead=0;swimlaneBody=0;fillColor=none;collapsible=0;dropTarget=0;points=[[0,0.5],[1,0.5]];portConstraint=eastwest;top=0;left=0;right=0;bottom=0;" parent="MahOUw_dBexpG1UbGB4B-63" vertex="1">
          <mxGeometry y="180" width="440" height="30" as="geometry" />
        </mxCell>
        <mxCell id="R23CdR4gSgFHbEVHbyEX-2" style="shape=partialRectangle;connectable=0;fillColor=none;top=0;left=0;bottom=0;right=0;editable=1;overflow=hidden;whiteSpace=wrap;html=1;" parent="R23CdR4gSgFHbEVHbyEX-1" vertex="1">
          <mxGeometry width="30" height="30" as="geometry">
            <mxRectangle width="30" height="30" as="alternateBounds" />
          </mxGeometry>
        </mxCell>
        <mxCell id="R23CdR4gSgFHbEVHbyEX-3" value="CourseStartDate" style="shape=partialRectangle;connectable=0;fillColor=none;top=0;left=0;bottom=0;right=0;align=left;spacingLeft=6;overflow=hidden;whiteSpace=wrap;html=1;" parent="R23CdR4gSgFHbEVHbyEX-1" vertex="1">
          <mxGeometry x="30" width="100" height="30" as="geometry">
            <mxRectangle width="100" height="30" as="alternateBounds" />
          </mxGeometry>
        </mxCell>
        <mxCell id="R23CdR4gSgFHbEVHbyEX-4" value="Date" style="shape=partialRectangle;connectable=0;fillColor=none;top=0;left=0;bottom=0;right=0;align=left;spacingLeft=6;overflow=hidden;whiteSpace=wrap;html=1;" parent="R23CdR4gSgFHbEVHbyEX-1" vertex="1">
          <mxGeometry x="130" width="310" height="30" as="geometry">
            <mxRectangle width="310" height="30" as="alternateBounds" />
          </mxGeometry>
        </mxCell>
        <mxCell id="VaF_DWYii6TjXLPHKrgJ-5" style="shape=tableRow;horizontal=0;startSize=0;swimlaneHead=0;swimlaneBody=0;fillColor=none;collapsible=0;dropTarget=0;points=[[0,0.5],[1,0.5]];portConstraint=eastwest;top=0;left=0;right=0;bottom=0;" parent="MahOUw_dBexpG1UbGB4B-63" vertex="1">
          <mxGeometry y="210" width="440" height="30" as="geometry" />
        </mxCell>
        <mxCell id="VaF_DWYii6TjXLPHKrgJ-6" style="shape=partialRectangle;connectable=0;fillColor=none;top=0;left=0;bottom=0;right=0;editable=1;overflow=hidden;whiteSpace=wrap;html=1;" parent="VaF_DWYii6TjXLPHKrgJ-5" vertex="1">
          <mxGeometry width="30" height="30" as="geometry">
            <mxRectangle width="30" height="30" as="alternateBounds" />
          </mxGeometry>
        </mxCell>
        <mxCell id="VaF_DWYii6TjXLPHKrgJ-7" value="Status" style="shape=partialRectangle;connectable=0;fillColor=none;top=0;left=0;bottom=0;right=0;align=left;spacingLeft=6;overflow=hidden;whiteSpace=wrap;html=1;" parent="VaF_DWYii6TjXLPHKrgJ-5" vertex="1">
          <mxGeometry x="30" width="100" height="30" as="geometry">
            <mxRectangle width="100" height="30" as="alternateBounds" />
          </mxGeometry>
        </mxCell>
        <mxCell id="VaF_DWYii6TjXLPHKrgJ-8" value="Enum(&#39;Registration&#39;, &#39;Canceled&#39;, &#39;Ongoing&#39;, &#39;Completed&#39;)" style="shape=partialRectangle;connectable=0;fillColor=none;top=0;left=0;bottom=0;right=0;align=left;spacingLeft=6;overflow=hidden;whiteSpace=wrap;html=1;" parent="VaF_DWYii6TjXLPHKrgJ-5" vertex="1">
          <mxGeometry x="130" width="310" height="30" as="geometry">
            <mxRectangle width="310" height="30" as="alternateBounds" />
          </mxGeometry>
        </mxCell>
        <mxCell id="MahOUw_dBexpG1UbGB4B-88" value="rooms" style="shape=table;startSize=30;container=1;collapsible=1;childLayout=tableLayout;fixedRows=1;rowLines=0;fontStyle=1;align=center;resizeLast=1;html=1;" parent="1" vertex="1">
          <mxGeometry x="740" y="390" width="305" height="180" as="geometry" />
        </mxCell>
        <mxCell id="MahOUw_dBexpG1UbGB4B-89" value="" style="shape=tableRow;horizontal=0;startSize=0;swimlaneHead=0;swimlaneBody=0;fillColor=none;collapsible=0;dropTarget=0;points=[[0,0.5],[1,0.5]];portConstraint=eastwest;top=0;left=0;right=0;bottom=1;" parent="MahOUw_dBexpG1UbGB4B-88" vertex="1">
          <mxGeometry y="30" width="305" height="30" as="geometry" />
        </mxCell>
        <mxCell id="MahOUw_dBexpG1UbGB4B-90" value="PK" style="shape=partialRectangle;connectable=0;fillColor=none;top=0;left=0;bottom=0;right=0;fontStyle=1;overflow=hidden;whiteSpace=wrap;html=1;" parent="MahOUw_dBexpG1UbGB4B-89" vertex="1">
          <mxGeometry width="30" height="30" as="geometry">
            <mxRectangle width="30" height="30" as="alternateBounds" />
          </mxGeometry>
        </mxCell>
        <mxCell id="MahOUw_dBexpG1UbGB4B-91" value="RoomID" style="shape=partialRectangle;connectable=0;fillColor=none;top=0;left=0;bottom=0;right=0;align=left;spacingLeft=6;fontStyle=5;overflow=hidden;whiteSpace=wrap;html=1;" parent="MahOUw_dBexpG1UbGB4B-89" vertex="1">
          <mxGeometry x="30" width="85" height="30" as="geometry">
            <mxRectangle width="85" height="30" as="alternateBounds" />
          </mxGeometry>
        </mxCell>
        <mxCell id="MahOUw_dBexpG1UbGB4B-92" value="Varchar(8)" style="shape=partialRectangle;connectable=0;fillColor=none;top=0;left=0;bottom=0;right=0;align=left;spacingLeft=6;fontStyle=5;overflow=hidden;whiteSpace=wrap;html=1;" parent="MahOUw_dBexpG1UbGB4B-89" vertex="1">
          <mxGeometry x="115" width="190" height="30" as="geometry">
            <mxRectangle width="190" height="30" as="alternateBounds" />
          </mxGeometry>
        </mxCell>
        <mxCell id="MahOUw_dBexpG1UbGB4B-93" value="" style="shape=tableRow;horizontal=0;startSize=0;swimlaneHead=0;swimlaneBody=0;fillColor=none;collapsible=0;dropTarget=0;points=[[0,0.5],[1,0.5]];portConstraint=eastwest;top=0;left=0;right=0;bottom=0;" parent="MahOUw_dBexpG1UbGB4B-88" vertex="1">
          <mxGeometry y="60" width="305" height="30" as="geometry" />
        </mxCell>
        <mxCell id="MahOUw_dBexpG1UbGB4B-94" value="" style="shape=partialRectangle;connectable=0;fillColor=none;top=0;left=0;bottom=0;right=0;editable=1;overflow=hidden;whiteSpace=wrap;html=1;" parent="MahOUw_dBexpG1UbGB4B-93" vertex="1">
          <mxGeometry width="30" height="30" as="geometry">
            <mxRectangle width="30" height="30" as="alternateBounds" />
          </mxGeometry>
        </mxCell>
        <mxCell id="MahOUw_dBexpG1UbGB4B-95" value="Address" style="shape=partialRectangle;connectable=0;fillColor=none;top=0;left=0;bottom=0;right=0;align=left;spacingLeft=6;overflow=hidden;whiteSpace=wrap;html=1;" parent="MahOUw_dBexpG1UbGB4B-93" vertex="1">
          <mxGeometry x="30" width="85" height="30" as="geometry">
            <mxRectangle width="85" height="30" as="alternateBounds" />
          </mxGeometry>
        </mxCell>
        <mxCell id="MahOUw_dBexpG1UbGB4B-96" value="Varchar(255)" style="shape=partialRectangle;connectable=0;fillColor=none;top=0;left=0;bottom=0;right=0;align=left;spacingLeft=6;overflow=hidden;whiteSpace=wrap;html=1;" parent="MahOUw_dBexpG1UbGB4B-93" vertex="1">
          <mxGeometry x="115" width="190" height="30" as="geometry">
            <mxRectangle width="190" height="30" as="alternateBounds" />
          </mxGeometry>
        </mxCell>
        <mxCell id="SRroFngBc5vvQGinwtVW-5" style="shape=tableRow;horizontal=0;startSize=0;swimlaneHead=0;swimlaneBody=0;fillColor=none;collapsible=0;dropTarget=0;points=[[0,0.5],[1,0.5]];portConstraint=eastwest;top=0;left=0;right=0;bottom=0;" parent="MahOUw_dBexpG1UbGB4B-88" vertex="1">
          <mxGeometry y="90" width="305" height="30" as="geometry" />
        </mxCell>
        <mxCell id="SRroFngBc5vvQGinwtVW-6" style="shape=partialRectangle;connectable=0;fillColor=none;top=0;left=0;bottom=0;right=0;editable=1;overflow=hidden;whiteSpace=wrap;html=1;" parent="SRroFngBc5vvQGinwtVW-5" vertex="1">
          <mxGeometry width="30" height="30" as="geometry">
            <mxRectangle width="30" height="30" as="alternateBounds" />
          </mxGeometry>
        </mxCell>
        <mxCell id="SRroFngBc5vvQGinwtVW-7" value="Type" style="shape=partialRectangle;connectable=0;fillColor=none;top=0;left=0;bottom=0;right=0;align=left;spacingLeft=6;overflow=hidden;whiteSpace=wrap;html=1;" parent="SRroFngBc5vvQGinwtVW-5" vertex="1">
          <mxGeometry x="30" width="85" height="30" as="geometry">
            <mxRectangle width="85" height="30" as="alternateBounds" />
          </mxGeometry>
        </mxCell>
        <mxCell id="SRroFngBc5vvQGinwtVW-8" value="Enum(&#39;Offline&#39;, &#39;Online&#39;)" style="shape=partialRectangle;connectable=0;fillColor=none;top=0;left=0;bottom=0;right=0;align=left;spacingLeft=6;overflow=hidden;whiteSpace=wrap;html=1;" parent="SRroFngBc5vvQGinwtVW-5" vertex="1">
          <mxGeometry x="115" width="190" height="30" as="geometry">
            <mxRectangle width="190" height="30" as="alternateBounds" />
          </mxGeometry>
        </mxCell>
        <mxCell id="96-0FfOTnm80tLmbGKSo-1" style="shape=tableRow;horizontal=0;startSize=0;swimlaneHead=0;swimlaneBody=0;fillColor=none;collapsible=0;dropTarget=0;points=[[0,0.5],[1,0.5]];portConstraint=eastwest;top=0;left=0;right=0;bottom=0;" parent="MahOUw_dBexpG1UbGB4B-88" vertex="1">
          <mxGeometry y="120" width="305" height="30" as="geometry" />
        </mxCell>
        <mxCell id="96-0FfOTnm80tLmbGKSo-2" style="shape=partialRectangle;connectable=0;fillColor=none;top=0;left=0;bottom=0;right=0;editable=1;overflow=hidden;whiteSpace=wrap;html=1;" parent="96-0FfOTnm80tLmbGKSo-1" vertex="1">
          <mxGeometry width="30" height="30" as="geometry">
            <mxRectangle width="30" height="30" as="alternateBounds" />
          </mxGeometry>
        </mxCell>
        <mxCell id="96-0FfOTnm80tLmbGKSo-3" value="MaxStudents" style="shape=partialRectangle;connectable=0;fillColor=none;top=0;left=0;bottom=0;right=0;align=left;spacingLeft=6;overflow=hidden;whiteSpace=wrap;html=1;" parent="96-0FfOTnm80tLmbGKSo-1" vertex="1">
          <mxGeometry x="30" width="85" height="30" as="geometry">
            <mxRectangle width="85" height="30" as="alternateBounds" />
          </mxGeometry>
        </mxCell>
        <mxCell id="96-0FfOTnm80tLmbGKSo-4" value="Integer" style="shape=partialRectangle;connectable=0;fillColor=none;top=0;left=0;bottom=0;right=0;align=left;spacingLeft=6;overflow=hidden;whiteSpace=wrap;html=1;" parent="96-0FfOTnm80tLmbGKSo-1" vertex="1">
          <mxGeometry x="115" width="190" height="30" as="geometry">
            <mxRectangle width="190" height="30" as="alternateBounds" />
          </mxGeometry>
        </mxCell>
        <mxCell id="MahOUw_dBexpG1UbGB4B-97" value="" style="shape=tableRow;horizontal=0;startSize=0;swimlaneHead=0;swimlaneBody=0;fillColor=none;collapsible=0;dropTarget=0;points=[[0,0.5],[1,0.5]];portConstraint=eastwest;top=0;left=0;right=0;bottom=0;" parent="MahOUw_dBexpG1UbGB4B-88" vertex="1">
          <mxGeometry y="150" width="305" height="30" as="geometry" />
        </mxCell>
        <mxCell id="MahOUw_dBexpG1UbGB4B-98" value="" style="shape=partialRectangle;connectable=0;fillColor=none;top=0;left=0;bottom=0;right=0;editable=1;overflow=hidden;whiteSpace=wrap;html=1;" parent="MahOUw_dBexpG1UbGB4B-97" vertex="1">
          <mxGeometry width="30" height="30" as="geometry">
            <mxRectangle width="30" height="30" as="alternateBounds" />
          </mxGeometry>
        </mxCell>
        <mxCell id="MahOUw_dBexpG1UbGB4B-99" value="Status" style="shape=partialRectangle;connectable=0;fillColor=none;top=0;left=0;bottom=0;right=0;align=left;spacingLeft=6;overflow=hidden;whiteSpace=wrap;html=1;" parent="MahOUw_dBexpG1UbGB4B-97" vertex="1">
          <mxGeometry x="30" width="85" height="30" as="geometry">
            <mxRectangle width="85" height="30" as="alternateBounds" />
          </mxGeometry>
        </mxCell>
        <mxCell id="MahOUw_dBexpG1UbGB4B-100" value="Enum(&#39;Empty&#39;,&#39;Using&#39;, &#39;Deleted&#39;)" style="shape=partialRectangle;connectable=0;fillColor=none;top=0;left=0;bottom=0;right=0;align=left;spacingLeft=6;overflow=hidden;whiteSpace=wrap;html=1;" parent="MahOUw_dBexpG1UbGB4B-97" vertex="1">
          <mxGeometry x="115" width="190" height="30" as="geometry">
            <mxRectangle width="190" height="30" as="alternateBounds" />
          </mxGeometry>
        </mxCell>
        <mxCell id="MahOUw_dBexpG1UbGB4B-114" value="schedules" style="shape=table;startSize=30;container=1;collapsible=1;childLayout=tableLayout;fixedRows=1;rowLines=0;fontStyle=1;align=center;resizeLast=1;html=1;" parent="1" vertex="1">
          <mxGeometry x="280" y="680" width="250" height="180" as="geometry" />
        </mxCell>
        <mxCell id="MahOUw_dBexpG1UbGB4B-115" value="" style="shape=tableRow;horizontal=0;startSize=0;swimlaneHead=0;swimlaneBody=0;fillColor=none;collapsible=0;dropTarget=0;points=[[0,0.5],[1,0.5]];portConstraint=eastwest;top=0;left=0;right=0;bottom=1;" parent="MahOUw_dBexpG1UbGB4B-114" vertex="1">
          <mxGeometry y="30" width="250" height="30" as="geometry" />
        </mxCell>
        <mxCell id="MahOUw_dBexpG1UbGB4B-116" value="PK" style="shape=partialRectangle;connectable=0;fillColor=none;top=0;left=0;bottom=0;right=0;fontStyle=1;overflow=hidden;whiteSpace=wrap;html=1;" parent="MahOUw_dBexpG1UbGB4B-115" vertex="1">
          <mxGeometry width="30" height="30" as="geometry">
            <mxRectangle width="30" height="30" as="alternateBounds" />
          </mxGeometry>
        </mxCell>
        <mxCell id="MahOUw_dBexpG1UbGB4B-117" value="ScheduleID" style="shape=partialRectangle;connectable=0;fillColor=none;top=0;left=0;bottom=0;right=0;align=left;spacingLeft=6;fontStyle=5;overflow=hidden;whiteSpace=wrap;html=1;" parent="MahOUw_dBexpG1UbGB4B-115" vertex="1">
          <mxGeometry x="30" width="80" height="30" as="geometry">
            <mxRectangle width="80" height="30" as="alternateBounds" />
          </mxGeometry>
        </mxCell>
        <mxCell id="MahOUw_dBexpG1UbGB4B-118" value="Varchar(5)" style="shape=partialRectangle;connectable=0;fillColor=none;top=0;left=0;bottom=0;right=0;align=left;spacingLeft=6;fontStyle=5;overflow=hidden;whiteSpace=wrap;html=1;" parent="MahOUw_dBexpG1UbGB4B-115" vertex="1">
          <mxGeometry x="110" width="140" height="30" as="geometry">
            <mxRectangle width="140" height="30" as="alternateBounds" />
          </mxGeometry>
        </mxCell>
        <mxCell id="MahOUw_dBexpG1UbGB4B-119" value="" style="shape=tableRow;horizontal=0;startSize=0;swimlaneHead=0;swimlaneBody=0;fillColor=none;collapsible=0;dropTarget=0;points=[[0,0.5],[1,0.5]];portConstraint=eastwest;top=0;left=0;right=0;bottom=0;" parent="MahOUw_dBexpG1UbGB4B-114" vertex="1">
          <mxGeometry y="60" width="250" height="30" as="geometry" />
        </mxCell>
        <mxCell id="MahOUw_dBexpG1UbGB4B-120" value="" style="shape=partialRectangle;connectable=0;fillColor=none;top=0;left=0;bottom=0;right=0;editable=1;overflow=hidden;whiteSpace=wrap;html=1;" parent="MahOUw_dBexpG1UbGB4B-119" vertex="1">
          <mxGeometry width="30" height="30" as="geometry">
            <mxRectangle width="30" height="30" as="alternateBounds" />
          </mxGeometry>
        </mxCell>
        <mxCell id="MahOUw_dBexpG1UbGB4B-121" value="Day" style="shape=partialRectangle;connectable=0;fillColor=none;top=0;left=0;bottom=0;right=0;align=left;spacingLeft=6;overflow=hidden;whiteSpace=wrap;html=1;" parent="MahOUw_dBexpG1UbGB4B-119" vertex="1">
          <mxGeometry x="30" width="80" height="30" as="geometry">
            <mxRectangle width="80" height="30" as="alternateBounds" />
          </mxGeometry>
        </mxCell>
        <mxCell id="MahOUw_dBexpG1UbGB4B-122" value="Varchar(10)" style="shape=partialRectangle;connectable=0;fillColor=none;top=0;left=0;bottom=0;right=0;align=left;spacingLeft=6;overflow=hidden;whiteSpace=wrap;html=1;" parent="MahOUw_dBexpG1UbGB4B-119" vertex="1">
          <mxGeometry x="110" width="140" height="30" as="geometry">
            <mxRectangle width="140" height="30" as="alternateBounds" />
          </mxGeometry>
        </mxCell>
        <mxCell id="MahOUw_dBexpG1UbGB4B-123" value="" style="shape=tableRow;horizontal=0;startSize=0;swimlaneHead=0;swimlaneBody=0;fillColor=none;collapsible=0;dropTarget=0;points=[[0,0.5],[1,0.5]];portConstraint=eastwest;top=0;left=0;right=0;bottom=0;" parent="MahOUw_dBexpG1UbGB4B-114" vertex="1">
          <mxGeometry y="90" width="250" height="30" as="geometry" />
        </mxCell>
        <mxCell id="MahOUw_dBexpG1UbGB4B-124" value="" style="shape=partialRectangle;connectable=0;fillColor=none;top=0;left=0;bottom=0;right=0;editable=1;overflow=hidden;whiteSpace=wrap;html=1;" parent="MahOUw_dBexpG1UbGB4B-123" vertex="1">
          <mxGeometry width="30" height="30" as="geometry">
            <mxRectangle width="30" height="30" as="alternateBounds" />
          </mxGeometry>
        </mxCell>
        <mxCell id="MahOUw_dBexpG1UbGB4B-125" value="TimeStart" style="shape=partialRectangle;connectable=0;fillColor=none;top=0;left=0;bottom=0;right=0;align=left;spacingLeft=6;overflow=hidden;whiteSpace=wrap;html=1;" parent="MahOUw_dBexpG1UbGB4B-123" vertex="1">
          <mxGeometry x="30" width="80" height="30" as="geometry">
            <mxRectangle width="80" height="30" as="alternateBounds" />
          </mxGeometry>
        </mxCell>
        <mxCell id="MahOUw_dBexpG1UbGB4B-126" value="Time" style="shape=partialRectangle;connectable=0;fillColor=none;top=0;left=0;bottom=0;right=0;align=left;spacingLeft=6;overflow=hidden;whiteSpace=wrap;html=1;" parent="MahOUw_dBexpG1UbGB4B-123" vertex="1">
          <mxGeometry x="110" width="140" height="30" as="geometry">
            <mxRectangle width="140" height="30" as="alternateBounds" />
          </mxGeometry>
        </mxCell>
        <mxCell id="MahOUw_dBexpG1UbGB4B-127" value="" style="shape=tableRow;horizontal=0;startSize=0;swimlaneHead=0;swimlaneBody=0;fillColor=none;collapsible=0;dropTarget=0;points=[[0,0.5],[1,0.5]];portConstraint=eastwest;top=0;left=0;right=0;bottom=0;" parent="MahOUw_dBexpG1UbGB4B-114" vertex="1">
          <mxGeometry y="120" width="250" height="30" as="geometry" />
        </mxCell>
        <mxCell id="MahOUw_dBexpG1UbGB4B-128" value="" style="shape=partialRectangle;connectable=0;fillColor=none;top=0;left=0;bottom=0;right=0;editable=1;overflow=hidden;whiteSpace=wrap;html=1;" parent="MahOUw_dBexpG1UbGB4B-127" vertex="1">
          <mxGeometry width="30" height="30" as="geometry">
            <mxRectangle width="30" height="30" as="alternateBounds" />
          </mxGeometry>
        </mxCell>
        <mxCell id="MahOUw_dBexpG1UbGB4B-129" value="TimeEnd" style="shape=partialRectangle;connectable=0;fillColor=none;top=0;left=0;bottom=0;right=0;align=left;spacingLeft=6;overflow=hidden;whiteSpace=wrap;html=1;" parent="MahOUw_dBexpG1UbGB4B-127" vertex="1">
          <mxGeometry x="30" width="80" height="30" as="geometry">
            <mxRectangle width="80" height="30" as="alternateBounds" />
          </mxGeometry>
        </mxCell>
        <mxCell id="MahOUw_dBexpG1UbGB4B-130" value="Time" style="shape=partialRectangle;connectable=0;fillColor=none;top=0;left=0;bottom=0;right=0;align=left;spacingLeft=6;overflow=hidden;whiteSpace=wrap;html=1;" parent="MahOUw_dBexpG1UbGB4B-127" vertex="1">
          <mxGeometry x="110" width="140" height="30" as="geometry">
            <mxRectangle width="140" height="30" as="alternateBounds" />
          </mxGeometry>
        </mxCell>
        <mxCell id="vQaSJs1jzpEJr47SyI0O-13" style="shape=tableRow;horizontal=0;startSize=0;swimlaneHead=0;swimlaneBody=0;fillColor=none;collapsible=0;dropTarget=0;points=[[0,0.5],[1,0.5]];portConstraint=eastwest;top=0;left=0;right=0;bottom=0;" parent="MahOUw_dBexpG1UbGB4B-114" vertex="1">
          <mxGeometry y="150" width="250" height="30" as="geometry" />
        </mxCell>
        <mxCell id="vQaSJs1jzpEJr47SyI0O-14" style="shape=partialRectangle;connectable=0;fillColor=none;top=0;left=0;bottom=0;right=0;editable=1;overflow=hidden;whiteSpace=wrap;html=1;" parent="vQaSJs1jzpEJr47SyI0O-13" vertex="1">
          <mxGeometry width="30" height="30" as="geometry">
            <mxRectangle width="30" height="30" as="alternateBounds" />
          </mxGeometry>
        </mxCell>
        <mxCell id="vQaSJs1jzpEJr47SyI0O-15" value="Status" style="shape=partialRectangle;connectable=0;fillColor=none;top=0;left=0;bottom=0;right=0;align=left;spacingLeft=6;overflow=hidden;whiteSpace=wrap;html=1;" parent="vQaSJs1jzpEJr47SyI0O-13" vertex="1">
          <mxGeometry x="30" width="80" height="30" as="geometry">
            <mxRectangle width="80" height="30" as="alternateBounds" />
          </mxGeometry>
        </mxCell>
        <mxCell id="vQaSJs1jzpEJr47SyI0O-16" value="Enum(&#39;Deleted&#39;, &#39;Using&#39;)" style="shape=partialRectangle;connectable=0;fillColor=none;top=0;left=0;bottom=0;right=0;align=left;spacingLeft=6;overflow=hidden;whiteSpace=wrap;html=1;" parent="vQaSJs1jzpEJr47SyI0O-13" vertex="1">
          <mxGeometry x="110" width="140" height="30" as="geometry">
            <mxRectangle width="140" height="30" as="alternateBounds" />
          </mxGeometry>
        </mxCell>
        <mxCell id="MahOUw_dBexpG1UbGB4B-131" value="studies" style="shape=table;startSize=30;container=1;collapsible=1;childLayout=tableLayout;fixedRows=1;rowLines=0;fontStyle=1;align=center;resizeLast=1;html=1;" parent="1" vertex="1">
          <mxGeometry x="-330" y="340" width="460" height="210" as="geometry" />
        </mxCell>
        <mxCell id="MahOUw_dBexpG1UbGB4B-132" value="" style="shape=tableRow;horizontal=0;startSize=0;swimlaneHead=0;swimlaneBody=0;fillColor=none;collapsible=0;dropTarget=0;points=[[0,0.5],[1,0.5]];portConstraint=eastwest;top=0;left=0;right=0;bottom=1;" parent="MahOUw_dBexpG1UbGB4B-131" vertex="1">
          <mxGeometry y="30" width="460" height="30" as="geometry" />
        </mxCell>
        <mxCell id="MahOUw_dBexpG1UbGB4B-133" value="PK" style="shape=partialRectangle;connectable=0;fillColor=none;top=0;left=0;bottom=0;right=0;fontStyle=1;overflow=hidden;whiteSpace=wrap;html=1;" parent="MahOUw_dBexpG1UbGB4B-132" vertex="1">
          <mxGeometry width="30" height="30" as="geometry">
            <mxRectangle width="30" height="30" as="alternateBounds" />
          </mxGeometry>
        </mxCell>
        <mxCell id="MahOUw_dBexpG1UbGB4B-134" value="StudyID" style="shape=partialRectangle;connectable=0;fillColor=none;top=0;left=0;bottom=0;right=0;align=left;spacingLeft=6;fontStyle=5;overflow=hidden;whiteSpace=wrap;html=1;" parent="MahOUw_dBexpG1UbGB4B-132" vertex="1">
          <mxGeometry x="30" width="120" height="30" as="geometry">
            <mxRectangle width="120" height="30" as="alternateBounds" />
          </mxGeometry>
        </mxCell>
        <mxCell id="MahOUw_dBexpG1UbGB4B-135" value="Varchar(10)" style="shape=partialRectangle;connectable=0;fillColor=none;top=0;left=0;bottom=0;right=0;align=left;spacingLeft=6;fontStyle=5;overflow=hidden;whiteSpace=wrap;html=1;" parent="MahOUw_dBexpG1UbGB4B-132" vertex="1">
          <mxGeometry x="150" width="310" height="30" as="geometry">
            <mxRectangle width="310" height="30" as="alternateBounds" />
          </mxGeometry>
        </mxCell>
        <mxCell id="MahOUw_dBexpG1UbGB4B-136" value="" style="shape=tableRow;horizontal=0;startSize=0;swimlaneHead=0;swimlaneBody=0;fillColor=none;collapsible=0;dropTarget=0;points=[[0,0.5],[1,0.5]];portConstraint=eastwest;top=0;left=0;right=0;bottom=0;" parent="MahOUw_dBexpG1UbGB4B-131" vertex="1">
          <mxGeometry y="60" width="460" height="30" as="geometry" />
        </mxCell>
        <mxCell id="MahOUw_dBexpG1UbGB4B-137" value="FK" style="shape=partialRectangle;connectable=0;fillColor=none;top=0;left=0;bottom=0;right=0;editable=1;overflow=hidden;whiteSpace=wrap;html=1;" parent="MahOUw_dBexpG1UbGB4B-136" vertex="1">
          <mxGeometry width="30" height="30" as="geometry">
            <mxRectangle width="30" height="30" as="alternateBounds" />
          </mxGeometry>
        </mxCell>
        <mxCell id="MahOUw_dBexpG1UbGB4B-138" value="StudentID" style="shape=partialRectangle;connectable=0;fillColor=none;top=0;left=0;bottom=0;right=0;align=left;spacingLeft=6;overflow=hidden;whiteSpace=wrap;html=1;" parent="MahOUw_dBexpG1UbGB4B-136" vertex="1">
          <mxGeometry x="30" width="120" height="30" as="geometry">
            <mxRectangle width="120" height="30" as="alternateBounds" />
          </mxGeometry>
        </mxCell>
        <mxCell id="MahOUw_dBexpG1UbGB4B-139" value="Varchar(10)" style="shape=partialRectangle;connectable=0;fillColor=none;top=0;left=0;bottom=0;right=0;align=left;spacingLeft=6;overflow=hidden;whiteSpace=wrap;html=1;" parent="MahOUw_dBexpG1UbGB4B-136" vertex="1">
          <mxGeometry x="150" width="310" height="30" as="geometry">
            <mxRectangle width="310" height="30" as="alternateBounds" />
          </mxGeometry>
        </mxCell>
        <mxCell id="MahOUw_dBexpG1UbGB4B-140" value="" style="shape=tableRow;horizontal=0;startSize=0;swimlaneHead=0;swimlaneBody=0;fillColor=none;collapsible=0;dropTarget=0;points=[[0,0.5],[1,0.5]];portConstraint=eastwest;top=0;left=0;right=0;bottom=0;" parent="MahOUw_dBexpG1UbGB4B-131" vertex="1">
          <mxGeometry y="90" width="460" height="30" as="geometry" />
        </mxCell>
        <mxCell id="MahOUw_dBexpG1UbGB4B-141" value="FK" style="shape=partialRectangle;connectable=0;fillColor=none;top=0;left=0;bottom=0;right=0;editable=1;overflow=hidden;whiteSpace=wrap;html=1;" parent="MahOUw_dBexpG1UbGB4B-140" vertex="1">
          <mxGeometry width="30" height="30" as="geometry">
            <mxRectangle width="30" height="30" as="alternateBounds" />
          </mxGeometry>
        </mxCell>
        <mxCell id="MahOUw_dBexpG1UbGB4B-142" value="CourseID" style="shape=partialRectangle;connectable=0;fillColor=none;top=0;left=0;bottom=0;right=0;align=left;spacingLeft=6;overflow=hidden;whiteSpace=wrap;html=1;" parent="MahOUw_dBexpG1UbGB4B-140" vertex="1">
          <mxGeometry x="30" width="120" height="30" as="geometry">
            <mxRectangle width="120" height="30" as="alternateBounds" />
          </mxGeometry>
        </mxCell>
        <mxCell id="MahOUw_dBexpG1UbGB4B-143" value="Varchar(6)" style="shape=partialRectangle;connectable=0;fillColor=none;top=0;left=0;bottom=0;right=0;align=left;spacingLeft=6;overflow=hidden;whiteSpace=wrap;html=1;" parent="MahOUw_dBexpG1UbGB4B-140" vertex="1">
          <mxGeometry x="150" width="310" height="30" as="geometry">
            <mxRectangle width="310" height="30" as="alternateBounds" />
          </mxGeometry>
        </mxCell>
        <mxCell id="VaF_DWYii6TjXLPHKrgJ-1" style="shape=tableRow;horizontal=0;startSize=0;swimlaneHead=0;swimlaneBody=0;fillColor=none;collapsible=0;dropTarget=0;points=[[0,0.5],[1,0.5]];portConstraint=eastwest;top=0;left=0;right=0;bottom=0;" parent="MahOUw_dBexpG1UbGB4B-131" vertex="1">
          <mxGeometry y="120" width="460" height="30" as="geometry" />
        </mxCell>
        <mxCell id="VaF_DWYii6TjXLPHKrgJ-2" style="shape=partialRectangle;connectable=0;fillColor=none;top=0;left=0;bottom=0;right=0;editable=1;overflow=hidden;whiteSpace=wrap;html=1;" parent="VaF_DWYii6TjXLPHKrgJ-1" vertex="1">
          <mxGeometry width="30" height="30" as="geometry">
            <mxRectangle width="30" height="30" as="alternateBounds" />
          </mxGeometry>
        </mxCell>
        <mxCell id="VaF_DWYii6TjXLPHKrgJ-3" value="RegistrationDate" style="shape=partialRectangle;connectable=0;fillColor=none;top=0;left=0;bottom=0;right=0;align=left;spacingLeft=6;overflow=hidden;whiteSpace=wrap;html=1;" parent="VaF_DWYii6TjXLPHKrgJ-1" vertex="1">
          <mxGeometry x="30" width="120" height="30" as="geometry">
            <mxRectangle width="120" height="30" as="alternateBounds" />
          </mxGeometry>
        </mxCell>
        <mxCell id="VaF_DWYii6TjXLPHKrgJ-4" value="DateTime" style="shape=partialRectangle;connectable=0;fillColor=none;top=0;left=0;bottom=0;right=0;align=left;spacingLeft=6;overflow=hidden;whiteSpace=wrap;html=1;" parent="VaF_DWYii6TjXLPHKrgJ-1" vertex="1">
          <mxGeometry x="150" width="310" height="30" as="geometry">
            <mxRectangle width="310" height="30" as="alternateBounds" />
          </mxGeometry>
        </mxCell>
        <mxCell id="KHeFeLsFWXbLRyqFVW4O-1" style="shape=tableRow;horizontal=0;startSize=0;swimlaneHead=0;swimlaneBody=0;fillColor=none;collapsible=0;dropTarget=0;points=[[0,0.5],[1,0.5]];portConstraint=eastwest;top=0;left=0;right=0;bottom=0;" parent="MahOUw_dBexpG1UbGB4B-131" vertex="1">
          <mxGeometry y="150" width="460" height="30" as="geometry" />
        </mxCell>
        <mxCell id="KHeFeLsFWXbLRyqFVW4O-2" style="shape=partialRectangle;connectable=0;fillColor=none;top=0;left=0;bottom=0;right=0;editable=1;overflow=hidden;whiteSpace=wrap;html=1;" parent="KHeFeLsFWXbLRyqFVW4O-1" vertex="1">
          <mxGeometry width="30" height="30" as="geometry">
            <mxRectangle width="30" height="30" as="alternateBounds" />
          </mxGeometry>
        </mxCell>
        <mxCell id="KHeFeLsFWXbLRyqFVW4O-3" value="TuitionPayment" style="shape=partialRectangle;connectable=0;fillColor=none;top=0;left=0;bottom=0;right=0;align=left;spacingLeft=6;overflow=hidden;whiteSpace=wrap;html=1;" parent="KHeFeLsFWXbLRyqFVW4O-1" vertex="1">
          <mxGeometry x="30" width="120" height="30" as="geometry">
            <mxRectangle width="120" height="30" as="alternateBounds" />
          </mxGeometry>
        </mxCell>
        <mxCell id="KHeFeLsFWXbLRyqFVW4O-4" value="Enum(&#39;Completed&#39;, Incomplete&#39;)" style="shape=partialRectangle;connectable=0;fillColor=none;top=0;left=0;bottom=0;right=0;align=left;spacingLeft=6;overflow=hidden;whiteSpace=wrap;html=1;" parent="KHeFeLsFWXbLRyqFVW4O-1" vertex="1">
          <mxGeometry x="150" width="310" height="30" as="geometry">
            <mxRectangle width="310" height="30" as="alternateBounds" />
          </mxGeometry>
        </mxCell>
        <mxCell id="KHeFeLsFWXbLRyqFVW4O-5" style="shape=tableRow;horizontal=0;startSize=0;swimlaneHead=0;swimlaneBody=0;fillColor=none;collapsible=0;dropTarget=0;points=[[0,0.5],[1,0.5]];portConstraint=eastwest;top=0;left=0;right=0;bottom=0;" parent="MahOUw_dBexpG1UbGB4B-131" vertex="1">
          <mxGeometry y="180" width="460" height="30" as="geometry" />
        </mxCell>
        <mxCell id="KHeFeLsFWXbLRyqFVW4O-6" style="shape=partialRectangle;connectable=0;fillColor=none;top=0;left=0;bottom=0;right=0;editable=1;overflow=hidden;whiteSpace=wrap;html=1;" parent="KHeFeLsFWXbLRyqFVW4O-5" vertex="1">
          <mxGeometry width="30" height="30" as="geometry">
            <mxRectangle width="30" height="30" as="alternateBounds" />
          </mxGeometry>
        </mxCell>
        <mxCell id="KHeFeLsFWXbLRyqFVW4O-7" value="Status" style="shape=partialRectangle;connectable=0;fillColor=none;top=0;left=0;bottom=0;right=0;align=left;spacingLeft=6;overflow=hidden;whiteSpace=wrap;html=1;" parent="KHeFeLsFWXbLRyqFVW4O-5" vertex="1">
          <mxGeometry x="30" width="120" height="30" as="geometry">
            <mxRectangle width="120" height="30" as="alternateBounds" />
          </mxGeometry>
        </mxCell>
        <mxCell id="KHeFeLsFWXbLRyqFVW4O-8" value="Enum(&#39;Studying&#39;, &#39;Completed&#39;, &#39;&lt;span style=&quot;&quot; data-is-only-node=&quot;&quot; data-end=&quot;31&quot; data-start=&quot;17&quot;&gt;Registered&lt;/span&gt;&amp;nbsp;&#39;, &#39;Canceled&#39;)" style="shape=partialRectangle;connectable=0;fillColor=none;top=0;left=0;bottom=0;right=0;align=left;spacingLeft=6;overflow=hidden;whiteSpace=wrap;html=1;" parent="KHeFeLsFWXbLRyqFVW4O-5" vertex="1">
          <mxGeometry x="150" width="310" height="30" as="geometry">
            <mxRectangle width="310" height="30" as="alternateBounds" />
          </mxGeometry>
        </mxCell>
        <mxCell id="MahOUw_dBexpG1UbGB4B-144" value="scores" style="shape=table;startSize=30;container=1;collapsible=1;childLayout=tableLayout;fixedRows=1;rowLines=0;fontStyle=1;align=center;resizeLast=1;html=1;" parent="1" vertex="1">
          <mxGeometry x="-230" y="620" width="200" height="210" as="geometry" />
        </mxCell>
        <mxCell id="MahOUw_dBexpG1UbGB4B-145" value="" style="shape=tableRow;horizontal=0;startSize=0;swimlaneHead=0;swimlaneBody=0;fillColor=none;collapsible=0;dropTarget=0;points=[[0,0.5],[1,0.5]];portConstraint=eastwest;top=0;left=0;right=0;bottom=1;" parent="MahOUw_dBexpG1UbGB4B-144" vertex="1">
          <mxGeometry y="30" width="200" height="30" as="geometry" />
        </mxCell>
        <mxCell id="MahOUw_dBexpG1UbGB4B-146" value="PK" style="shape=partialRectangle;connectable=0;fillColor=none;top=0;left=0;bottom=0;right=0;fontStyle=1;overflow=hidden;whiteSpace=wrap;html=1;" parent="MahOUw_dBexpG1UbGB4B-145" vertex="1">
          <mxGeometry width="30" height="30" as="geometry">
            <mxRectangle width="30" height="30" as="alternateBounds" />
          </mxGeometry>
        </mxCell>
        <mxCell id="MahOUw_dBexpG1UbGB4B-147" value="ScoreID" style="shape=partialRectangle;connectable=0;fillColor=none;top=0;left=0;bottom=0;right=0;align=left;spacingLeft=6;fontStyle=5;overflow=hidden;whiteSpace=wrap;html=1;" parent="MahOUw_dBexpG1UbGB4B-145" vertex="1">
          <mxGeometry x="30" width="90" height="30" as="geometry">
            <mxRectangle width="90" height="30" as="alternateBounds" />
          </mxGeometry>
        </mxCell>
        <mxCell id="MahOUw_dBexpG1UbGB4B-148" value="Integer" style="shape=partialRectangle;connectable=0;fillColor=none;top=0;left=0;bottom=0;right=0;align=left;spacingLeft=6;fontStyle=5;overflow=hidden;whiteSpace=wrap;html=1;" parent="MahOUw_dBexpG1UbGB4B-145" vertex="1">
          <mxGeometry x="120" width="80" height="30" as="geometry">
            <mxRectangle width="80" height="30" as="alternateBounds" />
          </mxGeometry>
        </mxCell>
        <mxCell id="MahOUw_dBexpG1UbGB4B-149" value="" style="shape=tableRow;horizontal=0;startSize=0;swimlaneHead=0;swimlaneBody=0;fillColor=none;collapsible=0;dropTarget=0;points=[[0,0.5],[1,0.5]];portConstraint=eastwest;top=0;left=0;right=0;bottom=0;" parent="MahOUw_dBexpG1UbGB4B-144" vertex="1">
          <mxGeometry y="60" width="200" height="30" as="geometry" />
        </mxCell>
        <mxCell id="MahOUw_dBexpG1UbGB4B-150" value="FK" style="shape=partialRectangle;connectable=0;fillColor=none;top=0;left=0;bottom=0;right=0;editable=1;overflow=hidden;whiteSpace=wrap;html=1;" parent="MahOUw_dBexpG1UbGB4B-149" vertex="1">
          <mxGeometry width="30" height="30" as="geometry">
            <mxRectangle width="30" height="30" as="alternateBounds" />
          </mxGeometry>
        </mxCell>
        <mxCell id="MahOUw_dBexpG1UbGB4B-151" value="StudyID" style="shape=partialRectangle;connectable=0;fillColor=none;top=0;left=0;bottom=0;right=0;align=left;spacingLeft=6;overflow=hidden;whiteSpace=wrap;html=1;" parent="MahOUw_dBexpG1UbGB4B-149" vertex="1">
          <mxGeometry x="30" width="90" height="30" as="geometry">
            <mxRectangle width="90" height="30" as="alternateBounds" />
          </mxGeometry>
        </mxCell>
        <mxCell id="MahOUw_dBexpG1UbGB4B-152" value="Varchar(10)" style="shape=partialRectangle;connectable=0;fillColor=none;top=0;left=0;bottom=0;right=0;align=left;spacingLeft=6;overflow=hidden;whiteSpace=wrap;html=1;" parent="MahOUw_dBexpG1UbGB4B-149" vertex="1">
          <mxGeometry x="120" width="80" height="30" as="geometry">
            <mxRectangle width="80" height="30" as="alternateBounds" />
          </mxGeometry>
        </mxCell>
        <mxCell id="MahOUw_dBexpG1UbGB4B-153" value="" style="shape=tableRow;horizontal=0;startSize=0;swimlaneHead=0;swimlaneBody=0;fillColor=none;collapsible=0;dropTarget=0;points=[[0,0.5],[1,0.5]];portConstraint=eastwest;top=0;left=0;right=0;bottom=0;" parent="MahOUw_dBexpG1UbGB4B-144" vertex="1">
          <mxGeometry y="90" width="200" height="30" as="geometry" />
        </mxCell>
        <mxCell id="MahOUw_dBexpG1UbGB4B-154" value="" style="shape=partialRectangle;connectable=0;fillColor=none;top=0;left=0;bottom=0;right=0;editable=1;overflow=hidden;whiteSpace=wrap;html=1;" parent="MahOUw_dBexpG1UbGB4B-153" vertex="1">
          <mxGeometry width="30" height="30" as="geometry">
            <mxRectangle width="30" height="30" as="alternateBounds" />
          </mxGeometry>
        </mxCell>
        <mxCell id="MahOUw_dBexpG1UbGB4B-155" value="ExamNumber" style="shape=partialRectangle;connectable=0;fillColor=none;top=0;left=0;bottom=0;right=0;align=left;spacingLeft=6;overflow=hidden;whiteSpace=wrap;html=1;" parent="MahOUw_dBexpG1UbGB4B-153" vertex="1">
          <mxGeometry x="30" width="90" height="30" as="geometry">
            <mxRectangle width="90" height="30" as="alternateBounds" />
          </mxGeometry>
        </mxCell>
        <mxCell id="MahOUw_dBexpG1UbGB4B-156" value="Integer" style="shape=partialRectangle;connectable=0;fillColor=none;top=0;left=0;bottom=0;right=0;align=left;spacingLeft=6;overflow=hidden;whiteSpace=wrap;html=1;" parent="MahOUw_dBexpG1UbGB4B-153" vertex="1">
          <mxGeometry x="120" width="80" height="30" as="geometry">
            <mxRectangle width="80" height="30" as="alternateBounds" />
          </mxGeometry>
        </mxCell>
        <mxCell id="MahOUw_dBexpG1UbGB4B-157" value="" style="shape=tableRow;horizontal=0;startSize=0;swimlaneHead=0;swimlaneBody=0;fillColor=none;collapsible=0;dropTarget=0;points=[[0,0.5],[1,0.5]];portConstraint=eastwest;top=0;left=0;right=0;bottom=0;" parent="MahOUw_dBexpG1UbGB4B-144" vertex="1">
          <mxGeometry y="120" width="200" height="30" as="geometry" />
        </mxCell>
        <mxCell id="MahOUw_dBexpG1UbGB4B-158" value="" style="shape=partialRectangle;connectable=0;fillColor=none;top=0;left=0;bottom=0;right=0;editable=1;overflow=hidden;whiteSpace=wrap;html=1;" parent="MahOUw_dBexpG1UbGB4B-157" vertex="1">
          <mxGeometry width="30" height="30" as="geometry">
            <mxRectangle width="30" height="30" as="alternateBounds" />
          </mxGeometry>
        </mxCell>
        <mxCell id="MahOUw_dBexpG1UbGB4B-159" value="ExamDate" style="shape=partialRectangle;connectable=0;fillColor=none;top=0;left=0;bottom=0;right=0;align=left;spacingLeft=6;overflow=hidden;whiteSpace=wrap;html=1;" parent="MahOUw_dBexpG1UbGB4B-157" vertex="1">
          <mxGeometry x="30" width="90" height="30" as="geometry">
            <mxRectangle width="90" height="30" as="alternateBounds" />
          </mxGeometry>
        </mxCell>
        <mxCell id="MahOUw_dBexpG1UbGB4B-160" value="Date" style="shape=partialRectangle;connectable=0;fillColor=none;top=0;left=0;bottom=0;right=0;align=left;spacingLeft=6;overflow=hidden;whiteSpace=wrap;html=1;" parent="MahOUw_dBexpG1UbGB4B-157" vertex="1">
          <mxGeometry x="120" width="80" height="30" as="geometry">
            <mxRectangle width="80" height="30" as="alternateBounds" />
          </mxGeometry>
        </mxCell>
        <mxCell id="FZvELc99l1QP3o9KrhBz-10" style="shape=tableRow;horizontal=0;startSize=0;swimlaneHead=0;swimlaneBody=0;fillColor=none;collapsible=0;dropTarget=0;points=[[0,0.5],[1,0.5]];portConstraint=eastwest;top=0;left=0;right=0;bottom=0;" parent="MahOUw_dBexpG1UbGB4B-144" vertex="1">
          <mxGeometry y="150" width="200" height="30" as="geometry" />
        </mxCell>
        <mxCell id="FZvELc99l1QP3o9KrhBz-11" style="shape=partialRectangle;connectable=0;fillColor=none;top=0;left=0;bottom=0;right=0;editable=1;overflow=hidden;whiteSpace=wrap;html=1;" parent="FZvELc99l1QP3o9KrhBz-10" vertex="1">
          <mxGeometry width="30" height="30" as="geometry">
            <mxRectangle width="30" height="30" as="alternateBounds" />
          </mxGeometry>
        </mxCell>
        <mxCell id="FZvELc99l1QP3o9KrhBz-12" value="Coefficient" style="shape=partialRectangle;connectable=0;fillColor=none;top=0;left=0;bottom=0;right=0;align=left;spacingLeft=6;overflow=hidden;whiteSpace=wrap;html=1;" parent="FZvELc99l1QP3o9KrhBz-10" vertex="1">
          <mxGeometry x="30" width="90" height="30" as="geometry">
            <mxRectangle width="90" height="30" as="alternateBounds" />
          </mxGeometry>
        </mxCell>
        <mxCell id="FZvELc99l1QP3o9KrhBz-13" value="Integer" style="shape=partialRectangle;connectable=0;fillColor=none;top=0;left=0;bottom=0;right=0;align=left;spacingLeft=6;overflow=hidden;whiteSpace=wrap;html=1;" parent="FZvELc99l1QP3o9KrhBz-10" vertex="1">
          <mxGeometry x="120" width="80" height="30" as="geometry">
            <mxRectangle width="80" height="30" as="alternateBounds" />
          </mxGeometry>
        </mxCell>
        <mxCell id="MahOUw_dBexpG1UbGB4B-161" style="shape=tableRow;horizontal=0;startSize=0;swimlaneHead=0;swimlaneBody=0;fillColor=none;collapsible=0;dropTarget=0;points=[[0,0.5],[1,0.5]];portConstraint=eastwest;top=0;left=0;right=0;bottom=0;" parent="MahOUw_dBexpG1UbGB4B-144" vertex="1">
          <mxGeometry y="180" width="200" height="30" as="geometry" />
        </mxCell>
        <mxCell id="MahOUw_dBexpG1UbGB4B-162" style="shape=partialRectangle;connectable=0;fillColor=none;top=0;left=0;bottom=0;right=0;editable=1;overflow=hidden;whiteSpace=wrap;html=1;" parent="MahOUw_dBexpG1UbGB4B-161" vertex="1">
          <mxGeometry width="30" height="30" as="geometry">
            <mxRectangle width="30" height="30" as="alternateBounds" />
          </mxGeometry>
        </mxCell>
        <mxCell id="MahOUw_dBexpG1UbGB4B-163" value="Score" style="shape=partialRectangle;connectable=0;fillColor=none;top=0;left=0;bottom=0;right=0;align=left;spacingLeft=6;overflow=hidden;whiteSpace=wrap;html=1;" parent="MahOUw_dBexpG1UbGB4B-161" vertex="1">
          <mxGeometry x="30" width="90" height="30" as="geometry">
            <mxRectangle width="90" height="30" as="alternateBounds" />
          </mxGeometry>
        </mxCell>
        <mxCell id="MahOUw_dBexpG1UbGB4B-164" value="Float" style="shape=partialRectangle;connectable=0;fillColor=none;top=0;left=0;bottom=0;right=0;align=left;spacingLeft=6;overflow=hidden;whiteSpace=wrap;html=1;" parent="MahOUw_dBexpG1UbGB4B-161" vertex="1">
          <mxGeometry x="120" width="80" height="30" as="geometry">
            <mxRectangle width="80" height="30" as="alternateBounds" />
          </mxGeometry>
        </mxCell>
        <mxCell id="MahOUw_dBexpG1UbGB4B-186" value="users" style="shape=table;startSize=30;container=1;collapsible=1;childLayout=tableLayout;fixedRows=1;rowLines=0;fontStyle=1;align=center;resizeLast=1;html=1;" parent="1" vertex="1">
          <mxGeometry x="280" y="10" width="320" height="210" as="geometry" />
        </mxCell>
        <mxCell id="MahOUw_dBexpG1UbGB4B-187" value="" style="shape=tableRow;horizontal=0;startSize=0;swimlaneHead=0;swimlaneBody=0;fillColor=none;collapsible=0;dropTarget=0;points=[[0,0.5],[1,0.5]];portConstraint=eastwest;top=0;left=0;right=0;bottom=1;" parent="MahOUw_dBexpG1UbGB4B-186" vertex="1">
          <mxGeometry y="30" width="320" height="30" as="geometry" />
        </mxCell>
        <mxCell id="MahOUw_dBexpG1UbGB4B-188" value="PK" style="shape=partialRectangle;connectable=0;fillColor=none;top=0;left=0;bottom=0;right=0;fontStyle=1;overflow=hidden;whiteSpace=wrap;html=1;" parent="MahOUw_dBexpG1UbGB4B-187" vertex="1">
          <mxGeometry width="30" height="30" as="geometry">
            <mxRectangle width="30" height="30" as="alternateBounds" />
          </mxGeometry>
        </mxCell>
        <mxCell id="MahOUw_dBexpG1UbGB4B-189" value="UserID" style="shape=partialRectangle;connectable=0;fillColor=none;top=0;left=0;bottom=0;right=0;align=left;spacingLeft=6;fontStyle=5;overflow=hidden;whiteSpace=wrap;html=1;" parent="MahOUw_dBexpG1UbGB4B-187" vertex="1">
          <mxGeometry x="30" width="87" height="30" as="geometry">
            <mxRectangle width="87" height="30" as="alternateBounds" />
          </mxGeometry>
        </mxCell>
        <mxCell id="MahOUw_dBexpG1UbGB4B-190" value="Varchar(10)" style="shape=partialRectangle;connectable=0;fillColor=none;top=0;left=0;bottom=0;right=0;align=left;spacingLeft=6;fontStyle=5;overflow=hidden;whiteSpace=wrap;html=1;" parent="MahOUw_dBexpG1UbGB4B-187" vertex="1">
          <mxGeometry x="117" width="203" height="30" as="geometry">
            <mxRectangle width="203" height="30" as="alternateBounds" />
          </mxGeometry>
        </mxCell>
        <mxCell id="MahOUw_dBexpG1UbGB4B-191" value="" style="shape=tableRow;horizontal=0;startSize=0;swimlaneHead=0;swimlaneBody=0;fillColor=none;collapsible=0;dropTarget=0;points=[[0,0.5],[1,0.5]];portConstraint=eastwest;top=0;left=0;right=0;bottom=0;" parent="MahOUw_dBexpG1UbGB4B-186" vertex="1">
          <mxGeometry y="60" width="320" height="30" as="geometry" />
        </mxCell>
        <mxCell id="MahOUw_dBexpG1UbGB4B-192" value="" style="shape=partialRectangle;connectable=0;fillColor=none;top=0;left=0;bottom=0;right=0;editable=1;overflow=hidden;whiteSpace=wrap;html=1;" parent="MahOUw_dBexpG1UbGB4B-191" vertex="1">
          <mxGeometry width="30" height="30" as="geometry">
            <mxRectangle width="30" height="30" as="alternateBounds" />
          </mxGeometry>
        </mxCell>
        <mxCell id="MahOUw_dBexpG1UbGB4B-193" value="Account" style="shape=partialRectangle;connectable=0;fillColor=none;top=0;left=0;bottom=0;right=0;align=left;spacingLeft=6;overflow=hidden;whiteSpace=wrap;html=1;" parent="MahOUw_dBexpG1UbGB4B-191" vertex="1">
          <mxGeometry x="30" width="87" height="30" as="geometry">
            <mxRectangle width="87" height="30" as="alternateBounds" />
          </mxGeometry>
        </mxCell>
        <mxCell id="MahOUw_dBexpG1UbGB4B-194" value="Varchar(20)" style="shape=partialRectangle;connectable=0;fillColor=none;top=0;left=0;bottom=0;right=0;align=left;spacingLeft=6;overflow=hidden;whiteSpace=wrap;html=1;" parent="MahOUw_dBexpG1UbGB4B-191" vertex="1">
          <mxGeometry x="117" width="203" height="30" as="geometry">
            <mxRectangle width="203" height="30" as="alternateBounds" />
          </mxGeometry>
        </mxCell>
        <mxCell id="MahOUw_dBexpG1UbGB4B-195" value="" style="shape=tableRow;horizontal=0;startSize=0;swimlaneHead=0;swimlaneBody=0;fillColor=none;collapsible=0;dropTarget=0;points=[[0,0.5],[1,0.5]];portConstraint=eastwest;top=0;left=0;right=0;bottom=0;" parent="MahOUw_dBexpG1UbGB4B-186" vertex="1">
          <mxGeometry y="90" width="320" height="30" as="geometry" />
        </mxCell>
        <mxCell id="MahOUw_dBexpG1UbGB4B-196" value="" style="shape=partialRectangle;connectable=0;fillColor=none;top=0;left=0;bottom=0;right=0;editable=1;overflow=hidden;whiteSpace=wrap;html=1;" parent="MahOUw_dBexpG1UbGB4B-195" vertex="1">
          <mxGeometry width="30" height="30" as="geometry">
            <mxRectangle width="30" height="30" as="alternateBounds" />
          </mxGeometry>
        </mxCell>
        <mxCell id="MahOUw_dBexpG1UbGB4B-197" value="Password" style="shape=partialRectangle;connectable=0;fillColor=none;top=0;left=0;bottom=0;right=0;align=left;spacingLeft=6;overflow=hidden;whiteSpace=wrap;html=1;" parent="MahOUw_dBexpG1UbGB4B-195" vertex="1">
          <mxGeometry x="30" width="87" height="30" as="geometry">
            <mxRectangle width="87" height="30" as="alternateBounds" />
          </mxGeometry>
        </mxCell>
        <mxCell id="MahOUw_dBexpG1UbGB4B-198" value="Varchar(255)" style="shape=partialRectangle;connectable=0;fillColor=none;top=0;left=0;bottom=0;right=0;align=left;spacingLeft=6;overflow=hidden;whiteSpace=wrap;html=1;" parent="MahOUw_dBexpG1UbGB4B-195" vertex="1">
          <mxGeometry x="117" width="203" height="30" as="geometry">
            <mxRectangle width="203" height="30" as="alternateBounds" />
          </mxGeometry>
        </mxCell>
        <mxCell id="MahOUw_dBexpG1UbGB4B-199" style="shape=tableRow;horizontal=0;startSize=0;swimlaneHead=0;swimlaneBody=0;fillColor=none;collapsible=0;dropTarget=0;points=[[0,0.5],[1,0.5]];portConstraint=eastwest;top=0;left=0;right=0;bottom=0;" parent="MahOUw_dBexpG1UbGB4B-186" vertex="1">
          <mxGeometry y="120" width="320" height="30" as="geometry" />
        </mxCell>
        <mxCell id="MahOUw_dBexpG1UbGB4B-200" style="shape=partialRectangle;connectable=0;fillColor=none;top=0;left=0;bottom=0;right=0;editable=1;overflow=hidden;whiteSpace=wrap;html=1;" parent="MahOUw_dBexpG1UbGB4B-199" vertex="1">
          <mxGeometry width="30" height="30" as="geometry">
            <mxRectangle width="30" height="30" as="alternateBounds" />
          </mxGeometry>
        </mxCell>
        <mxCell id="MahOUw_dBexpG1UbGB4B-201" value="Role" style="shape=partialRectangle;connectable=0;fillColor=none;top=0;left=0;bottom=0;right=0;align=left;spacingLeft=6;overflow=hidden;whiteSpace=wrap;html=1;" parent="MahOUw_dBexpG1UbGB4B-199" vertex="1">
          <mxGeometry x="30" width="87" height="30" as="geometry">
            <mxRectangle width="87" height="30" as="alternateBounds" />
          </mxGeometry>
        </mxCell>
        <mxCell id="MahOUw_dBexpG1UbGB4B-202" value="Enum(&#39;Admin&#39;, &#39;Teacher&#39;, &#39;Student&#39;)" style="shape=partialRectangle;connectable=0;fillColor=none;top=0;left=0;bottom=0;right=0;align=left;spacingLeft=6;overflow=hidden;whiteSpace=wrap;html=1;" parent="MahOUw_dBexpG1UbGB4B-199" vertex="1">
          <mxGeometry x="117" width="203" height="30" as="geometry">
            <mxRectangle width="203" height="30" as="alternateBounds" />
          </mxGeometry>
        </mxCell>
        <mxCell id="MahOUw_dBexpG1UbGB4B-203" style="shape=tableRow;horizontal=0;startSize=0;swimlaneHead=0;swimlaneBody=0;fillColor=none;collapsible=0;dropTarget=0;points=[[0,0.5],[1,0.5]];portConstraint=eastwest;top=0;left=0;right=0;bottom=0;" parent="MahOUw_dBexpG1UbGB4B-186" vertex="1">
          <mxGeometry y="150" width="320" height="30" as="geometry" />
        </mxCell>
        <mxCell id="MahOUw_dBexpG1UbGB4B-204" style="shape=partialRectangle;connectable=0;fillColor=none;top=0;left=0;bottom=0;right=0;editable=1;overflow=hidden;whiteSpace=wrap;html=1;" parent="MahOUw_dBexpG1UbGB4B-203" vertex="1">
          <mxGeometry width="30" height="30" as="geometry">
            <mxRectangle width="30" height="30" as="alternateBounds" />
          </mxGeometry>
        </mxCell>
        <mxCell id="MahOUw_dBexpG1UbGB4B-205" value="Status" style="shape=partialRectangle;connectable=0;fillColor=none;top=0;left=0;bottom=0;right=0;align=left;spacingLeft=6;overflow=hidden;whiteSpace=wrap;html=1;" parent="MahOUw_dBexpG1UbGB4B-203" vertex="1">
          <mxGeometry x="30" width="87" height="30" as="geometry">
            <mxRectangle width="87" height="30" as="alternateBounds" />
          </mxGeometry>
        </mxCell>
        <mxCell id="MahOUw_dBexpG1UbGB4B-206" value="Enum(&#39;Active&#39;, &#39;Locked&#39;)" style="shape=partialRectangle;connectable=0;fillColor=none;top=0;left=0;bottom=0;right=0;align=left;spacingLeft=6;overflow=hidden;whiteSpace=wrap;html=1;" parent="MahOUw_dBexpG1UbGB4B-203" vertex="1">
          <mxGeometry x="117" width="203" height="30" as="geometry">
            <mxRectangle width="203" height="30" as="alternateBounds" />
          </mxGeometry>
        </mxCell>
        <mxCell id="wC0OtTFozYtPwnWG56TS-1" style="shape=tableRow;horizontal=0;startSize=0;swimlaneHead=0;swimlaneBody=0;fillColor=none;collapsible=0;dropTarget=0;points=[[0,0.5],[1,0.5]];portConstraint=eastwest;top=0;left=0;right=0;bottom=0;" parent="MahOUw_dBexpG1UbGB4B-186" vertex="1">
          <mxGeometry y="180" width="320" height="30" as="geometry" />
        </mxCell>
        <mxCell id="wC0OtTFozYtPwnWG56TS-2" style="shape=partialRectangle;connectable=0;fillColor=none;top=0;left=0;bottom=0;right=0;editable=1;overflow=hidden;whiteSpace=wrap;html=1;" parent="wC0OtTFozYtPwnWG56TS-1" vertex="1">
          <mxGeometry width="30" height="30" as="geometry">
            <mxRectangle width="30" height="30" as="alternateBounds" />
          </mxGeometry>
        </mxCell>
        <mxCell id="wC0OtTFozYtPwnWG56TS-3" value="CreatedDate" style="shape=partialRectangle;connectable=0;fillColor=none;top=0;left=0;bottom=0;right=0;align=left;spacingLeft=6;overflow=hidden;whiteSpace=wrap;html=1;" parent="wC0OtTFozYtPwnWG56TS-1" vertex="1">
          <mxGeometry x="30" width="87" height="30" as="geometry">
            <mxRectangle width="87" height="30" as="alternateBounds" />
          </mxGeometry>
        </mxCell>
        <mxCell id="wC0OtTFozYtPwnWG56TS-4" value="DateTime" style="shape=partialRectangle;connectable=0;fillColor=none;top=0;left=0;bottom=0;right=0;align=left;spacingLeft=6;overflow=hidden;whiteSpace=wrap;html=1;" parent="wC0OtTFozYtPwnWG56TS-1" vertex="1">
          <mxGeometry x="117" width="203" height="30" as="geometry">
            <mxRectangle width="203" height="30" as="alternateBounds" />
          </mxGeometry>
        </mxCell>
        <mxCell id="MahOUw_dBexpG1UbGB4B-207" value="subjects" style="shape=table;startSize=30;container=1;collapsible=1;childLayout=tableLayout;fixedRows=1;rowLines=0;fontStyle=1;align=center;resizeLast=1;html=1;" parent="1" vertex="1">
          <mxGeometry x="760" y="650" width="240" height="180" as="geometry" />
        </mxCell>
        <mxCell id="MahOUw_dBexpG1UbGB4B-208" value="" style="shape=tableRow;horizontal=0;startSize=0;swimlaneHead=0;swimlaneBody=0;fillColor=none;collapsible=0;dropTarget=0;points=[[0,0.5],[1,0.5]];portConstraint=eastwest;top=0;left=0;right=0;bottom=1;" parent="MahOUw_dBexpG1UbGB4B-207" vertex="1">
          <mxGeometry y="30" width="240" height="30" as="geometry" />
        </mxCell>
        <mxCell id="MahOUw_dBexpG1UbGB4B-209" value="PK" style="shape=partialRectangle;connectable=0;fillColor=none;top=0;left=0;bottom=0;right=0;fontStyle=1;overflow=hidden;whiteSpace=wrap;html=1;" parent="MahOUw_dBexpG1UbGB4B-208" vertex="1">
          <mxGeometry width="30" height="30" as="geometry">
            <mxRectangle width="30" height="30" as="alternateBounds" />
          </mxGeometry>
        </mxCell>
        <mxCell id="MahOUw_dBexpG1UbGB4B-210" value="SubjectID" style="shape=partialRectangle;connectable=0;fillColor=none;top=0;left=0;bottom=0;right=0;align=left;spacingLeft=6;fontStyle=5;overflow=hidden;whiteSpace=wrap;html=1;" parent="MahOUw_dBexpG1UbGB4B-208" vertex="1">
          <mxGeometry x="30" width="70" height="30" as="geometry">
            <mxRectangle width="70" height="30" as="alternateBounds" />
          </mxGeometry>
        </mxCell>
        <mxCell id="MahOUw_dBexpG1UbGB4B-211" value="Varchar(6)" style="shape=partialRectangle;connectable=0;fillColor=none;top=0;left=0;bottom=0;right=0;align=left;spacingLeft=6;fontStyle=5;overflow=hidden;whiteSpace=wrap;html=1;" parent="MahOUw_dBexpG1UbGB4B-208" vertex="1">
          <mxGeometry x="100" width="140" height="30" as="geometry">
            <mxRectangle width="140" height="30" as="alternateBounds" />
          </mxGeometry>
        </mxCell>
        <mxCell id="MahOUw_dBexpG1UbGB4B-212" value="" style="shape=tableRow;horizontal=0;startSize=0;swimlaneHead=0;swimlaneBody=0;fillColor=none;collapsible=0;dropTarget=0;points=[[0,0.5],[1,0.5]];portConstraint=eastwest;top=0;left=0;right=0;bottom=0;" parent="MahOUw_dBexpG1UbGB4B-207" vertex="1">
          <mxGeometry y="60" width="240" height="30" as="geometry" />
        </mxCell>
        <mxCell id="MahOUw_dBexpG1UbGB4B-213" value="" style="shape=partialRectangle;connectable=0;fillColor=none;top=0;left=0;bottom=0;right=0;editable=1;overflow=hidden;whiteSpace=wrap;html=1;" parent="MahOUw_dBexpG1UbGB4B-212" vertex="1">
          <mxGeometry width="30" height="30" as="geometry">
            <mxRectangle width="30" height="30" as="alternateBounds" />
          </mxGeometry>
        </mxCell>
        <mxCell id="MahOUw_dBexpG1UbGB4B-214" value="Name" style="shape=partialRectangle;connectable=0;fillColor=none;top=0;left=0;bottom=0;right=0;align=left;spacingLeft=6;overflow=hidden;whiteSpace=wrap;html=1;" parent="MahOUw_dBexpG1UbGB4B-212" vertex="1">
          <mxGeometry x="30" width="70" height="30" as="geometry">
            <mxRectangle width="70" height="30" as="alternateBounds" />
          </mxGeometry>
        </mxCell>
        <mxCell id="MahOUw_dBexpG1UbGB4B-215" value="Varchar(10)" style="shape=partialRectangle;connectable=0;fillColor=none;top=0;left=0;bottom=0;right=0;align=left;spacingLeft=6;overflow=hidden;whiteSpace=wrap;html=1;" parent="MahOUw_dBexpG1UbGB4B-212" vertex="1">
          <mxGeometry x="100" width="140" height="30" as="geometry">
            <mxRectangle width="140" height="30" as="alternateBounds" />
          </mxGeometry>
        </mxCell>
        <mxCell id="MahOUw_dBexpG1UbGB4B-216" value="" style="shape=tableRow;horizontal=0;startSize=0;swimlaneHead=0;swimlaneBody=0;fillColor=none;collapsible=0;dropTarget=0;points=[[0,0.5],[1,0.5]];portConstraint=eastwest;top=0;left=0;right=0;bottom=0;" parent="MahOUw_dBexpG1UbGB4B-207" vertex="1">
          <mxGeometry y="90" width="240" height="30" as="geometry" />
        </mxCell>
        <mxCell id="MahOUw_dBexpG1UbGB4B-217" value="" style="shape=partialRectangle;connectable=0;fillColor=none;top=0;left=0;bottom=0;right=0;editable=1;overflow=hidden;whiteSpace=wrap;html=1;" parent="MahOUw_dBexpG1UbGB4B-216" vertex="1">
          <mxGeometry width="30" height="30" as="geometry">
            <mxRectangle width="30" height="30" as="alternateBounds" />
          </mxGeometry>
        </mxCell>
        <mxCell id="MahOUw_dBexpG1UbGB4B-218" value="Mass" style="shape=partialRectangle;connectable=0;fillColor=none;top=0;left=0;bottom=0;right=0;align=left;spacingLeft=6;overflow=hidden;whiteSpace=wrap;html=1;" parent="MahOUw_dBexpG1UbGB4B-216" vertex="1">
          <mxGeometry x="30" width="70" height="30" as="geometry">
            <mxRectangle width="70" height="30" as="alternateBounds" />
          </mxGeometry>
        </mxCell>
        <mxCell id="MahOUw_dBexpG1UbGB4B-219" value="Integer" style="shape=partialRectangle;connectable=0;fillColor=none;top=0;left=0;bottom=0;right=0;align=left;spacingLeft=6;overflow=hidden;whiteSpace=wrap;html=1;" parent="MahOUw_dBexpG1UbGB4B-216" vertex="1">
          <mxGeometry x="100" width="140" height="30" as="geometry">
            <mxRectangle width="140" height="30" as="alternateBounds" />
          </mxGeometry>
        </mxCell>
        <mxCell id="MahOUw_dBexpG1UbGB4B-220" value="" style="shape=tableRow;horizontal=0;startSize=0;swimlaneHead=0;swimlaneBody=0;fillColor=none;collapsible=0;dropTarget=0;points=[[0,0.5],[1,0.5]];portConstraint=eastwest;top=0;left=0;right=0;bottom=0;" parent="MahOUw_dBexpG1UbGB4B-207" vertex="1">
          <mxGeometry y="120" width="240" height="30" as="geometry" />
        </mxCell>
        <mxCell id="MahOUw_dBexpG1UbGB4B-221" value="" style="shape=partialRectangle;connectable=0;fillColor=none;top=0;left=0;bottom=0;right=0;editable=1;overflow=hidden;whiteSpace=wrap;html=1;" parent="MahOUw_dBexpG1UbGB4B-220" vertex="1">
          <mxGeometry width="30" height="30" as="geometry">
            <mxRectangle width="30" height="30" as="alternateBounds" />
          </mxGeometry>
        </mxCell>
        <mxCell id="MahOUw_dBexpG1UbGB4B-222" value="Tuition" style="shape=partialRectangle;connectable=0;fillColor=none;top=0;left=0;bottom=0;right=0;align=left;spacingLeft=6;overflow=hidden;whiteSpace=wrap;html=1;" parent="MahOUw_dBexpG1UbGB4B-220" vertex="1">
          <mxGeometry x="30" width="70" height="30" as="geometry">
            <mxRectangle width="70" height="30" as="alternateBounds" />
          </mxGeometry>
        </mxCell>
        <mxCell id="MahOUw_dBexpG1UbGB4B-223" value="Integer" style="shape=partialRectangle;connectable=0;fillColor=none;top=0;left=0;bottom=0;right=0;align=left;spacingLeft=6;overflow=hidden;whiteSpace=wrap;html=1;" parent="MahOUw_dBexpG1UbGB4B-220" vertex="1">
          <mxGeometry x="100" width="140" height="30" as="geometry">
            <mxRectangle width="140" height="30" as="alternateBounds" />
          </mxGeometry>
        </mxCell>
        <mxCell id="vQaSJs1jzpEJr47SyI0O-9" style="shape=tableRow;horizontal=0;startSize=0;swimlaneHead=0;swimlaneBody=0;fillColor=none;collapsible=0;dropTarget=0;points=[[0,0.5],[1,0.5]];portConstraint=eastwest;top=0;left=0;right=0;bottom=0;" parent="MahOUw_dBexpG1UbGB4B-207" vertex="1">
          <mxGeometry y="150" width="240" height="30" as="geometry" />
        </mxCell>
        <mxCell id="vQaSJs1jzpEJr47SyI0O-10" style="shape=partialRectangle;connectable=0;fillColor=none;top=0;left=0;bottom=0;right=0;editable=1;overflow=hidden;whiteSpace=wrap;html=1;" parent="vQaSJs1jzpEJr47SyI0O-9" vertex="1">
          <mxGeometry width="30" height="30" as="geometry">
            <mxRectangle width="30" height="30" as="alternateBounds" />
          </mxGeometry>
        </mxCell>
        <mxCell id="vQaSJs1jzpEJr47SyI0O-11" value="Status" style="shape=partialRectangle;connectable=0;fillColor=none;top=0;left=0;bottom=0;right=0;align=left;spacingLeft=6;overflow=hidden;whiteSpace=wrap;html=1;" parent="vQaSJs1jzpEJr47SyI0O-9" vertex="1">
          <mxGeometry x="30" width="70" height="30" as="geometry">
            <mxRectangle width="70" height="30" as="alternateBounds" />
          </mxGeometry>
        </mxCell>
        <mxCell id="vQaSJs1jzpEJr47SyI0O-12" value="Enum(&#39;Deleted&#39;, &#39;Using&#39;)" style="shape=partialRectangle;connectable=0;fillColor=none;top=0;left=0;bottom=0;right=0;align=left;spacingLeft=6;overflow=hidden;whiteSpace=wrap;html=1;" parent="vQaSJs1jzpEJr47SyI0O-9" vertex="1">
          <mxGeometry x="100" width="140" height="30" as="geometry">
            <mxRectangle width="140" height="30" as="alternateBounds" />
          </mxGeometry>
        </mxCell>
        <mxCell id="MahOUw_dBexpG1UbGB4B-224" value="attendances" style="shape=table;startSize=30;container=1;collapsible=1;childLayout=tableLayout;fixedRows=1;rowLines=0;fontStyle=1;align=center;resizeLast=1;html=1;" parent="1" vertex="1">
          <mxGeometry x="-650" y="370" width="280" height="150" as="geometry" />
        </mxCell>
        <mxCell id="MahOUw_dBexpG1UbGB4B-225" value="" style="shape=tableRow;horizontal=0;startSize=0;swimlaneHead=0;swimlaneBody=0;fillColor=none;collapsible=0;dropTarget=0;points=[[0,0.5],[1,0.5]];portConstraint=eastwest;top=0;left=0;right=0;bottom=1;" parent="MahOUw_dBexpG1UbGB4B-224" vertex="1">
          <mxGeometry y="30" width="280" height="30" as="geometry" />
        </mxCell>
        <mxCell id="MahOUw_dBexpG1UbGB4B-226" value="PK" style="shape=partialRectangle;connectable=0;fillColor=none;top=0;left=0;bottom=0;right=0;fontStyle=1;overflow=hidden;whiteSpace=wrap;html=1;" parent="MahOUw_dBexpG1UbGB4B-225" vertex="1">
          <mxGeometry width="30" height="30" as="geometry">
            <mxRectangle width="30" height="30" as="alternateBounds" />
          </mxGeometry>
        </mxCell>
        <mxCell id="MahOUw_dBexpG1UbGB4B-227" value="&lt;strong data-end=&quot;853&quot; data-start=&quot;837&quot;&gt;AttendanceID&lt;/strong&gt;" style="shape=partialRectangle;connectable=0;fillColor=none;top=0;left=0;bottom=0;right=0;align=left;spacingLeft=6;fontStyle=5;overflow=hidden;whiteSpace=wrap;html=1;" parent="MahOUw_dBexpG1UbGB4B-225" vertex="1">
          <mxGeometry x="30" width="100" height="30" as="geometry">
            <mxRectangle width="100" height="30" as="alternateBounds" />
          </mxGeometry>
        </mxCell>
        <mxCell id="MahOUw_dBexpG1UbGB4B-228" value="Integer" style="shape=partialRectangle;connectable=0;fillColor=none;top=0;left=0;bottom=0;right=0;align=left;spacingLeft=6;fontStyle=5;overflow=hidden;whiteSpace=wrap;html=1;" parent="MahOUw_dBexpG1UbGB4B-225" vertex="1">
          <mxGeometry x="130" width="150" height="30" as="geometry">
            <mxRectangle width="150" height="30" as="alternateBounds" />
          </mxGeometry>
        </mxCell>
        <mxCell id="MahOUw_dBexpG1UbGB4B-229" value="" style="shape=tableRow;horizontal=0;startSize=0;swimlaneHead=0;swimlaneBody=0;fillColor=none;collapsible=0;dropTarget=0;points=[[0,0.5],[1,0.5]];portConstraint=eastwest;top=0;left=0;right=0;bottom=0;" parent="MahOUw_dBexpG1UbGB4B-224" vertex="1">
          <mxGeometry y="60" width="280" height="30" as="geometry" />
        </mxCell>
        <mxCell id="MahOUw_dBexpG1UbGB4B-230" value="FK" style="shape=partialRectangle;connectable=0;fillColor=none;top=0;left=0;bottom=0;right=0;editable=1;overflow=hidden;whiteSpace=wrap;html=1;" parent="MahOUw_dBexpG1UbGB4B-229" vertex="1">
          <mxGeometry width="30" height="30" as="geometry">
            <mxRectangle width="30" height="30" as="alternateBounds" />
          </mxGeometry>
        </mxCell>
        <mxCell id="MahOUw_dBexpG1UbGB4B-231" value="&lt;span data-end=&quot;903&quot; data-start=&quot;892&quot;&gt;StudyID&lt;/span&gt;" style="shape=partialRectangle;connectable=0;fillColor=none;top=0;left=0;bottom=0;right=0;align=left;spacingLeft=6;overflow=hidden;whiteSpace=wrap;html=1;" parent="MahOUw_dBexpG1UbGB4B-229" vertex="1">
          <mxGeometry x="30" width="100" height="30" as="geometry">
            <mxRectangle width="100" height="30" as="alternateBounds" />
          </mxGeometry>
        </mxCell>
        <mxCell id="MahOUw_dBexpG1UbGB4B-232" value="Varchar(10)" style="shape=partialRectangle;connectable=0;fillColor=none;top=0;left=0;bottom=0;right=0;align=left;spacingLeft=6;overflow=hidden;whiteSpace=wrap;html=1;" parent="MahOUw_dBexpG1UbGB4B-229" vertex="1">
          <mxGeometry x="130" width="150" height="30" as="geometry">
            <mxRectangle width="150" height="30" as="alternateBounds" />
          </mxGeometry>
        </mxCell>
        <mxCell id="MahOUw_dBexpG1UbGB4B-233" value="" style="shape=tableRow;horizontal=0;startSize=0;swimlaneHead=0;swimlaneBody=0;fillColor=none;collapsible=0;dropTarget=0;points=[[0,0.5],[1,0.5]];portConstraint=eastwest;top=0;left=0;right=0;bottom=0;" parent="MahOUw_dBexpG1UbGB4B-224" vertex="1">
          <mxGeometry y="90" width="280" height="30" as="geometry" />
        </mxCell>
        <mxCell id="MahOUw_dBexpG1UbGB4B-234" value="" style="shape=partialRectangle;connectable=0;fillColor=none;top=0;left=0;bottom=0;right=0;editable=1;overflow=hidden;whiteSpace=wrap;html=1;" parent="MahOUw_dBexpG1UbGB4B-233" vertex="1">
          <mxGeometry width="30" height="30" as="geometry">
            <mxRectangle width="30" height="30" as="alternateBounds" />
          </mxGeometry>
        </mxCell>
        <mxCell id="MahOUw_dBexpG1UbGB4B-235" value="AttendanceDate" style="shape=partialRectangle;connectable=0;fillColor=none;top=0;left=0;bottom=0;right=0;align=left;spacingLeft=6;overflow=hidden;whiteSpace=wrap;html=1;" parent="MahOUw_dBexpG1UbGB4B-233" vertex="1">
          <mxGeometry x="30" width="100" height="30" as="geometry">
            <mxRectangle width="100" height="30" as="alternateBounds" />
          </mxGeometry>
        </mxCell>
        <mxCell id="MahOUw_dBexpG1UbGB4B-236" value="Date" style="shape=partialRectangle;connectable=0;fillColor=none;top=0;left=0;bottom=0;right=0;align=left;spacingLeft=6;overflow=hidden;whiteSpace=wrap;html=1;" parent="MahOUw_dBexpG1UbGB4B-233" vertex="1">
          <mxGeometry x="130" width="150" height="30" as="geometry">
            <mxRectangle width="150" height="30" as="alternateBounds" />
          </mxGeometry>
        </mxCell>
        <mxCell id="MahOUw_dBexpG1UbGB4B-237" style="shape=tableRow;horizontal=0;startSize=0;swimlaneHead=0;swimlaneBody=0;fillColor=none;collapsible=0;dropTarget=0;points=[[0,0.5],[1,0.5]];portConstraint=eastwest;top=0;left=0;right=0;bottom=0;" parent="MahOUw_dBexpG1UbGB4B-224" vertex="1">
          <mxGeometry y="120" width="280" height="30" as="geometry" />
        </mxCell>
        <mxCell id="MahOUw_dBexpG1UbGB4B-238" style="shape=partialRectangle;connectable=0;fillColor=none;top=0;left=0;bottom=0;right=0;editable=1;overflow=hidden;whiteSpace=wrap;html=1;" parent="MahOUw_dBexpG1UbGB4B-237" vertex="1">
          <mxGeometry width="30" height="30" as="geometry">
            <mxRectangle width="30" height="30" as="alternateBounds" />
          </mxGeometry>
        </mxCell>
        <mxCell id="MahOUw_dBexpG1UbGB4B-239" value="Status" style="shape=partialRectangle;connectable=0;fillColor=none;top=0;left=0;bottom=0;right=0;align=left;spacingLeft=6;overflow=hidden;whiteSpace=wrap;html=1;" parent="MahOUw_dBexpG1UbGB4B-237" vertex="1">
          <mxGeometry x="30" width="100" height="30" as="geometry">
            <mxRectangle width="100" height="30" as="alternateBounds" />
          </mxGeometry>
        </mxCell>
        <mxCell id="MahOUw_dBexpG1UbGB4B-240" value="Enum(&#39;Present&#39;, &#39;Absent&#39;)" style="shape=partialRectangle;connectable=0;fillColor=none;top=0;left=0;bottom=0;right=0;align=left;spacingLeft=6;overflow=hidden;whiteSpace=wrap;html=1;" parent="MahOUw_dBexpG1UbGB4B-237" vertex="1">
          <mxGeometry x="130" width="150" height="30" as="geometry">
            <mxRectangle width="150" height="30" as="alternateBounds" />
          </mxGeometry>
        </mxCell>
        <mxCell id="MahOUw_dBexpG1UbGB4B-241" value="course_schedule" style="shape=table;startSize=30;container=1;collapsible=1;childLayout=tableLayout;fixedRows=1;rowLines=0;fontStyle=1;align=center;resizeLast=1;html=1;" parent="1" vertex="1">
          <mxGeometry x="290" y="530" width="230" height="120" as="geometry" />
        </mxCell>
        <mxCell id="MahOUw_dBexpG1UbGB4B-242" value="" style="shape=tableRow;horizontal=0;startSize=0;swimlaneHead=0;swimlaneBody=0;fillColor=none;collapsible=0;dropTarget=0;points=[[0,0.5],[1,0.5]];portConstraint=eastwest;top=0;left=0;right=0;bottom=1;" parent="MahOUw_dBexpG1UbGB4B-241" vertex="1">
          <mxGeometry y="30" width="230" height="30" as="geometry" />
        </mxCell>
        <mxCell id="MahOUw_dBexpG1UbGB4B-243" value="PK" style="shape=partialRectangle;connectable=0;fillColor=none;top=0;left=0;bottom=0;right=0;fontStyle=1;overflow=hidden;whiteSpace=wrap;html=1;" parent="MahOUw_dBexpG1UbGB4B-242" vertex="1">
          <mxGeometry width="30" height="30" as="geometry">
            <mxRectangle width="30" height="30" as="alternateBounds" />
          </mxGeometry>
        </mxCell>
        <mxCell id="MahOUw_dBexpG1UbGB4B-244" value="CourseScheduleID" style="shape=partialRectangle;connectable=0;fillColor=none;top=0;left=0;bottom=0;right=0;align=left;spacingLeft=6;fontStyle=5;overflow=hidden;whiteSpace=wrap;html=1;" parent="MahOUw_dBexpG1UbGB4B-242" vertex="1">
          <mxGeometry x="30" width="120" height="30" as="geometry">
            <mxRectangle width="120" height="30" as="alternateBounds" />
          </mxGeometry>
        </mxCell>
        <mxCell id="MahOUw_dBexpG1UbGB4B-245" value="Varchar(10)" style="shape=partialRectangle;connectable=0;fillColor=none;top=0;left=0;bottom=0;right=0;align=left;spacingLeft=6;fontStyle=5;overflow=hidden;whiteSpace=wrap;html=1;" parent="MahOUw_dBexpG1UbGB4B-242" vertex="1">
          <mxGeometry x="150" width="80" height="30" as="geometry">
            <mxRectangle width="80" height="30" as="alternateBounds" />
          </mxGeometry>
        </mxCell>
        <mxCell id="MahOUw_dBexpG1UbGB4B-246" style="shape=tableRow;horizontal=0;startSize=0;swimlaneHead=0;swimlaneBody=0;fillColor=none;collapsible=0;dropTarget=0;points=[[0,0.5],[1,0.5]];portConstraint=eastwest;top=0;left=0;right=0;bottom=0;" parent="MahOUw_dBexpG1UbGB4B-241" vertex="1">
          <mxGeometry y="60" width="230" height="30" as="geometry" />
        </mxCell>
        <mxCell id="MahOUw_dBexpG1UbGB4B-247" value="FK" style="shape=partialRectangle;connectable=0;fillColor=none;top=0;left=0;bottom=0;right=0;editable=1;overflow=hidden;whiteSpace=wrap;html=1;" parent="MahOUw_dBexpG1UbGB4B-246" vertex="1">
          <mxGeometry width="30" height="30" as="geometry">
            <mxRectangle width="30" height="30" as="alternateBounds" />
          </mxGeometry>
        </mxCell>
        <mxCell id="MahOUw_dBexpG1UbGB4B-248" value="CourseID" style="shape=partialRectangle;connectable=0;fillColor=none;top=0;left=0;bottom=0;right=0;align=left;spacingLeft=6;overflow=hidden;whiteSpace=wrap;html=1;" parent="MahOUw_dBexpG1UbGB4B-246" vertex="1">
          <mxGeometry x="30" width="120" height="30" as="geometry">
            <mxRectangle width="120" height="30" as="alternateBounds" />
          </mxGeometry>
        </mxCell>
        <mxCell id="MahOUw_dBexpG1UbGB4B-249" value="Varchar(6)" style="shape=partialRectangle;connectable=0;fillColor=none;top=0;left=0;bottom=0;right=0;align=left;spacingLeft=6;overflow=hidden;whiteSpace=wrap;html=1;" parent="MahOUw_dBexpG1UbGB4B-246" vertex="1">
          <mxGeometry x="150" width="80" height="30" as="geometry">
            <mxRectangle width="80" height="30" as="alternateBounds" />
          </mxGeometry>
        </mxCell>
        <mxCell id="MahOUw_dBexpG1UbGB4B-250" style="shape=tableRow;horizontal=0;startSize=0;swimlaneHead=0;swimlaneBody=0;fillColor=none;collapsible=0;dropTarget=0;points=[[0,0.5],[1,0.5]];portConstraint=eastwest;top=0;left=0;right=0;bottom=0;" parent="MahOUw_dBexpG1UbGB4B-241" vertex="1">
          <mxGeometry y="90" width="230" height="30" as="geometry" />
        </mxCell>
        <mxCell id="MahOUw_dBexpG1UbGB4B-251" value="FK" style="shape=partialRectangle;connectable=0;fillColor=none;top=0;left=0;bottom=0;right=0;editable=1;overflow=hidden;whiteSpace=wrap;html=1;" parent="MahOUw_dBexpG1UbGB4B-250" vertex="1">
          <mxGeometry width="30" height="30" as="geometry">
            <mxRectangle width="30" height="30" as="alternateBounds" />
          </mxGeometry>
        </mxCell>
        <mxCell id="MahOUw_dBexpG1UbGB4B-252" value="ScheduleID" style="shape=partialRectangle;connectable=0;fillColor=none;top=0;left=0;bottom=0;right=0;align=left;spacingLeft=6;overflow=hidden;whiteSpace=wrap;html=1;" parent="MahOUw_dBexpG1UbGB4B-250" vertex="1">
          <mxGeometry x="30" width="120" height="30" as="geometry">
            <mxRectangle width="120" height="30" as="alternateBounds" />
          </mxGeometry>
        </mxCell>
        <mxCell id="MahOUw_dBexpG1UbGB4B-253" value="Varchar(5)" style="shape=partialRectangle;connectable=0;fillColor=none;top=0;left=0;bottom=0;right=0;align=left;spacingLeft=6;overflow=hidden;whiteSpace=wrap;html=1;" parent="MahOUw_dBexpG1UbGB4B-250" vertex="1">
          <mxGeometry x="150" width="80" height="30" as="geometry">
            <mxRectangle width="80" height="30" as="alternateBounds" />
          </mxGeometry>
        </mxCell>
        <mxCell id="MahOUw_dBexpG1UbGB4B-254" value="" style="edgeStyle=entityRelationEdgeStyle;fontSize=12;html=1;endArrow=ERoneToMany;rounded=0;" parent="1" source="MahOUw_dBexpG1UbGB4B-1" target="MahOUw_dBexpG1UbGB4B-131" edge="1">
          <mxGeometry width="100" height="100" relative="1" as="geometry">
            <mxPoint x="320" y="490" as="sourcePoint" />
            <mxPoint x="420" y="390" as="targetPoint" />
          </mxGeometry>
        </mxCell>
        <mxCell id="MahOUw_dBexpG1UbGB4B-255" value="" style="edgeStyle=entityRelationEdgeStyle;fontSize=12;html=1;endArrow=ERoneToMany;rounded=0;" parent="1" source="MahOUw_dBexpG1UbGB4B-63" target="MahOUw_dBexpG1UbGB4B-131" edge="1">
          <mxGeometry width="100" height="100" relative="1" as="geometry">
            <mxPoint x="410" y="500" as="sourcePoint" />
            <mxPoint x="510" y="400" as="targetPoint" />
          </mxGeometry>
        </mxCell>
        <mxCell id="MahOUw_dBexpG1UbGB4B-256" value="" style="edgeStyle=entityRelationEdgeStyle;fontSize=12;html=1;endArrow=ERoneToMany;rounded=0;" parent="1" source="MahOUw_dBexpG1UbGB4B-131" target="MahOUw_dBexpG1UbGB4B-224" edge="1">
          <mxGeometry width="100" height="100" relative="1" as="geometry">
            <mxPoint x="320" y="490" as="sourcePoint" />
            <mxPoint x="420" y="390" as="targetPoint" />
          </mxGeometry>
        </mxCell>
        <mxCell id="MahOUw_dBexpG1UbGB4B-257" value="" style="edgeStyle=entityRelationEdgeStyle;fontSize=12;html=1;endArrow=ERoneToMany;rounded=0;" parent="1" source="MahOUw_dBexpG1UbGB4B-131" target="MahOUw_dBexpG1UbGB4B-144" edge="1">
          <mxGeometry width="100" height="100" relative="1" as="geometry">
            <mxPoint x="320" y="490" as="sourcePoint" />
            <mxPoint x="420" y="390" as="targetPoint" />
          </mxGeometry>
        </mxCell>
        <mxCell id="MahOUw_dBexpG1UbGB4B-258" value="" style="edgeStyle=entityRelationEdgeStyle;fontSize=12;html=1;endArrow=ERoneToMany;rounded=0;" parent="1" source="MahOUw_dBexpG1UbGB4B-26" target="MahOUw_dBexpG1UbGB4B-63" edge="1">
          <mxGeometry width="100" height="100" relative="1" as="geometry">
            <mxPoint x="410" y="500" as="sourcePoint" />
            <mxPoint x="510" y="400" as="targetPoint" />
          </mxGeometry>
        </mxCell>
        <mxCell id="MahOUw_dBexpG1UbGB4B-259" value="" style="edgeStyle=entityRelationEdgeStyle;fontSize=12;html=1;endArrow=ERoneToMany;rounded=0;" parent="1" source="MahOUw_dBexpG1UbGB4B-88" target="MahOUw_dBexpG1UbGB4B-63" edge="1">
          <mxGeometry width="100" height="100" relative="1" as="geometry">
            <mxPoint x="410" y="500" as="sourcePoint" />
            <mxPoint x="510" y="400" as="targetPoint" />
          </mxGeometry>
        </mxCell>
        <mxCell id="MahOUw_dBexpG1UbGB4B-262" value="" style="edgeStyle=entityRelationEdgeStyle;fontSize=12;html=1;endArrow=ERoneToMany;rounded=0;" parent="1" source="MahOUw_dBexpG1UbGB4B-63" target="MahOUw_dBexpG1UbGB4B-241" edge="1">
          <mxGeometry width="100" height="100" relative="1" as="geometry">
            <mxPoint x="410" y="500" as="sourcePoint" />
            <mxPoint x="510" y="400" as="targetPoint" />
          </mxGeometry>
        </mxCell>
        <mxCell id="MahOUw_dBexpG1UbGB4B-263" value="" style="edgeStyle=entityRelationEdgeStyle;fontSize=12;html=1;endArrow=ERoneToMany;rounded=0;" parent="1" source="MahOUw_dBexpG1UbGB4B-114" target="MahOUw_dBexpG1UbGB4B-241" edge="1">
          <mxGeometry width="100" height="100" relative="1" as="geometry">
            <mxPoint x="410" y="500" as="sourcePoint" />
            <mxPoint x="510" y="400" as="targetPoint" />
          </mxGeometry>
        </mxCell>
        <mxCell id="MahOUw_dBexpG1UbGB4B-264" value="" style="edgeStyle=entityRelationEdgeStyle;fontSize=12;html=1;endArrow=ERoneToMany;rounded=0;" parent="1" source="MahOUw_dBexpG1UbGB4B-207" target="MahOUw_dBexpG1UbGB4B-63" edge="1">
          <mxGeometry width="100" height="100" relative="1" as="geometry">
            <mxPoint x="410" y="500" as="sourcePoint" />
            <mxPoint x="510" y="400" as="targetPoint" />
          </mxGeometry>
        </mxCell>
        <mxCell id="MahOUw_dBexpG1UbGB4B-265" value="" style="edgeStyle=entityRelationEdgeStyle;fontSize=12;html=1;endArrow=ERmandOne;startArrow=ERmandOne;rounded=0;" parent="1" source="MahOUw_dBexpG1UbGB4B-186" target="MahOUw_dBexpG1UbGB4B-1" edge="1">
          <mxGeometry width="100" height="100" relative="1" as="geometry">
            <mxPoint x="410" y="500" as="sourcePoint" />
            <mxPoint x="510" y="400" as="targetPoint" />
          </mxGeometry>
        </mxCell>
        <mxCell id="MahOUw_dBexpG1UbGB4B-266" value="" style="edgeStyle=entityRelationEdgeStyle;fontSize=12;html=1;endArrow=ERmandOne;startArrow=ERmandOne;rounded=0;" parent="1" source="MahOUw_dBexpG1UbGB4B-186" target="MahOUw_dBexpG1UbGB4B-26" edge="1">
          <mxGeometry width="100" height="100" relative="1" as="geometry">
            <mxPoint x="410" y="500" as="sourcePoint" />
            <mxPoint x="510" y="400" as="targetPoint" />
          </mxGeometry>
        </mxCell>
      </root>
    </mxGraphModel>
  </diagram>
</mxfile>
